0
SECTION
2
HEADER
9
$ACADVER
1
AC1015
0
ENDSEC
0
SECTION
2
ENTITIES
0
LWPOLYLINE
5
64
100
AcDbEntity
8
0
100
AcDbPolyline
90
338
70
1
10
10.479869
20
-1.531244
10
10.854150
20
-1.585932
10
11.228431
20
-1.640619
10
11.602712
20
-1.695306
10
11.981079
20
-1.721802
10
12.369396
20
-1.675976
10
12.762469
20
-1.586313
10
13.158145
20
-1.460326
10
13.554846
20
-1.301518
10
13.951201
20
-1.111942
10
14.345934
20
-0.892961
10
14.737821
20
-0.645555
10
15.125672
20
-0.370481
10
15.125672
20
0.370481
10
14.737821
20
0.645555
10
14.345934
20
0.892961
10
13.951201
20
1.111942
10
13.554846
20
1.301518
10
13.158145
20
1.460326
10
12.762469
20
1.586313
10
12.369396
20
1.675976
10
11.981079
20
1.721802
10
11.602712
20
1.695306
10
11.228431
20
1.640619
10
10.854150
20
1.585932
10
10.479869
20
1.531244
10
9.991068
20
3.514389
10
10.347892
20
3.639903
10
10.704716
20
3.765416
10
11.061540
20
3.890930
10
11.408880
20
4.043305
10
11.731421
20
4.264342
10
12.037802
20
4.526405
10
12.329606
20
4.821840
10
12.607065
20
5.146814
10
12.869920
20
5.498870
10
13.117673
20
5.876210
10
13.349697
20
6.277397
10
13.565288
20
6.701206
10
13.220946
20
7.357294
10
12.749689
20
7.420617
10
12.287714
20
7.457566
10
11.836429
20
7.468022
10
11.397374
20
7.451688
10
10.972311
20
7.407950
10
10.563409
20
7.335626
10
10.173691
20
7.232348
10
9.808557
20
7.092465
10
9.485844
20
6.893168
10
9.179849
20
6.670808
10
8.873854
20
6.448448
10
8.567859
20
6.226088
10
7.213434
20
7.754917
10
7.471056
20
8.031879
10
7.728679
20
8.308840
10
7.986302
20
8.585801
10
8.223044
20
8.882139
10
8.405919
20
9.227750
10
8.555419
20
9.602178
10
8.676503
20
9.999381
10
8.771158
20
10.416073
10
8.840296
20
10.849958
10
8.884312
20
11.299212
10
8.903318
20
11.762272
10
8.897260
20
12.237727
10
8.287461
20
12.658641
10
7.840756
20
12.495706
10
7.414527
20
12.313732
10
7.010075
20
12.113268
10
6.628902
20
11.894766
10
6.272853
20
11.658501
10
5.944399
20
11.404435
10
5.647317
20
11.131876
10
5.389013
20
10.838330
10
5.195882
20
10.511889
10
5.028273
20
10.172796
10
4.860664
20
9.833702
10
4.693055
20
9.494609
10
2.783288
20
10.218888
10
2.882692
20
10.583848
10
2.982095
20
10.948809
10
3.081498
20
11.313769
10
3.153408
20
11.686183
10
3.154722
20
12.077193
10
3.113093
20
12.478208
10
3.035718
20
12.886184
10
2.925884
20
13.299135
10
2.785467
20
13.715451
10
2.615662
20
14.133701
10
2.417296
20
14.552553
10
2.190978
20
14.970732
10
1.455419
20
15.060045
10
1.135600
20
14.708179
10
0.842761
20
14.348970
10
0.577796
20
13.983511
10
0.341828
20
13.612896
10
0.136360
20
13.238230
10
-0.036401
20
12.860626
10
-0.172790
20
12.481226
10
-0.265089
20
12.101264
10
-0.284393
20
11.722462
10
-0.275219
20
11.344318
10
-0.266045
20
10.966174
10
-0.256871
20
10.588030
10
-2.284475
20
10.341835
10
-2.366063
20
10.711186
10
-2.447651
20
11.080537
10
-2.529240
20
11.449888
10
-2.638636
20
11.813063
10
-2.819183
20
12.159896
10
-3.042406
20
12.495631
10
-3.300514
20
12.820918
10
-3.589674
20
13.135526
10
-3.907480
20
13.438899
10
-4.252205
20
13.730329
10
-4.622499
20
14.009019
10
-5.017232
20
14.274123
10
-5.710042
20
14.011375
10
-5.829708
20
13.551186
10
-5.922071
20
13.097033
10
-5.986848
20
12.650299
10
-6.023555
20
12.212476
10
-6.031371
20
11.785240
10
-6.008862
20
11.370602
10
-5.953313
20
10.971277
10
-5.858462
20
10.591944
10
-5.699517
20
10.247561
10
-5.515662
20
9.916994
10
-5.331807
20
9.586428
10
-5.147951
20
9.255861
10
-6.828892
20
8.095592
10
-7.072781
20
8.384720
10
-7.316670
20
8.673848
10
-7.560559
20
8.962976
10
-7.826200
20
9.233712
10
-8.147248
20
9.456913
10
-8.500926
20
9.650455
10
-8.880637
20
9.818534
10
-9.282882
20
9.962726
10
-9.705269
20
10.083658
10
-10.145943
20
10.181505
10
-10.603336
20
10.256188
10
-11.076054
20
10.307484
10
-11.567402
20
9.752867
10
-11.459500
20
9.289779
10
-11.330228
20
8.844723
10
-11.179978
20
8.419056
10
-11.009014
20
8.014325
10
-10.817388
20
7.632394
10
-10.604766
20
7.275710
10
-10.370004
20
6.947941
10
-10.109732
20
6.656137
10
-9.808951
20
6.425067
10
-9.492533
20
6.217806
10
-9.176115
20
6.010546
10
-8.859698
20
5.803286
10
-9.808893
20
3.994746
10
-10.159210
20
4.137416
10
-10.509528
20
4.280085
10
-10.859845
20
4.422755
10
-11.220876
20
4.539030
10
-11.608877
20
4.587466
10
-12.011986
20
4.594476
10
-12.426314
20
4.566842
10
-12.849493
20
4.507585
10
-13.279699
20
4.418372
10
-13.715367
20
4.300220
10
-14.155076
20
4.153788
10
-14.597486
20
3.979525
10
-14.774809
20
3.260095
10
-14.464058
20
2.900195
10
-14.142766
20
2.566193
10
-13.811909
20
2.259109
10
-13.472440
20
1.980189
10
-13.125272
20
1.731058
10
-12.771245
20
1.514041
10
-12.411051
20
1.332915
10
-12.044985
20
1.195490
10
-11.671272
20
1.130667
10
-11.294779
20
1.094194
10
-10.918287
20
1.057721
10
-10.541794
20
1.021248
10
-10.541794
20
-1.021248
10
-10.918287
20
-1.057721
10
-11.294779
20
-1.094194
10
-11.671272
20
-1.130667
10
-12.044985
20
-1.195490
10
-12.411051
20
-1.332915
10
-12.771245
20
-1.514041
10
-13.125272
20
-1.731058
10
-13.472440
20
-1.980189
10
-13.811909
20
-2.259109
10
-14.142766
20
-2.566193
10
-14.464058
20
-2.900195
10
-14.774809
20
-3.260095
10
-14.597486
20
-3.979525
10
-14.155076
20
-4.153788
10
-13.715367
20
-4.300220
10
-13.279699
20
-4.418372
10
-12.849493
20
-4.507585
10
-12.426314
20
-4.566842
10
-12.011986
20
-4.594476
10
-11.608877
20
-4.587466
10
-11.220876
20
-4.539030
10
-10.859845
20
-4.422755
10
-10.509528
20
-4.280085
10
-10.159210
20
-4.137416
10
-9.808893
20
-3.994746
10
-8.859698
20
-5.803286
10
-9.176115
20
-6.010546
10
-9.492533
20
-6.217806
10
-9.808951
20
-6.425067
10
-10.109732
20
-6.656137
10
-10.370004
20
-6.947941
10
-10.604766
20
-7.275710
10
-10.817388
20
-7.632394
10
-11.009014
20
-8.014325
10
-11.179978
20
-8.419056
10
-11.330228
20
-8.844723
10
-11.459500
20
-9.289779
10
-11.567402
20
-9.752867
10
-11.076054
20
-10.307484
10
-10.603336
20
-10.256188
10
-10.145943
20
-10.181505
10
-9.705269
20
-10.083658
10
-9.282882
20
-9.962726
10
-8.880637
20
-9.818534
10
-8.500926
20
-9.650455
10
-8.147248
20
-9.456913
10
-7.826200
20
-9.233712
10
-7.560559
20
-8.962976
10
-7.316670
20
-8.673848
10
-7.072781
20
-8.384720
10
-6.828892
20
-8.095592
10
-5.147951
20
-9.255861
10
-5.331807
20
-9.586428
10
-5.515662
20
-9.916994
10
-5.699517
20
-10.247561
10
-5.858462
20
-10.591944
10
-5.953313
20
-10.971277
10
-6.008862
20
-11.370602
10
-6.031371
20
-11.785240
10
-6.023555
20
-12.212476
10
-5.986848
20
-12.650299
10
-5.922071
20
-13.097033
10
-5.829708
20
-13.551186
10
-5.710042
20
-14.011375
10
-5.017232
20
-14.274123
10
-4.622499
20
-14.009019
10
-4.252205
20
-13.730329
10
-3.907480
20
-13.438899
10
-3.589674
20
-13.135526
10
-3.300514
20
-12.820918
10
-3.042406
20
-12.495631
10
-2.819183
20
-12.159896
10
-2.638636
20
-11.813063
10
-2.529240
20
-11.449888
10
-2.447651
20
-11.080537
10
-2.366063
20
-10.711186
10
-2.284475
20
-10.341835
10
-0.256871
20
-10.588030
10
-0.266045
20
-10.966174
10
-0.275219
20
-11.344318
10
-0.284393
20
-11.722462
10
-0.265089
20
-12.101264
10
-0.172790
20
-12.481226
10
-0.036401
20
-12.860626
10
0.136360
20
-13.238230
10
0.341828
20
-13.612896
10
0.577796
20
-13.983511
10
0.842761
20
-14.348970
10
1.135600
20
-14.708179
10
1.455419
20
-15.060045
10
2.190978
20
-14.970732
10
2.417296
20
-14.552553
10
2.615662
20
-14.133701
10
2.785467
20
-13.715451
10
2.925884
20
-13.299135
10
3.035718
20
-12.886184
10
3.113093
20
-12.478208
10
3.154722
20
-12.077193
10
3.153408
20
-11.686183
10
3.081498
20
-11.313769
10
2.982095
20
-10.948809
10
2.882692
20
-10.583848
10
2.783288
20
-10.218888
10
4.693055
20
-9.494609
10
4.860664
20
-9.833702
10
5.028273
20
-10.172796
10
5.195882
20
-10.511889
10
5.389013
20
-10.838330
10
5.647317
20
-11.131876
10
5.944399
20
-11.404435
10
6.272853
20
-11.658501
10
6.628902
20
-11.894766
10
7.010075
20
-12.113268
10
7.414527
20
-12.313732
10
7.840756
20
-12.495706
10
8.287461
20
-12.658641
10
8.897260
20
-12.237727
10
8.903318
20
-11.762272
10
8.884312
20
-11.299212
10
8.840296
20
-10.849958
10
8.771158
20
-10.416073
10
8.676503
20
-9.999381
10
8.555419
20
-9.602178
10
8.405919
20
-9.227750
10
8.223044
20
-8.882139
10
7.986302
20
-8.585801
10
7.728679
20
-8.308840
10
7.471056
20
-8.031879
10
7.213434
20
-7.754917
10
8.567859
20
-6.226088
10
8.873854
20
-6.448448
10
9.179849
20
-6.670808
10
9.485844
20
-6.893168
10
9.808557
20
-7.092465
10
10.173691
20
-7.232348
10
10.563409
20
-7.335626
10
10.972311
20
-7.407950
10
11.397374
20
-7.451688
10
11.836429
20
-7.468022
10
12.287714
20
-7.457566
10
12.749689
20
-7.420617
10
13.220946
20
-7.357294
10
13.565288
20
-6.701206
10
13.349697
20
-6.277397
10
13.117673
20
-5.876210
10
12.869920
20
-5.498870
10
12.607065
20
-5.146814
10
12.329606
20
-4.821840
10
12.037802
20
-4.526405
10
11.731421
20
-4.264342
10
11.408880
20
-4.043305
10
11.061540
20
-3.890930
10
10.704716
20
-3.765416
10
10.347892
20
-3.639903
10
9.991068
20
-3.514389
0
ENDSEC
0
EOF
