0
SECTION
2
HEADER
9
$ACADVER
1
AC1015
0
ENDSEC
0
SECTION
2
ENTITIES
0
LWPOLYLINE
5
64
100
AcDbEntity
8
0
100
AcDbPolyline
90
322
70
1
10
239.622490
20
-87.212740
10
267.813372
20
-97.473063
10
268.236115
20
-96.303616
10
268.653753
20
-95.132336
10
269.066275
20
-93.959244
10
269.473676
20
-92.784364
10
269.875946
20
-91.607718
10
270.273078
20
-90.429327
10
270.665065
20
-89.249215
10
271.051900
20
-88.067404
10
271.433574
20
-86.883916
10
271.810081
20
-85.698775
10
272.181413
20
-84.512001
10
272.547564
20
-83.323619
10
272.908526
20
-82.133651
10
273.264292
20
-80.942119
10
273.614856
20
-79.749046
10
273.960212
20
-78.554455
10
274.300352
20
-77.358368
10
274.635269
20
-76.160809
10
274.964959
20
-74.961800
10
275.289414
20
-73.761363
10
275.608628
20
-72.559523
10
275.922595
20
-71.356301
10
276.231309
20
-70.151720
10
276.534765
20
-68.945805
10
276.832956
20
-67.738576
10
277.125876
20
-66.530058
10
277.413521
20
-65.320274
10
277.695885
20
-64.109245
10
277.972962
20
-62.896997
10
278.244748
20
-61.683551
10
278.511236
20
-60.468931
10
278.772422
20
-59.253159
10
279.028301
20
-58.036260
10
279.278868
20
-56.818255
10
279.524118
20
-55.599169
10
279.764046
20
-54.379025
10
279.998649
20
-53.157845
10
280.227921
20
-51.935654
10
280.451859
20
-50.712473
10
280.670457
20
-49.488327
10
280.883712
20
-48.263239
10
281.091620
20
-47.037232
10
281.294176
20
-45.810330
10
281.491378
20
-44.582556
10
281.683220
20
-43.353933
10
281.869700
20
-42.124484
10
282.050814
20
-40.894234
10
282.226558
20
-39.663205
10
282.396930
20
-38.431421
10
282.561925
20
-37.198905
10
282.721541
20
-35.965681
10
282.875775
20
-34.731773
10
283.024623
20
-33.497203
10
283.168084
20
-32.261996
10
283.306153
20
-31.026174
10
283.438830
20
-29.789762
10
283.566110
20
-28.552782
10
283.687992
20
-27.315259
10
283.804473
20
-26.077216
10
283.915551
20
-24.838677
10
284.021224
20
-23.599665
10
284.121490
20
-22.360203
10
284.216348
20
-21.120316
10
284.305794
20
-19.880026
10
284.389828
20
-18.639359
10
284.468448
20
-17.398336
10
284.541652
20
-16.156982
10
284.609440
20
-14.915321
10
284.671809
20
-13.673375
10
284.728759
20
-12.431169
10
284.780288
20
-11.188727
10
284.826396
20
-9.946072
10
284.867081
20
-8.703227
10
284.902343
20
-7.460217
10
284.932182
20
-6.217064
10
284.956596
20
-4.973793
10
284.975585
20
-3.730428
10
284.989149
20
-2.486991
10
284.997287
20
-1.243508
10
285.000000
20
0.000000
10
284.997287
20
1.243508
10
284.989149
20
2.486991
10
284.975585
20
3.730428
10
284.956596
20
4.973793
10
284.932182
20
6.217064
10
284.902343
20
7.460217
10
284.867081
20
8.703227
10
284.826396
20
9.946072
10
284.780288
20
11.188727
10
284.728759
20
12.431169
10
284.671809
20
13.673375
10
284.609440
20
14.915321
10
284.541652
20
16.156982
10
284.468448
20
17.398336
10
284.389828
20
18.639359
10
284.305794
20
19.880026
10
284.216348
20
21.120316
10
284.121490
20
22.360203
10
284.021224
20
23.599665
10
283.915551
20
24.838677
10
283.804473
20
26.077216
10
283.687992
20
27.315259
10
283.566110
20
28.552782
10
283.438830
20
29.789762
10
283.306153
20
31.026174
10
283.168084
20
32.261996
10
283.024623
20
33.497203
10
282.875775
20
34.731773
10
282.721541
20
35.965681
10
282.561925
20
37.198905
10
282.396930
20
38.431421
10
282.226558
20
39.663205
10
282.050814
20
40.894234
10
281.869700
20
42.124484
10
281.683220
20
43.353933
10
281.491378
20
44.582556
10
281.294176
20
45.810330
10
281.091620
20
47.037232
10
280.883712
20
48.263239
10
280.670457
20
49.488327
10
280.451859
20
50.712473
10
280.227921
20
51.935654
10
279.998649
20
53.157845
10
279.764046
20
54.379025
10
279.524118
20
55.599169
10
279.278868
20
56.818255
10
279.028301
20
58.036260
10
278.772422
20
59.253159
10
278.511236
20
60.468931
10
278.244748
20
61.683551
10
277.972962
20
62.896997
10
277.695885
20
64.109245
10
277.413521
20
65.320274
10
277.125876
20
66.530058
10
276.832956
20
67.738576
10
276.534765
20
68.945805
10
276.231309
20
70.151720
10
275.922595
20
71.356301
10
275.608628
20
72.559523
10
275.289414
20
73.761363
10
274.964959
20
74.961800
10
274.635269
20
76.160809
10
274.300352
20
77.358368
10
273.960212
20
78.554455
10
273.614856
20
79.749046
10
273.264292
20
80.942119
10
272.908526
20
82.133651
10
272.547564
20
83.323619
10
272.181413
20
84.512001
10
271.810081
20
85.698775
10
271.433574
20
86.883916
10
271.051900
20
88.067404
10
270.665065
20
89.249215
10
270.273078
20
90.429327
10
269.875946
20
91.607718
10
269.473676
20
92.784364
10
269.066275
20
93.959244
10
268.653753
20
95.132336
10
268.236115
20
96.303616
10
267.813372
20
97.473063
10
239.622490
20
87.212740
10
240.000735
20
86.166393
10
240.374410
20
85.118405
10
240.743509
20
84.068797
10
241.108025
20
83.017589
10
241.467951
20
81.964800
10
241.823281
20
80.910451
10
242.174006
20
79.854561
10
242.520121
20
78.797151
10
242.861619
20
77.738241
10
243.198493
20
76.677851
10
243.530738
20
75.616001
10
243.858346
20
74.552712
10
244.181312
20
73.488003
10
244.499630
20
72.421896
10
244.813293
20
71.354409
10
245.122295
20
70.285565
10
245.426630
20
69.215382
10
245.726294
20
68.143882
10
246.021279
20
67.071084
10
246.311581
20
65.997009
10
246.597193
20
64.921678
10
246.878111
20
63.845111
10
247.154329
20
62.767329
10
247.425842
20
61.688351
10
247.692644
20
60.608200
10
247.954732
20
59.526894
10
248.212098
20
58.444455
10
248.464739
20
57.360904
10
248.712650
20
56.276260
10
248.955827
20
55.190546
10
249.194264
20
54.103780
10
249.427956
20
53.015985
10
249.656901
20
51.927180
10
249.881092
20
50.837386
10
250.100526
20
49.746625
10
250.315199
20
48.654917
10
250.525107
20
47.562283
10
250.730245
20
46.468743
10
250.930610
20
45.374318
10
251.126198
20
44.279030
10
251.317006
20
43.182898
10
251.503028
20
42.085945
10
251.684263
20
40.988190
10
251.860706
20
39.889655
10
252.032355
20
38.790361
10
252.199205
20
37.690328
10
252.361255
20
36.589578
10
252.518499
20
35.488131
10
252.670937
20
34.386008
10
252.818564
20
33.283231
10
252.961379
20
32.179820
10
253.099377
20
31.075797
10
253.232558
20
29.971182
10
253.360917
20
28.865996
10
253.484453
20
27.760261
10
253.603163
20
26.653997
10
253.717046
20
25.547226
10
253.826098
20
24.439969
10
253.930318
20
23.332246
10
254.029704
20
22.224079
10
254.124253
20
21.115489
10
254.213965
20
20.006497
10
254.298837
20
18.897125
10
254.378868
20
17.787392
10
254.454057
20
16.677321
10
254.524401
20
15.566932
10
254.589899
20
14.456247
10
254.650551
20
13.345287
10
254.706355
20
12.234073
10
254.757310
20
11.122625
10
254.803416
20
10.010966
10
254.844670
20
8.899117
10
254.881072
20
7.787098
10
254.912623
20
6.674931
10
254.939320
20
5.562636
10
254.961164
20
4.450236
10
254.978155
20
3.337751
10
254.990291
20
2.225203
10
254.997573
20
1.112612
10
255.000000
20
0.000000
10
254.997573
20
-1.112612
10
254.990291
20
-2.225203
10
254.978155
20
-3.337751
10
254.961164
20
-4.450236
10
254.939320
20
-5.562636
10
254.912623
20
-6.674931
10
254.881072
20
-7.787098
10
254.844670
20
-8.899117
10
254.803416
20
-10.010966
10
254.757310
20
-11.122625
10
254.706355
20
-12.234073
10
254.650551
20
-13.345287
10
254.589899
20
-14.456247
10
254.524401
20
-15.566932
10
254.454057
20
-16.677321
10
254.378868
20
-17.787392
10
254.298837
20
-18.897125
10
254.213965
20
-20.006497
10
254.124253
20
-21.115489
10
254.029704
20
-22.224079
10
253.930318
20
-23.332246
10
253.826098
20
-24.439969
10
253.717046
20
-25.547226
10
253.603163
20
-26.653997
10
253.484453
20
-27.760261
10
253.360917
20
-28.865996
10
253.232558
20
-29.971182
10
253.099377
20
-31.075797
10
252.961379
20
-32.179820
10
252.818564
20
-33.283231
10
252.670937
20
-34.386008
10
252.518499
20
-35.488131
10
252.361255
20
-36.589578
10
252.199205
20
-37.690328
10
252.032355
20
-38.790361
10
251.860706
20
-39.889655
10
251.684263
20
-40.988190
10
251.503028
20
-42.085945
10
251.317006
20
-43.182898
10
251.126198
20
-44.279030
10
250.930610
20
-45.374318
10
250.730245
20
-46.468743
10
250.525107
20
-47.562283
10
250.315199
20
-48.654917
10
250.100526
20
-49.746625
10
249.881092
20
-50.837386
10
249.656901
20
-51.927180
10
249.427956
20
-53.015985
10
249.194264
20
-54.103780
10
248.955827
20
-55.190546
10
248.712650
20
-56.276260
10
248.464739
20
-57.360904
10
248.212098
20
-58.444455
10
247.954732
20
-59.526894
10
247.692644
20
-60.608200
10
247.425842
20
-61.688351
10
247.154329
20
-62.767329
10
246.878111
20
-63.845111
10
246.597193
20
-64.921678
10
246.311581
20
-65.997009
10
246.021279
20
-67.071084
10
245.726294
20
-68.143882
10
245.426630
20
-69.215382
10
245.122295
20
-70.285565
10
244.813293
20
-71.354409
10
244.499630
20
-72.421896
10
244.181312
20
-73.488003
10
243.858346
20
-74.552712
10
243.530738
20
-75.616001
10
243.198493
20
-76.677851
10
242.861619
20
-77.738241
10
242.520121
20
-78.797151
10
242.174006
20
-79.854561
10
241.823281
20
-80.910451
10
241.467951
20
-81.964800
10
241.108025
20
-83.017589
10
240.743509
20
-84.068797
10
240.374410
20
-85.118405
10
240.000735
20
-86.166393
0
ENDSEC
0
EOF
