0
SECTION
2
HEADER
9
$ACADVER
1
AC1015
0
ENDSEC
0
SECTION
2
ENTITIES
0
LWPOLYLINE
5
64
100
AcDbEntity
8
0
100
AcDbPolyline
90
322
70
1
10
239.621618
20
-87.215137
10
267.812397
20
-97.475741
10
268.235164
20
-96.306265
10
268.652825
20
-95.134955
10
269.065371
20
-93.961834
10
269.472794
20
-92.786924
10
269.875087
20
-91.610248
10
270.272242
20
-90.431827
10
270.664251
20
-89.251685
10
271.051107
20
-88.069843
10
271.432803
20
-86.886325
10
271.809331
20
-85.701153
10
272.180684
20
-84.514349
10
272.546855
20
-83.325936
10
272.907838
20
-82.135936
10
273.263624
20
-80.944373
10
273.614208
20
-79.751269
10
273.959583
20
-78.556646
10
274.299742
20
-77.360528
10
274.634679
20
-76.162937
10
274.964387
20
-74.963896
10
275.288860
20
-73.763428
10
275.608093
20
-72.561555
10
275.922078
20
-71.358301
10
276.230809
20
-70.153689
10
276.534282
20
-68.947740
10
276.832490
20
-67.740479
10
277.125427
20
-66.531929
10
277.413089
20
-65.322111
10
277.695468
20
-64.111050
10
277.972561
20
-62.898769
10
278.244362
20
-61.685290
10
278.510865
20
-60.470637
10
278.772066
20
-59.254832
10
279.027960
20
-58.037899
10
279.278541
20
-56.819861
10
279.523805
20
-55.600742
10
279.763747
20
-54.380564
10
279.998363
20
-53.159350
10
280.227649
20
-51.937125
10
280.451599
20
-50.713910
10
280.670210
20
-49.489731
10
280.883477
20
-48.264609
10
281.091396
20
-47.038568
10
281.293964
20
-45.811631
10
281.491177
20
-44.583823
10
281.683030
20
-43.355165
10
281.869521
20
-42.125682
10
282.050645
20
-40.895397
10
282.226400
20
-39.664334
10
282.396781
20
-38.432515
10
282.561785
20
-37.199965
10
282.721411
20
-35.966706
10
282.875653
20
-34.732763
10
283.024510
20
-33.498158
10
283.167979
20
-32.262916
10
283.306056
20
-31.027059
10
283.438740
20
-29.790612
10
283.566028
20
-28.553598
10
283.687917
20
-27.316039
10
283.804404
20
-26.077961
10
283.915489
20
-24.839387
10
284.021168
20
-23.600339
10
284.121440
20
-22.360842
10
284.216303
20
-21.120920
10
284.305754
20
-19.880595
10
284.389793
20
-18.639892
10
284.468418
20
-17.398834
10
284.541626
20
-16.157444
10
284.609417
20
-14.915748
10
284.671790
20
-13.673767
10
284.728743
20
-12.431525
10
284.780275
20
-11.189047
10
284.826386
20
-9.946357
10
284.867073
20
-8.703476
10
284.902338
20
-7.460430
10
284.932178
20
-6.217242
10
284.956593
20
-4.973936
10
284.975583
20
-3.730535
10
284.989148
20
-2.487063
10
284.997287
20
-1.243543
10
285.000000
20
0.000000
10
284.997287
20
1.243543
10
284.989148
20
2.487063
10
284.975583
20
3.730535
10
284.956593
20
4.973936
10
284.932178
20
6.217242
10
284.902338
20
7.460430
10
284.867073
20
8.703476
10
284.826386
20
9.946357
10
284.780275
20
11.189047
10
284.728743
20
12.431525
10
284.671790
20
13.673767
10
284.609417
20
14.915748
10
284.541626
20
16.157444
10
284.468418
20
17.398834
10
284.389793
20
18.639892
10
284.305754
20
19.880595
10
284.216303
20
21.120920
10
284.121440
20
22.360842
10
284.021168
20
23.600339
10
283.915489
20
24.839387
10
283.804404
20
26.077961
10
283.687917
20
27.316039
10
283.566028
20
28.553598
10
283.438740
20
29.790612
10
283.306056
20
31.027059
10
283.167979
20
32.262916
10
283.024510
20
33.498158
10
282.875653
20
34.732763
10
282.721411
20
35.966706
10
282.561785
20
37.199965
10
282.396781
20
38.432515
10
282.226400
20
39.664334
10
282.050645
20
40.895397
10
281.869521
20
42.125682
10
281.683030
20
43.355165
10
281.491177
20
44.583823
10
281.293964
20
45.811631
10
281.091396
20
47.038568
10
280.883477
20
48.264609
10
280.670210
20
49.489731
10
280.451599
20
50.713910
10
280.227649
20
51.937125
10
279.998363
20
53.159350
10
279.763747
20
54.380564
10
279.523805
20
55.600742
10
279.278541
20
56.819861
10
279.027960
20
58.037899
10
278.772066
20
59.254832
10
278.510865
20
60.470637
10
278.244362
20
61.685290
10
277.972561
20
62.898769
10
277.695468
20
64.111050
10
277.413089
20
65.322111
10
277.125427
20
66.531929
10
276.832490
20
67.740479
10
276.534282
20
68.947740
10
276.230809
20
70.153689
10
275.922078
20
71.358301
10
275.608093
20
72.561555
10
275.288860
20
73.763428
10
274.964387
20
74.963896
10
274.634679
20
76.162937
10
274.299742
20
77.360528
10
273.959583
20
78.556646
10
273.614208
20
79.751269
10
273.263624
20
80.944373
10
272.907838
20
82.135936
10
272.546855
20
83.325936
10
272.180684
20
84.514349
10
271.809331
20
85.701153
10
271.432803
20
86.886325
10
271.051107
20
88.069843
10
270.664251
20
89.251685
10
270.272242
20
90.431827
10
269.875087
20
91.610248
10
269.472794
20
92.786924
10
269.065371
20
93.961834
10
268.652825
20
95.134955
10
268.235164
20
96.306265
10
267.812397
20
97.475741
10
239.621618
20
87.215137
10
239.999884
20
86.168763
10
240.373580
20
85.120749
10
240.742700
20
84.071115
10
241.107237
20
83.019879
10
241.467183
20
81.967064
10
241.822532
20
80.912687
10
242.173277
20
79.856771
10
242.519412
20
78.799334
10
242.860929
20
77.740396
10
243.197822
20
76.679979
10
243.530086
20
75.618102
10
243.857713
20
74.554785
10
244.180697
20
73.490048
10
244.499032
20
72.423913
10
244.812713
20
71.356399
10
245.121732
20
70.287526
10
245.426085
20
69.217315
10
245.725766
20
68.145786
10
246.020768
20
67.072960
10
246.311086
20
65.998857
10
246.596714
20
64.923497
10
246.877648
20
63.846901
10
247.153882
20
62.769090
10
247.425410
20
61.690083
10
247.692228
20
60.609903
10
247.954330
20
59.528568
10
248.211711
20
58.446100
10
248.464367
20
57.362519
10
248.712292
20
56.277846
10
248.955482
20
55.192102
10
249.193932
20
54.105306
10
249.427638
20
53.017481
10
249.656595
20
51.928647
10
249.880800
20
50.838823
10
250.100247
20
49.748032
10
250.314932
20
48.656294
10
250.524851
20
47.563629
10
250.730001
20
46.470059
10
250.930378
20
45.375604
10
251.125977
20
44.280285
10
251.316795
20
43.184123
10
251.502828
20
42.087139
10
251.684073
20
40.989354
10
251.860527
20
39.890789
10
252.032185
20
38.791463
10
252.199045
20
37.691400
10
252.361104
20
36.590619
10
252.518358
20
35.489141
10
252.670804
20
34.386987
10
252.818440
20
33.284179
10
252.961262
20
32.180737
10
253.099269
20
31.076683
10
253.232457
20
29.972036
10
253.360823
20
28.866820
10
253.484366
20
27.761053
10
253.603083
20
26.654758
10
253.716972
20
25.547956
10
253.826031
20
24.440667
10
253.930257
20
23.332913
10
254.029648
20
22.224714
10
254.124203
20
21.116093
10
254.213920
20
20.007069
10
254.298797
20
18.897665
10
254.378833
20
17.787901
10
254.454025
20
16.677798
10
254.524374
20
15.567378
10
254.589876
20
14.456661
10
254.650531
20
13.345669
10
254.706339
20
12.234423
10
254.757297
20
11.122944
10
254.803404
20
10.011253
10
254.844661
20
8.899372
10
254.881066
20
7.787321
10
254.912618
20
6.675122
10
254.939317
20
5.562796
10
254.961162
20
4.450364
10
254.978154
20
3.337847
10
254.990290
20
2.225267
10
254.997573
20
1.112644
10
255.000000
20
0.000000
10
254.997573
20
-1.112644
10
254.990290
20
-2.225267
10
254.978154
20
-3.337847
10
254.961162
20
-4.450364
10
254.939317
20
-5.562796
10
254.912618
20
-6.675122
10
254.881066
20
-7.787321
10
254.844661
20
-8.899372
10
254.803404
20
-10.011253
10
254.757297
20
-11.122944
10
254.706339
20
-12.234423
10
254.650531
20
-13.345669
10
254.589876
20
-14.456661
10
254.524374
20
-15.567378
10
254.454025
20
-16.677798
10
254.378833
20
-17.787901
10
254.298797
20
-18.897665
10
254.213920
20
-20.007069
10
254.124203
20
-21.116093
10
254.029648
20
-22.224714
10
253.930257
20
-23.332913
10
253.826031
20
-24.440667
10
253.716972
20
-25.547956
10
253.603083
20
-26.654758
10
253.484366
20
-27.761053
10
253.360823
20
-28.866820
10
253.232457
20
-29.972036
10
253.099269
20
-31.076683
10
252.961262
20
-32.180737
10
252.818440
20
-33.284179
10
252.670804
20
-34.386987
10
252.518358
20
-35.489141
10
252.361104
20
-36.590619
10
252.199045
20
-37.691400
10
252.032185
20
-38.791463
10
251.860527
20
-39.890789
10
251.684073
20
-40.989354
10
251.502828
20
-42.087139
10
251.316795
20
-43.184123
10
251.125977
20
-44.280285
10
250.930378
20
-45.375604
10
250.730001
20
-46.470059
10
250.524851
20
-47.563629
10
250.314932
20
-48.656294
10
250.100247
20
-49.748032
10
249.880800
20
-50.838823
10
249.656595
20
-51.928647
10
249.427638
20
-53.017481
10
249.193932
20
-54.105306
10
248.955482
20
-55.192102
10
248.712292
20
-56.277846
10
248.464367
20
-57.362519
10
248.211711
20
-58.446100
10
247.954330
20
-59.528568
10
247.692228
20
-60.609903
10
247.425410
20
-61.690083
10
247.153882
20
-62.769090
10
246.877648
20
-63.846901
10
246.596714
20
-64.923497
10
246.311086
20
-65.998857
10
246.020768
20
-67.072960
10
245.725766
20
-68.145786
10
245.426085
20
-69.217315
10
245.121732
20
-70.287526
10
244.812713
20
-71.356399
10
244.499032
20
-72.423913
10
244.180697
20
-73.490048
10
243.857713
20
-74.554785
10
243.530086
20
-75.618102
10
243.197822
20
-76.679979
10
242.860929
20
-77.740396
10
242.519412
20
-78.799334
10
242.173277
20
-79.856771
10
241.822532
20
-80.912687
10
241.467183
20
-81.967064
10
241.107237
20
-83.019879
10
240.742700
20
-84.071115
10
240.373580
20
-85.120749
10
239.999884
20
-86.168763
0
ENDSEC
0
EOF
