0
SECTION
2
HEADER
9
$ACADVER
1
AC1015
0
ENDSEC
0
SECTION
2
ENTITIES
0
LWPOLYLINE
5
64
100
AcDbEntity
8
0
100
AcDbPolyline
90
326
70
1
10
252.307469
20
-91.832408
10
267.812397
20
-97.475741
10
268.235164
20
-96.306265
10
268.652825
20
-95.134955
10
269.065371
20
-93.961834
10
269.472794
20
-92.786924
10
269.875087
20
-91.610248
10
270.272242
20
-90.431827
10
270.664251
20
-89.251685
10
271.051107
20
-88.069843
10
271.432803
20
-86.886325
10
271.809331
20
-85.701153
10
272.180684
20
-84.514349
10
272.546855
20
-83.325936
10
272.907838
20
-82.135936
10
273.263624
20
-80.944373
10
273.614208
20
-79.751269
10
273.959583
20
-78.556646
10
274.299742
20
-77.360528
10
274.634679
20
-76.162937
10
274.964387
20
-74.963896
10
275.288860
20
-73.763428
10
275.608093
20
-72.561555
10
275.922078
20
-71.358301
10
276.230809
20
-70.153689
10
276.534282
20
-68.947740
10
276.832490
20
-67.740479
10
277.125427
20
-66.531929
10
277.413089
20
-65.322111
10
277.695468
20
-64.111050
10
277.972561
20
-62.898769
10
278.244362
20
-61.685290
10
278.510865
20
-60.470637
10
278.772066
20
-59.254832
10
279.027960
20
-58.037899
10
279.278541
20
-56.819861
10
279.523805
20
-55.600742
10
279.763747
20
-54.380564
10
279.998363
20
-53.159350
10
280.227649
20
-51.937125
10
280.451599
20
-50.713910
10
280.670210
20
-49.489731
10
280.883477
20
-48.264609
10
281.091396
20
-47.038568
10
281.293964
20
-45.811631
10
281.491177
20
-44.583823
10
281.683030
20
-43.355165
10
281.869521
20
-42.125682
10
282.050645
20
-40.895397
10
282.226400
20
-39.664334
10
282.396781
20
-38.432515
10
282.561785
20
-37.199965
10
282.721411
20
-35.966706
10
282.875653
20
-34.732763
10
283.024510
20
-33.498158
10
283.167979
20
-32.262916
10
283.306056
20
-31.027059
10
283.438740
20
-29.790612
10
283.566028
20
-28.553598
10
283.687917
20
-27.316039
10
283.804404
20
-26.077961
10
283.915489
20
-24.839387
10
284.021168
20
-23.600339
10
284.121440
20
-22.360842
10
284.216303
20
-21.120920
10
284.305754
20
-19.880595
10
284.389793
20
-18.639892
10
284.468418
20
-17.398834
10
284.541626
20
-16.157444
10
284.609417
20
-14.915748
10
284.671790
20
-13.673767
10
284.728743
20
-12.431525
10
284.780275
20
-11.189047
10
284.826386
20
-9.946357
10
284.867073
20
-8.703476
10
284.902338
20
-7.460430
10
284.932178
20
-6.217242
10
284.956593
20
-4.973936
10
284.975583
20
-3.730535
10
284.989148
20
-2.487063
10
284.997287
20
-1.243543
10
285.000000
20
0.000000
10
284.997287
20
1.243543
10
284.989148
20
2.487063
10
284.975583
20
3.730535
10
284.956593
20
4.973936
10
284.932178
20
6.217242
10
284.902338
20
7.460430
10
284.867073
20
8.703476
10
284.826386
20
9.946357
10
284.780275
20
11.189047
10
284.728743
20
12.431525
10
284.671790
20
13.673767
10
284.609417
20
14.915748
10
284.541626
20
16.157444
10
284.468418
20
17.398834
10
284.389793
20
18.639892
10
284.305754
20
19.880595
10
284.216303
20
21.120920
10
284.121440
20
22.360842
10
284.021168
20
23.600339
10
283.915489
20
24.839387
10
283.804404
20
26.077961
10
283.687917
20
27.316039
10
283.566028
20
28.553598
10
283.438740
20
29.790612
10
283.306056
20
31.027059
10
283.167979
20
32.262916
10
283.024510
20
33.498158
10
282.875653
20
34.732763
10
282.721411
20
35.966706
10
282.561785
20
37.199965
10
282.396781
20
38.432515
10
282.226400
20
39.664334
10
282.050645
20
40.895397
10
281.869521
20
42.125682
10
281.683030
20
43.355165
10
281.491177
20
44.583823
10
281.293964
20
45.811631
10
281.091396
20
47.038568
10
280.883477
20
48.264609
10
280.670210
20
49.489731
10
280.451599
20
50.713910
10
280.227649
20
51.937125
10
279.998363
20
53.159350
10
279.763747
20
54.380564
10
279.523805
20
55.600742
10
279.278541
20
56.819861
10
279.027960
20
58.037899
10
278.772066
20
59.254832
10
278.510865
20
60.470637
10
278.244362
20
61.685290
10
277.972561
20
62.898769
10
277.695468
20
64.111050
10
277.413089
20
65.322111
10
277.125427
20
66.531929
10
276.832490
20
67.740479
10
276.534282
20
68.947740
10
276.230809
20
70.153689
10
275.922078
20
71.358301
10
275.608093
20
72.561555
10
275.288860
20
73.763428
10
274.964387
20
74.963896
10
274.634679
20
76.162937
10
274.299742
20
77.360528
10
273.959583
20
78.556646
10
273.614208
20
79.751269
10
273.263624
20
80.944373
10
272.907838
20
82.135936
10
272.546855
20
83.325936
10
272.180684
20
84.514349
10
271.809331
20
85.701153
10
271.432803
20
86.886325
10
271.051107
20
88.069843
10
270.664251
20
89.251685
10
270.272242
20
90.431827
10
269.875087
20
91.610248
10
269.472794
20
92.786924
10
269.065371
20
93.961834
10
268.652825
20
95.134955
10
268.235164
20
96.306265
10
267.812397
20
97.475741
10
259.355163
20
94.397560
10
258.498387
20
102.599141
10
243.463305
20
97.126819
10
248.078852
20
90.293318
10
252.307469
20
91.832408
10
252.705760
20
90.730639
10
253.099240
20
89.627142
10
253.487902
20
88.521938
10
253.871738
20
87.415049
10
254.250740
20
86.306496
10
254.624901
20
85.196300
10
254.994215
20
84.084482
10
255.358675
20
82.971063
10
255.718272
20
81.856064
10
256.073001
20
80.739507
10
256.422855
20
79.621413
10
256.767827
20
78.501803
10
257.107910
20
77.380698
10
257.443099
20
76.258120
10
257.773386
20
75.134090
10
258.098765
20
74.008630
10
258.419231
20
72.881761
10
258.734777
20
71.753504
10
259.045396
20
70.623881
10
259.351084
20
69.492914
10
259.651835
20
68.360623
10
259.947641
20
67.227031
10
260.238499
20
66.092159
10
260.524403
20
64.956029
10
260.805346
20
63.818662
10
261.081324
20
62.680080
10
261.352331
20
61.540305
10
261.618362
20
60.399358
10
261.879413
20
59.257261
10
262.135478
20
58.114036
10
262.386552
20
56.969705
10
262.632631
20
55.824289
10
262.873709
20
54.677810
10
263.109783
20
53.530290
10
263.340848
20
52.381751
10
263.566899
20
51.232215
10
263.787932
20
50.081704
10
264.003943
20
48.930239
10
264.214927
20
47.777842
10
264.420882
20
46.624536
10
264.621802
20
45.470342
10
264.817684
20
44.315282
10
265.008524
20
43.159379
10
265.194319
20
42.002654
10
265.375066
20
40.845129
10
265.550759
20
39.686827
10
265.721397
20
38.527769
10
265.886976
20
37.367978
10
266.047493
20
36.207475
10
266.202945
20
35.046283
10
266.353329
20
33.884423
10
266.498642
20
32.721919
10
266.638881
20
31.558791
10
266.774043
20
30.395063
10
266.904127
20
29.230756
10
267.029129
20
28.065892
10
267.149047
20
26.900495
10
267.263879
20
25.734585
10
267.373623
20
24.568185
10
267.478276
20
23.401317
10
267.577837
20
22.234004
10
267.672304
20
21.066267
10
267.761675
20
19.898130
10
267.845947
20
18.729613
10
267.925121
20
17.560740
10
267.999193
20
16.391533
10
268.068164
20
15.222013
10
268.132030
20
14.052204
10
268.190792
20
12.882128
10
268.244447
20
11.711806
10
268.292996
20
10.541261
10
268.336437
20
9.370515
10
268.374769
20
8.199591
10
268.407992
20
7.028511
10
268.436104
20
5.857297
10
268.459106
20
4.685971
10
268.476997
20
3.514556
10
268.489776
20
2.343075
10
268.497444
20
1.171549
10
268.500000
20
0.000000
10
268.497444
20
-1.171549
10
268.489776
20
-2.343075
10
268.476997
20
-3.514556
10
268.459106
20
-4.685971
10
268.436104
20
-5.857297
10
268.407992
20
-7.028511
10
268.374769
20
-8.199591
10
268.336437
20
-9.370515
10
268.292996
20
-10.541261
10
268.244447
20
-11.711806
10
268.190792
20
-12.882128
10
268.132030
20
-14.052204
10
268.068164
20
-15.222013
10
267.999193
20
-16.391533
10
267.925121
20
-17.560740
10
267.845947
20
-18.729613
10
267.761675
20
-19.898130
10
267.672304
20
-21.066267
10
267.577837
20
-22.234004
10
267.478276
20
-23.401317
10
267.373623
20
-24.568185
10
267.263879
20
-25.734585
10
267.149047
20
-26.900495
10
267.029129
20
-28.065892
10
266.904127
20
-29.230756
10
266.774043
20
-30.395063
10
266.638881
20
-31.558791
10
266.498642
20
-32.721919
10
266.353329
20
-33.884423
10
266.202945
20
-35.046283
10
266.047493
20
-36.207475
10
265.886976
20
-37.367978
10
265.721397
20
-38.527769
10
265.550759
20
-39.686827
10
265.375066
20
-40.845129
10
265.194319
20
-42.002654
10
265.008524
20
-43.159379
10
264.817684
20
-44.315282
10
264.621802
20
-45.470342
10
264.420882
20
-46.624536
10
264.214927
20
-47.777842
10
264.003943
20
-48.930239
10
263.787932
20
-50.081704
10
263.566899
20
-51.232215
10
263.340848
20
-52.381751
10
263.109783
20
-53.530290
10
262.873709
20
-54.677810
10
262.632631
20
-55.824289
10
262.386552
20
-56.969705
10
262.135478
20
-58.114036
10
261.879413
20
-59.257261
10
261.618362
20
-60.399358
10
261.352331
20
-61.540305
10
261.081324
20
-62.680080
10
260.805346
20
-63.818662
10
260.524403
20
-64.956029
10
260.238499
20
-66.092159
10
259.947641
20
-67.227031
10
259.651835
20
-68.360623
10
259.351084
20
-69.492914
10
259.045396
20
-70.623881
10
258.734777
20
-71.753504
10
258.419231
20
-72.881761
10
258.098765
20
-74.008630
10
257.773386
20
-75.134090
10
257.443099
20
-76.258120
10
257.107910
20
-77.380698
10
256.767827
20
-78.501803
10
256.422855
20
-79.621413
10
256.073001
20
-80.739507
10
255.718272
20
-81.856064
10
255.358675
20
-82.971063
10
254.994215
20
-84.084482
10
254.624901
20
-85.196300
10
254.250740
20
-86.306496
10
253.871738
20
-87.415049
10
253.487902
20
-88.521938
10
253.099240
20
-89.627142
10
252.705760
20
-90.730639
0
ENDSEC
0
EOF
