0
SECTION
2
HEADER
9
$ACADVER
1
AC1015
0
ENDSEC
0
SECTION
2
ENTITIES
0
LWPOLYLINE
5
64
100
AcDbEntity
8
0
100
AcDbPolyline
90
326
70
1
10
231.164385
20
-84.136955
10
267.812397
20
-97.475741
10
268.235164
20
-96.306265
10
268.652825
20
-95.134955
10
269.065371
20
-93.961834
10
269.472794
20
-92.786924
10
269.875087
20
-91.610248
10
270.272242
20
-90.431827
10
270.664251
20
-89.251685
10
271.051107
20
-88.069843
10
271.432803
20
-86.886325
10
271.809331
20
-85.701153
10
272.180684
20
-84.514349
10
272.546855
20
-83.325936
10
272.907838
20
-82.135936
10
273.263624
20
-80.944373
10
273.614208
20
-79.751269
10
273.959583
20
-78.556646
10
274.299742
20
-77.360528
10
274.634679
20
-76.162937
10
274.964387
20
-74.963896
10
275.288860
20
-73.763428
10
275.608093
20
-72.561555
10
275.922078
20
-71.358301
10
276.230809
20
-70.153689
10
276.534282
20
-68.947740
10
276.832490
20
-67.740479
10
277.125427
20
-66.531929
10
277.413089
20
-65.322111
10
277.695468
20
-64.111050
10
277.972561
20
-62.898769
10
278.244362
20
-61.685290
10
278.510865
20
-60.470637
10
278.772066
20
-59.254832
10
279.027960
20
-58.037899
10
279.278541
20
-56.819861
10
279.523805
20
-55.600742
10
279.763747
20
-54.380564
10
279.998363
20
-53.159350
10
280.227649
20
-51.937125
10
280.451599
20
-50.713910
10
280.670210
20
-49.489731
10
280.883477
20
-48.264609
10
281.091396
20
-47.038568
10
281.293964
20
-45.811631
10
281.491177
20
-44.583823
10
281.683030
20
-43.355165
10
281.869521
20
-42.125682
10
282.050645
20
-40.895397
10
282.226400
20
-39.664334
10
282.396781
20
-38.432515
10
282.561785
20
-37.199965
10
282.721411
20
-35.966706
10
282.875653
20
-34.732763
10
283.024510
20
-33.498158
10
283.167979
20
-32.262916
10
283.306056
20
-31.027059
10
283.438740
20
-29.790612
10
283.566028
20
-28.553598
10
283.687917
20
-27.316039
10
283.804404
20
-26.077961
10
283.915489
20
-24.839387
10
284.021168
20
-23.600339
10
284.121440
20
-22.360842
10
284.216303
20
-21.120920
10
284.305754
20
-19.880595
10
284.389793
20
-18.639892
10
284.468418
20
-17.398834
10
284.541626
20
-16.157444
10
284.609417
20
-14.915748
10
284.671790
20
-13.673767
10
284.728743
20
-12.431525
10
284.780275
20
-11.189047
10
284.826386
20
-9.946357
10
284.867073
20
-8.703476
10
284.902338
20
-7.460430
10
284.932178
20
-6.217242
10
284.956593
20
-4.973936
10
284.975583
20
-3.730535
10
284.989148
20
-2.487063
10
284.997287
20
-1.243543
10
285.000000
20
0.000000
10
284.997287
20
1.243543
10
284.989148
20
2.487063
10
284.975583
20
3.730535
10
284.956593
20
4.973936
10
284.932178
20
6.217242
10
284.902338
20
7.460430
10
284.867073
20
8.703476
10
284.826386
20
9.946357
10
284.780275
20
11.189047
10
284.728743
20
12.431525
10
284.671790
20
13.673767
10
284.609417
20
14.915748
10
284.541626
20
16.157444
10
284.468418
20
17.398834
10
284.389793
20
18.639892
10
284.305754
20
19.880595
10
284.216303
20
21.120920
10
284.121440
20
22.360842
10
284.021168
20
23.600339
10
283.915489
20
24.839387
10
283.804404
20
26.077961
10
283.687917
20
27.316039
10
283.566028
20
28.553598
10
283.438740
20
29.790612
10
283.306056
20
31.027059
10
283.167979
20
32.262916
10
283.024510
20
33.498158
10
282.875653
20
34.732763
10
282.721411
20
35.966706
10
282.561785
20
37.199965
10
282.396781
20
38.432515
10
282.226400
20
39.664334
10
282.050645
20
40.895397
10
281.869521
20
42.125682
10
281.683030
20
43.355165
10
281.491177
20
44.583823
10
281.293964
20
45.811631
10
281.091396
20
47.038568
10
280.883477
20
48.264609
10
280.670210
20
49.489731
10
280.451599
20
50.713910
10
280.227649
20
51.937125
10
279.998363
20
53.159350
10
279.763747
20
54.380564
10
279.523805
20
55.600742
10
279.278541
20
56.819861
10
279.027960
20
58.037899
10
278.772066
20
59.254832
10
278.510865
20
60.470637
10
278.244362
20
61.685290
10
277.972561
20
62.898769
10
277.695468
20
64.111050
10
277.413089
20
65.322111
10
277.125427
20
66.531929
10
276.832490
20
67.740479
10
276.534282
20
68.947740
10
276.230809
20
70.153689
10
275.922078
20
71.358301
10
275.608093
20
72.561555
10
275.288860
20
73.763428
10
274.964387
20
74.963896
10
274.634679
20
76.162937
10
274.299742
20
77.360528
10
273.959583
20
78.556646
10
273.614208
20
79.751269
10
273.263624
20
80.944373
10
272.907838
20
82.135936
10
272.546855
20
83.325936
10
272.180684
20
84.514349
10
271.809331
20
85.701153
10
271.432803
20
86.886325
10
271.051107
20
88.069843
10
270.664251
20
89.251685
10
270.272242
20
90.431827
10
269.875087
20
91.610248
10
269.472794
20
92.786924
10
269.065371
20
93.961834
10
268.652825
20
95.134955
10
268.235164
20
96.306265
10
267.812397
20
97.475741
10
259.355163
20
94.397560
10
258.498387
20
102.599141
10
243.463305
20
97.126819
10
248.078852
20
90.293318
10
231.164385
20
84.136955
10
231.529300
20
83.127513
10
231.889807
20
82.116487
10
232.245899
20
81.103899
10
232.597570
20
80.089766
10
232.944812
20
79.074108
10
233.287619
20
78.056945
10
233.625985
20
77.038296
10
233.959903
20
76.018181
10
234.289367
20
74.996618
10
234.614370
20
73.973627
10
234.934906
20
72.949227
10
235.250970
20
71.923439
10
235.562555
20
70.896282
10
235.869655
20
69.867775
10
236.172264
20
68.837937
10
236.470377
20
67.806790
10
236.763988
20
66.774351
10
237.053091
20
65.740641
10
237.337682
20
64.705679
10
237.617753
20
63.669485
10
237.893301
20
62.632079
10
238.164320
20
61.593481
10
238.430804
20
60.553710
10
238.692749
20
59.512786
10
238.950149
20
58.470730
10
239.203000
20
57.427560
10
239.451298
20
56.383296
10
239.695036
20
55.337959
10
239.934211
20
54.291569
10
240.168818
20
53.244145
10
240.398852
20
52.195707
10
240.624310
20
51.146276
10
240.845186
20
50.095871
10
241.061477
20
49.044512
10
241.273179
20
47.992219
10
241.480287
20
46.939013
10
241.682798
20
45.884913
10
241.880707
20
44.829939
10
242.074012
20
43.774112
10
242.262707
20
42.717452
10
242.446791
20
41.659978
10
242.626258
20
40.601711
10
242.801106
20
39.542671
10
242.971332
20
38.482878
10
243.136932
20
37.422353
10
243.297902
20
36.361115
10
243.454241
20
35.299185
10
243.605945
20
34.236583
10
243.753011
20
33.173329
10
243.895436
20
32.109443
10
244.033218
20
31.044946
10
244.166353
20
29.979858
10
244.294840
20
28.914200
10
244.418676
20
27.847991
10
244.537859
20
26.781251
10
244.652386
20
25.714002
10
244.762255
20
24.646263
10
244.867465
20
23.578055
10
244.968012
20
22.509398
10
245.063896
20
21.440313
10
245.155114
20
20.370819
10
245.241664
20
19.300938
10
245.323546
20
18.230689
10
245.400756
20
17.160093
10
245.473295
20
16.089170
10
245.541160
20
15.017941
10
245.604351
20
13.946426
10
245.662866
20
12.874645
10
245.716703
20
11.802620
10
245.765863
20
10.730369
10
245.810343
20
9.657915
10
245.850143
20
8.585276
10
245.885263
20
7.512474
10
245.915702
20
6.439529
10
245.941459
20
5.366462
10
245.962533
20
4.293292
10
245.978925
20
3.220041
10
245.990633
20
2.146728
10
245.997658
20
1.073374
10
246.000000
20
0.000000
10
245.997658
20
-1.073374
10
245.990633
20
-2.146728
10
245.978925
20
-3.220041
10
245.962533
20
-4.293292
10
245.941459
20
-5.366462
10
245.915702
20
-6.439529
10
245.885263
20
-7.512474
10
245.850143
20
-8.585276
10
245.810343
20
-9.657915
10
245.765863
20
-10.730369
10
245.716703
20
-11.802620
10
245.662866
20
-12.874645
10
245.604351
20
-13.946426
10
245.541160
20
-15.017941
10
245.473295
20
-16.089170
10
245.400756
20
-17.160093
10
245.323546
20
-18.230689
10
245.241664
20
-19.300938
10
245.155114
20
-20.370819
10
245.063896
20
-21.440313
10
244.968012
20
-22.509398
10
244.867465
20
-23.578055
10
244.762255
20
-24.646263
10
244.652386
20
-25.714002
10
244.537859
20
-26.781251
10
244.418676
20
-27.847991
10
244.294840
20
-28.914200
10
244.166353
20
-29.979858
10
244.033218
20
-31.044946
10
243.895436
20
-32.109443
10
243.753011
20
-33.173329
10
243.605945
20
-34.236583
10
243.454241
20
-35.299185
10
243.297902
20
-36.361115
10
243.136932
20
-37.422353
10
242.971332
20
-38.482878
10
242.801106
20
-39.542671
10
242.626258
20
-40.601711
10
242.446791
20
-41.659978
10
242.262707
20
-42.717452
10
242.074012
20
-43.774112
10
241.880707
20
-44.829939
10
241.682798
20
-45.884913
10
241.480287
20
-46.939013
10
241.273179
20
-47.992219
10
241.061477
20
-49.044512
10
240.845186
20
-50.095871
10
240.624310
20
-51.146276
10
240.398852
20
-52.195707
10
240.168818
20
-53.244145
10
239.934211
20
-54.291569
10
239.695036
20
-55.337959
10
239.451298
20
-56.383296
10
239.203000
20
-57.427560
10
238.950149
20
-58.470730
10
238.692749
20
-59.512786
10
238.430804
20
-60.553710
10
238.164320
20
-61.593481
10
237.893301
20
-62.632079
10
237.617753
20
-63.669485
10
237.337682
20
-64.705679
10
237.053091
20
-65.740641
10
236.763988
20
-66.774351
10
236.470377
20
-67.806790
10
236.172264
20
-68.837937
10
235.869655
20
-69.867775
10
235.562555
20
-70.896282
10
235.250970
20
-71.923439
10
234.934906
20
-72.949227
10
234.614370
20
-73.973627
10
234.289367
20
-74.996618
10
233.959903
20
-76.018181
10
233.625985
20
-77.038296
10
233.287619
20
-78.056945
10
232.944812
20
-79.074108
10
232.597570
20
-80.089766
10
232.245899
20
-81.103899
10
231.889807
20
-82.116487
10
231.529300
20
-83.127513
0
ENDSEC
0
EOF
