0
SECTION
2
HEADER
9
$ACADVER
1
AC1015
0
ENDSEC
0
SECTION
2
ENTITIES
0
LWPOLYLINE
5
64
100
AcDbEntity
8
0
100
AcDbPolyline
90
326
70
1
10
250.428083
20
-91.148368
10
267.812397
20
-97.475741
10
268.235164
20
-96.306265
10
268.652825
20
-95.134955
10
269.065371
20
-93.961834
10
269.472794
20
-92.786924
10
269.875087
20
-91.610248
10
270.272242
20
-90.431827
10
270.664251
20
-89.251685
10
271.051107
20
-88.069843
10
271.432803
20
-86.886325
10
271.809331
20
-85.701153
10
272.180684
20
-84.514349
10
272.546855
20
-83.325936
10
272.907838
20
-82.135936
10
273.263624
20
-80.944373
10
273.614208
20
-79.751269
10
273.959583
20
-78.556646
10
274.299742
20
-77.360528
10
274.634679
20
-76.162937
10
274.964387
20
-74.963896
10
275.288860
20
-73.763428
10
275.608093
20
-72.561555
10
275.922078
20
-71.358301
10
276.230809
20
-70.153689
10
276.534282
20
-68.947740
10
276.832490
20
-67.740479
10
277.125427
20
-66.531929
10
277.413089
20
-65.322111
10
277.695468
20
-64.111050
10
277.972561
20
-62.898769
10
278.244362
20
-61.685290
10
278.510865
20
-60.470637
10
278.772066
20
-59.254832
10
279.027960
20
-58.037899
10
279.278541
20
-56.819861
10
279.523805
20
-55.600742
10
279.763747
20
-54.380564
10
279.998363
20
-53.159350
10
280.227649
20
-51.937125
10
280.451599
20
-50.713910
10
280.670210
20
-49.489731
10
280.883477
20
-48.264609
10
281.091396
20
-47.038568
10
281.293964
20
-45.811631
10
281.491177
20
-44.583823
10
281.683030
20
-43.355165
10
281.869521
20
-42.125682
10
282.050645
20
-40.895397
10
282.226400
20
-39.664334
10
282.396781
20
-38.432515
10
282.561785
20
-37.199965
10
282.721411
20
-35.966706
10
282.875653
20
-34.732763
10
283.024510
20
-33.498158
10
283.167979
20
-32.262916
10
283.306056
20
-31.027059
10
283.438740
20
-29.790612
10
283.566028
20
-28.553598
10
283.687917
20
-27.316039
10
283.804404
20
-26.077961
10
283.915489
20
-24.839387
10
284.021168
20
-23.600339
10
284.121440
20
-22.360842
10
284.216303
20
-21.120920
10
284.305754
20
-19.880595
10
284.389793
20
-18.639892
10
284.468418
20
-17.398834
10
284.541626
20
-16.157444
10
284.609417
20
-14.915748
10
284.671790
20
-13.673767
10
284.728743
20
-12.431525
10
284.780275
20
-11.189047
10
284.826386
20
-9.946357
10
284.867073
20
-8.703476
10
284.902338
20
-7.460430
10
284.932178
20
-6.217242
10
284.956593
20
-4.973936
10
284.975583
20
-3.730535
10
284.989148
20
-2.487063
10
284.997287
20
-1.243543
10
285.000000
20
0.000000
10
284.997287
20
1.243543
10
284.989148
20
2.487063
10
284.975583
20
3.730535
10
284.956593
20
4.973936
10
284.932178
20
6.217242
10
284.902338
20
7.460430
10
284.867073
20
8.703476
10
284.826386
20
9.946357
10
284.780275
20
11.189047
10
284.728743
20
12.431525
10
284.671790
20
13.673767
10
284.609417
20
14.915748
10
284.541626
20
16.157444
10
284.468418
20
17.398834
10
284.389793
20
18.639892
10
284.305754
20
19.880595
10
284.216303
20
21.120920
10
284.121440
20
22.360842
10
284.021168
20
23.600339
10
283.915489
20
24.839387
10
283.804404
20
26.077961
10
283.687917
20
27.316039
10
283.566028
20
28.553598
10
283.438740
20
29.790612
10
283.306056
20
31.027059
10
283.167979
20
32.262916
10
283.024510
20
33.498158
10
282.875653
20
34.732763
10
282.721411
20
35.966706
10
282.561785
20
37.199965
10
282.396781
20
38.432515
10
282.226400
20
39.664334
10
282.050645
20
40.895397
10
281.869521
20
42.125682
10
281.683030
20
43.355165
10
281.491177
20
44.583823
10
281.293964
20
45.811631
10
281.091396
20
47.038568
10
280.883477
20
48.264609
10
280.670210
20
49.489731
10
280.451599
20
50.713910
10
280.227649
20
51.937125
10
279.998363
20
53.159350
10
279.763747
20
54.380564
10
279.523805
20
55.600742
10
279.278541
20
56.819861
10
279.027960
20
58.037899
10
278.772066
20
59.254832
10
278.510865
20
60.470637
10
278.244362
20
61.685290
10
277.972561
20
62.898769
10
277.695468
20
64.111050
10
277.413089
20
65.322111
10
277.125427
20
66.531929
10
276.832490
20
67.740479
10
276.534282
20
68.947740
10
276.230809
20
70.153689
10
275.922078
20
71.358301
10
275.608093
20
72.561555
10
275.288860
20
73.763428
10
274.964387
20
74.963896
10
274.634679
20
76.162937
10
274.299742
20
77.360528
10
273.959583
20
78.556646
10
273.614208
20
79.751269
10
273.263624
20
80.944373
10
272.907838
20
82.135936
10
272.546855
20
83.325936
10
272.180684
20
84.514349
10
271.809331
20
85.701153
10
271.432803
20
86.886325
10
271.051107
20
88.069843
10
270.664251
20
89.251685
10
270.272242
20
90.431827
10
269.875087
20
91.610248
10
269.472794
20
92.786924
10
269.065371
20
93.961834
10
268.652825
20
95.134955
10
268.235164
20
96.306265
10
267.812397
20
97.475741
10
259.355163
20
94.397560
10
258.498387
20
102.599141
10
243.463305
20
97.126819
10
248.078852
20
90.293318
10
250.428083
20
91.148368
10
250.823408
20
90.054805
10
251.213957
20
88.959528
10
251.599724
20
87.862557
10
251.980700
20
86.763913
10
252.356880
20
85.663618
10
252.728254
20
84.561691
10
253.094817
20
83.458154
10
253.456562
20
82.353029
10
253.813481
20
81.246336
10
254.165567
20
80.138096
10
254.512815
20
79.028330
10
254.855217
20
77.917059
10
255.192768
20
76.804305
10
255.525459
20
75.690089
10
255.853286
20
74.574432
10
256.176242
20
73.457355
10
256.494321
20
72.338880
10
256.807516
20
71.219027
10
257.115822
20
70.097819
10
257.419233
20
68.975276
10
257.717743
20
67.851419
10
258.011346
20
66.726271
10
258.300037
20
65.599853
10
258.583811
20
64.472185
10
258.862662
20
63.343290
10
259.136584
20
62.213189
10
259.405572
20
61.081904
10
259.669622
20
59.949456
10
259.928728
20
58.815866
10
260.182886
20
57.681157
10
260.432090
20
56.545350
10
260.676336
20
55.408466
10
260.915618
20
54.270527
10
261.149934
20
53.131555
10
261.379277
20
51.991571
10
261.603644
20
50.850597
10
261.823031
20
49.708656
10
262.037433
20
48.565768
10
262.246846
20
47.421955
10
262.451266
20
46.277239
10
262.650690
20
45.131643
10
262.845113
20
43.985187
10
263.034532
20
42.837894
10
263.218943
20
41.689785
10
263.398343
20
40.540882
10
263.572728
20
39.391208
10
263.742095
20
38.240784
10
263.906440
20
37.089631
10
264.065762
20
35.937773
10
264.220056
20
34.785230
10
264.369319
20
33.632025
10
264.513549
20
32.478180
10
264.652744
20
31.323716
10
264.786900
20
30.168656
10
264.916014
20
29.013022
10
265.040085
20
27.856835
10
265.159110
20
26.700118
10
265.273087
20
25.542893
10
265.382013
20
24.385181
10
265.485887
20
23.227005
10
265.584706
20
22.068387
10
265.678469
20
20.909349
10
265.767174
20
19.749913
10
265.850819
20
18.590100
10
265.929403
20
17.429934
10
266.002924
20
16.269436
10
266.071380
20
15.108628
10
266.134771
20
13.947532
10
266.193095
20
12.786171
10
266.246351
20
11.624567
10
266.294538
20
10.462741
10
266.337655
20
9.300716
10
266.375702
20
8.138514
10
266.408677
20
6.976157
10
266.436580
20
5.813667
10
266.459411
20
4.651066
10
266.477168
20
3.488377
10
266.489852
20
2.325622
10
266.497463
20
1.162822
10
266.500000
20
0.000000
10
266.497463
20
-1.162822
10
266.489852
20
-2.325622
10
266.477168
20
-3.488377
10
266.459411
20
-4.651066
10
266.436580
20
-5.813667
10
266.408677
20
-6.976157
10
266.375702
20
-8.138514
10
266.337655
20
-9.300716
10
266.294538
20
-10.462741
10
266.246351
20
-11.624567
10
266.193095
20
-12.786171
10
266.134771
20
-13.947532
10
266.071380
20
-15.108628
10
266.002924
20
-16.269436
10
265.929403
20
-17.429934
10
265.850819
20
-18.590100
10
265.767174
20
-19.749913
10
265.678469
20
-20.909349
10
265.584706
20
-22.068387
10
265.485887
20
-23.227005
10
265.382013
20
-24.385181
10
265.273087
20
-25.542893
10
265.159110
20
-26.700118
10
265.040085
20
-27.856835
10
264.916014
20
-29.013022
10
264.786900
20
-30.168656
10
264.652744
20
-31.323716
10
264.513549
20
-32.478180
10
264.369319
20
-33.632025
10
264.220056
20
-34.785230
10
264.065762
20
-35.937773
10
263.906440
20
-37.089631
10
263.742095
20
-38.240784
10
263.572728
20
-39.391208
10
263.398343
20
-40.540882
10
263.218943
20
-41.689785
10
263.034532
20
-42.837894
10
262.845113
20
-43.985187
10
262.650690
20
-45.131643
10
262.451266
20
-46.277239
10
262.246846
20
-47.421955
10
262.037433
20
-48.565768
10
261.823031
20
-49.708656
10
261.603644
20
-50.850597
10
261.379277
20
-51.991571
10
261.149934
20
-53.131555
10
260.915618
20
-54.270527
10
260.676336
20
-55.408466
10
260.432090
20
-56.545350
10
260.182886
20
-57.681157
10
259.928728
20
-58.815866
10
259.669622
20
-59.949456
10
259.405572
20
-61.081904
10
259.136584
20
-62.213189
10
258.862662
20
-63.343290
10
258.583811
20
-64.472185
10
258.300037
20
-65.599853
10
258.011346
20
-66.726271
10
257.717743
20
-67.851419
10
257.419233
20
-68.975276
10
257.115822
20
-70.097819
10
256.807516
20
-71.219027
10
256.494321
20
-72.338880
10
256.176242
20
-73.457355
10
255.853286
20
-74.574432
10
255.525459
20
-75.690089
10
255.192768
20
-76.804305
10
254.855217
20
-77.917059
10
254.512815
20
-79.028330
10
254.165567
20
-80.138096
10
253.813481
20
-81.246336
10
253.456562
20
-82.353029
10
253.094817
20
-83.458154
10
252.728254
20
-84.561691
10
252.356880
20
-85.663618
10
251.980700
20
-86.763913
10
251.599724
20
-87.862557
10
251.213957
20
-88.959528
10
250.823408
20
-90.054805
0
ENDSEC
0
EOF
