0
SECTION
2
HEADER
9
$ACADVER
1
AC1015
0
ENDSEC
0
SECTION
2
ENTITIES
0
LWPOLYLINE
5
64
100
AcDbEntity
8
0
100
AcDbPolyline
90
326
70
1
10
248.078852
20
-90.293318
10
267.812397
20
-97.475741
10
268.235164
20
-96.306265
10
268.652825
20
-95.134955
10
269.065371
20
-93.961834
10
269.472794
20
-92.786924
10
269.875087
20
-91.610248
10
270.272242
20
-90.431827
10
270.664251
20
-89.251685
10
271.051107
20
-88.069843
10
271.432803
20
-86.886325
10
271.809331
20
-85.701153
10
272.180684
20
-84.514349
10
272.546855
20
-83.325936
10
272.907838
20
-82.135936
10
273.263624
20
-80.944373
10
273.614208
20
-79.751269
10
273.959583
20
-78.556646
10
274.299742
20
-77.360528
10
274.634679
20
-76.162937
10
274.964387
20
-74.963896
10
275.288860
20
-73.763428
10
275.608093
20
-72.561555
10
275.922078
20
-71.358301
10
276.230809
20
-70.153689
10
276.534282
20
-68.947740
10
276.832490
20
-67.740479
10
277.125427
20
-66.531929
10
277.413089
20
-65.322111
10
277.695468
20
-64.111050
10
277.972561
20
-62.898769
10
278.244362
20
-61.685290
10
278.510865
20
-60.470637
10
278.772066
20
-59.254832
10
279.027960
20
-58.037899
10
279.278541
20
-56.819861
10
279.523805
20
-55.600742
10
279.763747
20
-54.380564
10
279.998363
20
-53.159350
10
280.227649
20
-51.937125
10
280.451599
20
-50.713910
10
280.670210
20
-49.489731
10
280.883477
20
-48.264609
10
281.091396
20
-47.038568
10
281.293964
20
-45.811631
10
281.491177
20
-44.583823
10
281.683030
20
-43.355165
10
281.869521
20
-42.125682
10
282.050645
20
-40.895397
10
282.226400
20
-39.664334
10
282.396781
20
-38.432515
10
282.561785
20
-37.199965
10
282.721411
20
-35.966706
10
282.875653
20
-34.732763
10
283.024510
20
-33.498158
10
283.167979
20
-32.262916
10
283.306056
20
-31.027059
10
283.438740
20
-29.790612
10
283.566028
20
-28.553598
10
283.687917
20
-27.316039
10
283.804404
20
-26.077961
10
283.915489
20
-24.839387
10
284.021168
20
-23.600339
10
284.121440
20
-22.360842
10
284.216303
20
-21.120920
10
284.305754
20
-19.880595
10
284.389793
20
-18.639892
10
284.468418
20
-17.398834
10
284.541626
20
-16.157444
10
284.609417
20
-14.915748
10
284.671790
20
-13.673767
10
284.728743
20
-12.431525
10
284.780275
20
-11.189047
10
284.826386
20
-9.946357
10
284.867073
20
-8.703476
10
284.902338
20
-7.460430
10
284.932178
20
-6.217242
10
284.956593
20
-4.973936
10
284.975583
20
-3.730535
10
284.989148
20
-2.487063
10
284.997287
20
-1.243543
10
285.000000
20
0.000000
10
284.997287
20
1.243543
10
284.989148
20
2.487063
10
284.975583
20
3.730535
10
284.956593
20
4.973936
10
284.932178
20
6.217242
10
284.902338
20
7.460430
10
284.867073
20
8.703476
10
284.826386
20
9.946357
10
284.780275
20
11.189047
10
284.728743
20
12.431525
10
284.671790
20
13.673767
10
284.609417
20
14.915748
10
284.541626
20
16.157444
10
284.468418
20
17.398834
10
284.389793
20
18.639892
10
284.305754
20
19.880595
10
284.216303
20
21.120920
10
284.121440
20
22.360842
10
284.021168
20
23.600339
10
283.915489
20
24.839387
10
283.804404
20
26.077961
10
283.687917
20
27.316039
10
283.566028
20
28.553598
10
283.438740
20
29.790612
10
283.306056
20
31.027059
10
283.167979
20
32.262916
10
283.024510
20
33.498158
10
282.875653
20
34.732763
10
282.721411
20
35.966706
10
282.561785
20
37.199965
10
282.396781
20
38.432515
10
282.226400
20
39.664334
10
282.050645
20
40.895397
10
281.869521
20
42.125682
10
281.683030
20
43.355165
10
281.491177
20
44.583823
10
281.293964
20
45.811631
10
281.091396
20
47.038568
10
280.883477
20
48.264609
10
280.670210
20
49.489731
10
280.451599
20
50.713910
10
280.227649
20
51.937125
10
279.998363
20
53.159350
10
279.763747
20
54.380564
10
279.523805
20
55.600742
10
279.278541
20
56.819861
10
279.027960
20
58.037899
10
278.772066
20
59.254832
10
278.510865
20
60.470637
10
278.244362
20
61.685290
10
277.972561
20
62.898769
10
277.695468
20
64.111050
10
277.413089
20
65.322111
10
277.125427
20
66.531929
10
276.832490
20
67.740479
10
276.534282
20
68.947740
10
276.230809
20
70.153689
10
275.922078
20
71.358301
10
275.608093
20
72.561555
10
275.288860
20
73.763428
10
274.964387
20
74.963896
10
274.634679
20
76.162937
10
274.299742
20
77.360528
10
273.959583
20
78.556646
10
273.614208
20
79.751269
10
273.263624
20
80.944373
10
272.907838
20
82.135936
10
272.546855
20
83.325936
10
272.180684
20
84.514349
10
271.809331
20
85.701153
10
271.432803
20
86.886325
10
271.051107
20
88.069843
10
270.664251
20
89.251685
10
270.272242
20
90.431827
10
269.875087
20
91.610248
10
269.472794
20
92.786924
10
269.065371
20
93.961834
10
268.652825
20
95.134955
10
268.235164
20
96.306265
10
267.812397
20
97.475741
10
259.355163
20
94.397560
10
258.498387
20
102.599141
10
243.463305
20
97.126819
10
248.078852
20
90.293318
10
248.078852
20
90.293318
10
248.470468
20
89.210014
10
248.857354
20
88.125011
10
249.239501
20
87.038330
10
249.616904
20
85.949993
10
249.989554
20
84.860019
10
250.357445
20
83.768429
10
250.720569
20
82.675245
10
251.078920
20
81.580487
10
251.432491
20
80.484175
10
251.781275
20
79.386331
10
252.125265
20
78.286976
10
252.464456
20
77.186130
10
252.798839
20
76.083815
10
253.128410
20
74.980051
10
253.453162
20
73.874860
10
253.773088
20
72.768262
10
254.088182
20
71.660279
10
254.398440
20
70.550931
10
254.703853
20
69.440241
10
255.004418
20
68.328228
10
255.300128
20
67.214914
10
255.590977
20
66.100321
10
255.876960
20
64.984469
10
256.158072
20
63.867380
10
256.434306
20
62.749076
10
256.705659
20
61.629576
10
256.972124
20
60.508903
10
257.233697
20
59.387078
10
257.490373
20
58.264123
10
257.742146
20
57.140058
10
257.989012
20
56.014905
10
258.230967
20
54.888686
10
258.468005
20
53.761422
10
258.700122
20
52.633135
10
258.927314
20
51.503845
10
259.149576
20
50.373575
10
259.366905
20
49.242346
10
259.579296
20
48.110179
10
259.786744
20
46.977096
10
259.989247
20
45.843119
10
260.186800
20
44.708269
10
260.379399
20
43.572568
10
260.567041
20
42.436037
10
260.749722
20
41.298699
10
260.927439
20
40.160574
10
261.100188
20
39.021685
10
261.267966
20
37.882052
10
261.430770
20
36.741699
10
261.588597
20
35.600646
10
261.741443
20
34.458915
10
261.889307
20
33.316528
10
262.032184
20
32.173507
10
262.170073
20
31.029873
10
262.302970
20
29.885648
10
262.430873
20
28.740855
10
262.553780
20
27.595514
10
262.671689
20
26.449648
10
262.784596
20
25.303279
10
262.892501
20
24.156427
10
262.995400
20
23.009116
10
263.093293
20
21.861367
10
263.186176
20
20.713201
10
263.274049
20
19.564641
10
263.356909
20
18.415709
10
263.434756
20
17.266426
10
263.507587
20
16.116814
10
263.575401
20
14.966896
10
263.638197
20
13.816692
10
263.695974
20
12.666226
10
263.748730
20
11.515518
10
263.796466
20
10.364591
10
263.839178
20
9.213467
10
263.876868
20
8.062167
10
263.909534
20
6.910714
10
263.937175
20
5.759130
10
263.959792
20
4.607435
10
263.977382
20
3.455653
10
263.989948
20
2.303805
10
263.997487
20
1.151914
10
264.000000
20
0.000000
10
263.997487
20
-1.151914
10
263.989948
20
-2.303805
10
263.977382
20
-3.455653
10
263.959792
20
-4.607435
10
263.937175
20
-5.759130
10
263.909534
20
-6.910714
10
263.876868
20
-8.062167
10
263.839178
20
-9.213467
10
263.796466
20
-10.364591
10
263.748730
20
-11.515518
10
263.695974
20
-12.666226
10
263.638197
20
-13.816692
10
263.575401
20
-14.966896
10
263.507587
20
-16.116814
10
263.434756
20
-17.266426
10
263.356909
20
-18.415709
10
263.274049
20
-19.564641
10
263.186176
20
-20.713201
10
263.093293
20
-21.861367
10
262.995400
20
-23.009116
10
262.892501
20
-24.156427
10
262.784596
20
-25.303279
10
262.671689
20
-26.449648
10
262.553780
20
-27.595514
10
262.430873
20
-28.740855
10
262.302970
20
-29.885648
10
262.170073
20
-31.029873
10
262.032184
20
-32.173507
10
261.889307
20
-33.316528
10
261.741443
20
-34.458915
10
261.588597
20
-35.600646
10
261.430770
20
-36.741699
10
261.267966
20
-37.882052
10
261.100188
20
-39.021685
10
260.927439
20
-40.160574
10
260.749722
20
-41.298699
10
260.567041
20
-42.436037
10
260.379399
20
-43.572568
10
260.186800
20
-44.708269
10
259.989247
20
-45.843119
10
259.786744
20
-46.977096
10
259.579296
20
-48.110179
10
259.366905
20
-49.242346
10
259.149576
20
-50.373575
10
258.927314
20
-51.503845
10
258.700122
20
-52.633135
10
258.468005
20
-53.761422
10
258.230967
20
-54.888686
10
257.989012
20
-56.014905
10
257.742146
20
-57.140058
10
257.490373
20
-58.264123
10
257.233697
20
-59.387078
10
256.972124
20
-60.508903
10
256.705659
20
-61.629576
10
256.434306
20
-62.749076
10
256.158072
20
-63.867380
10
255.876960
20
-64.984469
10
255.590977
20
-66.100321
10
255.300128
20
-67.214914
10
255.004418
20
-68.328228
10
254.703853
20
-69.440241
10
254.398440
20
-70.550931
10
254.088182
20
-71.660279
10
253.773088
20
-72.768262
10
253.453162
20
-73.874860
10
253.128410
20
-74.980051
10
252.798839
20
-76.083815
10
252.464456
20
-77.186130
10
252.125265
20
-78.286976
10
251.781275
20
-79.386331
10
251.432491
20
-80.484175
10
251.078920
20
-81.580487
10
250.720569
20
-82.675245
10
250.357445
20
-83.768429
10
249.989554
20
-84.860019
10
249.616904
20
-85.949993
10
249.239501
20
-87.038330
10
248.857354
20
-88.125011
10
248.470468
20
-89.210014
0
ENDSEC
0
EOF
