0
SECTION
2
HEADER
9
$ACADVER
1
AC1015
0
ENDSEC
0
SECTION
2
ENTITIES
0
LWPOLYLINE
5
64
100
AcDbEntity
8
0
100
AcDbPolyline
90
242
70
1
10
268.450236
20
-83.038970
10
268.862063
20
-81.695724
10
269.267168
20
-80.350435
10
269.665542
20
-79.003137
10
270.057174
20
-77.653864
10
270.442056
20
-76.302651
10
270.820177
20
-74.949529
10
271.191527
20
-73.594534
10
271.556099
20
-72.237700
10
271.913882
20
-70.879059
10
272.264867
20
-69.518647
10
272.609046
20
-68.156496
10
272.946410
20
-66.792642
10
273.276951
20
-65.427119
10
273.600661
20
-64.059959
10
273.917531
20
-62.691198
10
274.227553
20
-61.320870
10
274.530720
20
-59.949009
10
274.827024
20
-58.575650
10
275.116458
20
-57.200826
10
275.399014
20
-55.824572
10
275.674686
20
-54.446923
10
275.943466
20
-53.067912
10
276.205349
20
-51.687575
10
276.460326
20
-50.305946
10
276.708392
20
-48.923059
10
276.949541
20
-47.538949
10
277.183767
20
-46.153651
10
277.411063
20
-44.767199
10
277.631424
20
-43.379628
10
277.844846
20
-41.990973
10
278.051321
20
-40.601268
10
278.250845
20
-39.210547
10
278.443414
20
-37.818847
10
278.629022
20
-36.426201
10
278.807665
20
-35.032645
10
278.979337
20
-33.638213
10
279.144036
20
-32.242939
10
279.301757
20
-30.846860
10
279.452495
20
-29.450010
10
279.596247
20
-28.052424
10
279.733010
20
-26.654136
10
279.862780
20
-25.255182
10
279.985554
20
-23.855596
10
280.101329
20
-22.455415
10
280.210101
20
-21.054672
10
280.311869
20
-19.653402
10
280.406629
20
-18.251641
10
280.494379
20
-16.849424
10
280.575118
20
-15.446786
10
280.648842
20
-14.043762
10
280.715551
20
-12.640386
10
280.775242
20
-11.236695
10
280.827915
20
-9.832723
10
280.873566
20
-8.428505
10
280.912197
20
-7.024076
10
280.943805
20
-5.619471
10
280.968390
20
-4.214726
10
280.985951
20
-2.809876
10
280.996488
20
-1.404956
10
281.000000
20
0.000000
10
280.996488
20
1.404956
10
280.985951
20
2.809876
10
280.968390
20
4.214726
10
280.943805
20
5.619471
10
280.912197
20
7.024076
10
280.873566
20
8.428505
10
280.827915
20
9.832723
10
280.775242
20
11.236695
10
280.715551
20
12.640386
10
280.648842
20
14.043762
10
280.575118
20
15.446786
10
280.494379
20
16.849424
10
280.406629
20
18.251641
10
280.311869
20
19.653402
10
280.210101
20
21.054672
10
280.101329
20
22.455415
10
279.985554
20
23.855596
10
279.862780
20
25.255182
10
279.733010
20
26.654136
10
279.596247
20
28.052424
10
279.452495
20
29.450010
10
279.301757
20
30.846860
10
279.144036
20
32.242939
10
278.979337
20
33.638213
10
278.807665
20
35.032645
10
278.629022
20
36.426201
10
278.443414
20
37.818847
10
278.250845
20
39.210547
10
278.051321
20
40.601268
10
277.844846
20
41.990973
10
277.631424
20
43.379628
10
277.411063
20
44.767199
10
277.183767
20
46.153651
10
276.949541
20
47.538949
10
276.708392
20
48.923059
10
276.460326
20
50.305946
10
276.205349
20
51.687575
10
275.943466
20
53.067912
10
275.674686
20
54.446923
10
275.399014
20
55.824572
10
275.116458
20
57.200826
10
274.827024
20
58.575650
10
274.530720
20
59.949009
10
274.227553
20
61.320870
10
273.917531
20
62.691198
10
273.600661
20
64.059959
10
273.276951
20
65.427119
10
272.946410
20
66.792642
10
272.609046
20
68.156496
10
272.264867
20
69.518647
10
271.913882
20
70.879059
10
271.556099
20
72.237700
10
271.191527
20
73.594534
10
270.820177
20
74.949529
10
270.442056
20
76.302651
10
270.057174
20
77.653864
10
269.665542
20
79.003137
10
269.267168
20
80.350435
10
268.862063
20
81.695724
10
268.450236
20
83.038970
10
247.432780
20
76.537699
10
247.812364
20
75.299617
10
248.185753
20
74.059653
10
248.552937
20
72.817838
10
248.913908
20
71.574202
10
249.268656
20
70.328778
10
249.617173
20
69.081595
10
249.959450
20
67.832685
10
250.295479
20
66.582079
10
250.625250
20
65.329809
10
250.948756
20
64.075906
10
251.265989
20
62.820401
10
251.576941
20
61.563325
10
251.881603
20
60.304711
10
252.179969
20
59.044589
10
252.472030
20
57.782991
10
252.757780
20
56.519948
10
253.037212
20
55.255493
10
253.310318
20
53.989656
10
253.577091
20
52.722469
10
253.837526
20
51.453965
10
254.091615
20
50.184174
10
254.339352
20
48.913129
10
254.580731
20
47.640861
10
254.815745
20
46.367402
10
255.044390
20
45.092784
10
255.266659
20
43.817039
10
255.482546
20
42.540198
10
255.692047
20
41.262294
10
255.895156
20
39.983358
10
256.091868
20
38.703423
10
256.282178
20
37.422521
10
256.466082
20
36.140682
10
256.643574
20
34.857941
10
256.814650
20
33.574328
10
256.979306
20
32.289875
10
257.137539
20
31.004616
10
257.289343
20
29.718581
10
257.434715
20
28.431804
10
257.573652
20
27.144315
10
257.706150
20
25.856148
10
257.832205
20
24.567335
10
257.951815
20
23.277908
10
258.064977
20
21.987899
10
258.171687
20
20.697340
10
258.271944
20
19.406263
10
258.365744
20
18.114702
10
258.453085
20
16.822687
10
258.533965
20
15.530252
10
258.608383
20
14.237429
10
258.676335
20
12.944250
10
258.737821
20
11.650748
10
258.792839
20
10.356954
10
258.841387
20
9.062901
10
258.883465
20
7.768622
10
258.919071
20
6.474148
10
258.948205
20
5.179513
10
258.970865
20
3.884748
10
258.987051
20
2.589886
10
258.996763
20
1.294959
10
259.000000
20
0.000000
10
258.996763
20
-1.294959
10
258.987051
20
-2.589886
10
258.970865
20
-3.884748
10
258.948205
20
-5.179513
10
258.919071
20
-6.474148
10
258.883465
20
-7.768622
10
258.841387
20
-9.062901
10
258.792839
20
-10.356954
10
258.737821
20
-11.650748
10
258.676335
20
-12.944250
10
258.608383
20
-14.237429
10
258.533965
20
-15.530252
10
258.453085
20
-16.822687
10
258.365744
20
-18.114702
10
258.271944
20
-19.406263
10
258.171687
20
-20.697340
10
258.064977
20
-21.987899
10
257.951815
20
-23.277908
10
257.832205
20
-24.567335
10
257.706150
20
-25.856148
10
257.573652
20
-27.144315
10
257.434715
20
-28.431804
10
257.289343
20
-29.718581
10
257.137539
20
-31.004616
10
256.979306
20
-32.289875
10
256.814650
20
-33.574328
10
256.643574
20
-34.857941
10
256.466082
20
-36.140682
10
256.282178
20
-37.422521
10
256.091868
20
-38.703423
10
255.895156
20
-39.983358
10
255.692047
20
-41.262294
10
255.482546
20
-42.540198
10
255.266659
20
-43.817039
10
255.044390
20
-45.092784
10
254.815745
20
-46.367402
10
254.580731
20
-47.640861
10
254.339352
20
-48.913129
10
254.091615
20
-50.184174
10
253.837526
20
-51.453965
10
253.577091
20
-52.722469
10
253.310318
20
-53.989656
10
253.037212
20
-55.255493
10
252.757780
20
-56.519948
10
252.472030
20
-57.782991
10
252.179969
20
-59.044589
10
251.881603
20
-60.304711
10
251.576941
20
-61.563325
10
251.265989
20
-62.820401
10
250.948756
20
-64.075906
10
250.625250
20
-65.329809
10
250.295479
20
-66.582079
10
249.959450
20
-67.832685
10
249.617173
20
-69.081595
10
249.268656
20
-70.328778
10
248.913908
20
-71.574202
10
248.552937
20
-72.817838
10
248.185753
20
-74.059653
10
247.812364
20
-75.299617
10
247.432780
20
-76.537699
0
ENDSEC
0
EOF
