0
SECTION
2
HEADER
9
$ACADVER
1
AC1015
0
ENDSEC
0
SECTION
2
ENTITIES
0
LWPOLYLINE
5
64
100
AcDbEntity
8
0
100
AcDbPolyline
90
260
70
1
10
24.795387
20
-4.306959
10
26.035156
20
-4.522307
10
27.274926
20
-4.737655
10
28.514695
20
-4.953002
10
29.754464
20
-5.168350
10
30.994234
20
-5.383698
10
32.271081
20
-5.381230
10
33.581607
20
-5.155223
10
34.908376
20
-4.774210
10
36.242475
20
-4.257318
10
37.576586
20
-3.614237
10
38.904017
20
-2.850877
10
40.218383
20
-1.971315
10
40.218383
20
1.971315
10
38.904017
20
2.850877
10
37.576586
20
3.614237
10
36.242475
20
4.257318
10
34.908376
20
4.774210
10
33.581607
20
5.155223
10
32.271081
20
5.381230
10
30.994234
20
5.383698
10
29.754464
20
5.168350
10
28.514695
20
4.953002
10
27.274926
20
4.737655
10
26.035156
20
4.522307
10
24.795387
20
4.306959
10
22.591456
20
11.089960
10
23.721029
20
11.644458
10
24.850602
20
12.198956
10
25.980175
20
12.753454
10
27.109748
20
13.307952
10
28.239320
20
13.862450
10
29.270860
20
14.614958
10
30.198255
20
15.568110
10
31.047680
20
16.656211
10
31.823167
20
17.858549
10
32.524491
20
19.162984
10
33.149715
20
20.560800
10
33.696065
20
22.044946
10
31.378646
20
25.234600
10
29.798308
20
25.173616
10
28.275701
20
25.010942
10
26.818389
20
24.747035
10
25.435259
20
24.381046
10
24.137926
20
23.909436
10
22.944845
20
23.321972
10
21.910403
20
22.573457
10
21.033987
20
21.670519
10
20.157571
20
20.767580
10
19.281155
20
19.864642
10
18.404739
20
18.961704
10
17.528323
20
18.058766
10
11.758357
20
22.250891
10
12.346275
20
23.363436
10
12.934193
20
24.475980
10
13.522111
20
25.588525
10
14.110029
20
26.701069
10
14.697946
20
27.813614
10
15.090166
20
29.028730
10
15.280196
20
30.344954
10
15.327825
20
31.724526
10
15.248491
20
33.153058
10
15.049147
20
34.620596
10
14.733348
20
36.118950
10
14.302996
20
37.640786
10
10.553332
20
38.859125
10
9.310657
20
37.880889
10
8.174460
20
36.854317
10
7.150590
20
35.784226
10
6.246737
20
34.675150
10
5.474378
20
33.531057
10
4.854458
20
32.354513
10
4.457544
20
31.140922
10
4.279242
20
29.895285
10
4.100940
20
28.649649
10
3.922638
20
27.404012
10
3.744337
20
26.158375
10
3.566035
20
24.912738
10
-3.566035
20
24.912738
10
-3.744337
20
26.158375
10
-3.922638
20
27.404012
10
-4.100940
20
28.649649
10
-4.279242
20
29.895285
10
-4.457544
20
31.140922
10
-4.854458
20
32.354513
10
-5.474378
20
33.531057
10
-6.246737
20
34.675150
10
-7.150590
20
35.784226
10
-8.174460
20
36.854317
10
-9.310657
20
37.880889
10
-10.553332
20
38.859125
10
-14.302996
20
37.640786
10
-14.733348
20
36.118950
10
-15.049147
20
34.620596
10
-15.248491
20
33.153058
10
-15.327825
20
31.724526
10
-15.280196
20
30.344954
10
-15.090166
20
29.028730
10
-14.697946
20
27.813614
10
-14.110029
20
26.701069
10
-13.522111
20
25.588525
10
-12.934193
20
24.475980
10
-12.346275
20
23.363436
10
-11.758357
20
22.250891
10
-17.528323
20
18.058766
10
-18.404739
20
18.961704
10
-19.281155
20
19.864642
10
-20.157571
20
20.767580
10
-21.033987
20
21.670519
10
-21.910403
20
22.573457
10
-22.944845
20
23.321972
10
-24.137926
20
23.909436
10
-25.435259
20
24.381046
10
-26.818389
20
24.747035
10
-28.275701
20
25.010942
10
-29.798308
20
25.173616
10
-31.378646
20
25.234600
10
-33.696065
20
22.044946
10
-33.149715
20
20.560800
10
-32.524491
20
19.162984
10
-31.823167
20
17.858549
10
-31.047680
20
16.656211
10
-30.198255
20
15.568110
10
-29.270860
20
14.614958
10
-28.239320
20
13.862450
10
-27.109748
20
13.307952
10
-25.980175
20
12.753454
10
-24.850602
20
12.198956
10
-23.721029
20
11.644458
10
-22.591456
20
11.089960
10
-24.795387
20
4.306959
10
-26.035156
20
4.522307
10
-27.274926
20
4.737655
10
-28.514695
20
4.953002
10
-29.754464
20
5.168350
10
-30.994234
20
5.383698
10
-32.271081
20
5.381230
10
-33.581607
20
5.155223
10
-34.908376
20
4.774210
10
-36.242475
20
4.257318
10
-37.576586
20
3.614237
10
-38.904017
20
2.850877
10
-40.218383
20
1.971315
10
-40.218383
20
-1.971315
10
-38.904017
20
-2.850877
10
-37.576586
20
-3.614237
10
-36.242475
20
-4.257318
10
-34.908376
20
-4.774210
10
-33.581607
20
-5.155223
10
-32.271081
20
-5.381230
10
-30.994234
20
-5.383698
10
-29.754464
20
-5.168350
10
-28.514695
20
-4.953002
10
-27.274926
20
-4.737655
10
-26.035156
20
-4.522307
10
-24.795387
20
-4.306959
10
-22.591456
20
-11.089960
10
-23.721029
20
-11.644458
10
-24.850602
20
-12.198956
10
-25.980175
20
-12.753454
10
-27.109748
20
-13.307952
10
-28.239320
20
-13.862450
10
-29.270860
20
-14.614958
10
-30.198255
20
-15.568110
10
-31.047680
20
-16.656211
10
-31.823167
20
-17.858549
10
-32.524491
20
-19.162984
10
-33.149715
20
-20.560800
10
-33.696065
20
-22.044946
10
-31.378646
20
-25.234600
10
-29.798308
20
-25.173616
10
-28.275701
20
-25.010942
10
-26.818389
20
-24.747035
10
-25.435259
20
-24.381046
10
-24.137926
20
-23.909436
10
-22.944845
20
-23.321972
10
-21.910403
20
-22.573457
10
-21.033987
20
-21.670519
10
-20.157571
20
-20.767580
10
-19.281155
20
-19.864642
10
-18.404739
20
-18.961704
10
-17.528323
20
-18.058766
10
-11.758357
20
-22.250891
10
-12.346275
20
-23.363436
10
-12.934193
20
-24.475980
10
-13.522111
20
-25.588525
10
-14.110029
20
-26.701069
10
-14.697946
20
-27.813614
10
-15.090166
20
-29.028730
10
-15.280196
20
-30.344954
10
-15.327825
20
-31.724526
10
-15.248491
20
-33.153058
10
-15.049147
20
-34.620596
10
-14.733348
20
-36.118950
10
-14.302996
20
-37.640786
10
-10.553332
20
-38.859125
10
-9.310657
20
-37.880889
10
-8.174460
20
-36.854317
10
-7.150590
20
-35.784226
10
-6.246737
20
-34.675150
10
-5.474378
20
-33.531057
10
-4.854458
20
-32.354513
10
-4.457544
20
-31.140922
10
-4.279242
20
-29.895285
10
-4.100940
20
-28.649649
10
-3.922638
20
-27.404012
10
-3.744337
20
-26.158375
10
-3.566035
20
-24.912738
10
3.566035
20
-24.912738
10
3.744337
20
-26.158375
10
3.922638
20
-27.404012
10
4.100940
20
-28.649649
10
4.279242
20
-29.895285
10
4.457544
20
-31.140922
10
4.854458
20
-32.354513
10
5.474378
20
-33.531057
10
6.246737
20
-34.675150
10
7.150590
20
-35.784226
10
8.174460
20
-36.854317
10
9.310657
20
-37.880889
10
10.553332
20
-38.859125
10
14.302996
20
-37.640786
10
14.733348
20
-36.118950
10
15.049147
20
-34.620596
10
15.248491
20
-33.153058
10
15.327825
20
-31.724526
10
15.280196
20
-30.344954
10
15.090166
20
-29.028730
10
14.697946
20
-27.813614
10
14.110029
20
-26.701069
10
13.522111
20
-25.588525
10
12.934193
20
-24.475980
10
12.346275
20
-23.363436
10
11.758357
20
-22.250891
10
17.528323
20
-18.058766
10
18.404739
20
-18.961704
10
19.281155
20
-19.864642
10
20.157571
20
-20.767580
10
21.033987
20
-21.670519
10
21.910403
20
-22.573457
10
22.944845
20
-23.321972
10
24.137926
20
-23.909436
10
25.435259
20
-24.381046
10
26.818389
20
-24.747035
10
28.275701
20
-25.010942
10
29.798308
20
-25.173616
10
31.378646
20
-25.234600
10
33.696065
20
-22.044946
10
33.149715
20
-20.560800
10
32.524491
20
-19.162984
10
31.823167
20
-17.858549
10
31.047680
20
-16.656211
10
30.198255
20
-15.568110
10
29.270860
20
-14.614958
10
28.239320
20
-13.862450
10
27.109748
20
-13.307952
10
25.980175
20
-12.753454
10
24.850602
20
-12.198956
10
23.721029
20
-11.644458
10
22.591456
20
-11.089960
0
ENDSEC
0
EOF
