0
SECTION
2
HEADER
9
$ACADVER
1
AC1015
0
ENDSEC
0
SECTION
2
ENTITIES
0
LWPOLYLINE
5
64
100
AcDbEntity
8
0
100
AcDbPolyline
90
312
70
1
10
30.669239
20
-4.503660
10
31.879867
20
-4.681436
10
33.090495
20
-4.859212
10
34.301123
20
-5.036988
10
35.511751
20
-5.214764
10
36.726514
20
-5.364302
10
37.976187
20
-5.267886
10
39.244974
20
-5.009663
10
40.523989
20
-4.624794
10
41.807407
20
-4.127380
10
43.090299
20
-3.525236
10
44.368129
20
-2.823368
10
45.636563
20
-2.025304
10
45.636563
20
2.025304
10
44.368129
20
2.823368
10
43.090299
20
3.525236
10
41.807407
20
4.127380
10
40.523989
20
4.624794
10
39.244974
20
5.009663
10
37.976187
20
5.267886
10
36.726514
20
5.364302
10
35.511751
20
5.214764
10
34.301123
20
5.036988
10
33.090495
20
4.859212
10
31.879867
20
4.681436
10
30.669239
20
4.503660
10
28.812170
20
11.434336
10
29.949493
20
11.885691
10
31.086815
20
12.337047
10
32.224138
20
12.788402
10
33.361460
20
13.239757
10
34.488245
20
13.717635
10
35.522286
20
14.425970
10
36.491976
20
15.283991
10
37.407201
20
16.256805
10
38.269967
20
17.329288
10
39.079912
20
18.492206
10
39.835610
20
19.738956
10
40.535075
20
21.064317
10
38.509771
20
24.572246
10
37.012243
20
24.629172
10
35.554676
20
24.598093
10
34.142587
20
24.478119
10
32.782407
20
24.267184
10
31.482313
20
23.960982
10
30.254399
20
23.550217
10
29.123943
20
23.008879
10
28.146696
20
22.271993
10
27.187150
20
21.512721
10
26.227603
20
20.753448
10
25.268057
20
19.994176
10
24.308511
20
19.234903
10
19.234903
20
24.308511
10
19.994176
20
25.268057
10
20.753448
20
26.227603
10
21.512721
20
27.187150
10
22.271993
20
28.146696
10
23.008879
20
29.123943
10
23.550217
20
30.254399
10
23.960982
20
31.482313
10
24.267184
20
32.782407
10
24.478119
20
34.142587
10
24.598093
20
35.554676
10
24.629172
20
37.012243
10
24.572246
20
38.509771
10
21.064317
20
40.535075
10
19.738956
20
39.835610
10
18.492206
20
39.079912
10
17.329288
20
38.269967
10
16.256805
20
37.407201
10
15.283991
20
36.491976
10
14.425970
20
35.522286
10
13.717635
20
34.488245
10
13.239757
20
33.361460
10
12.788402
20
32.224138
10
12.337047
20
31.086815
10
11.885691
20
29.949493
10
11.434336
20
28.812170
10
4.503660
20
30.669239
10
4.681436
20
31.879867
10
4.859212
20
33.090495
10
5.036988
20
34.301123
10
5.214764
20
35.511751
10
5.364302
20
36.726514
10
5.267886
20
37.976187
10
5.009663
20
39.244974
10
4.624794
20
40.523989
10
4.127380
20
41.807407
10
3.525236
20
43.090299
10
2.823368
20
44.368129
10
2.025304
20
45.636563
10
-2.025304
20
45.636563
10
-2.823368
20
44.368129
10
-3.525236
20
43.090299
10
-4.127380
20
41.807407
10
-4.624794
20
40.523989
10
-5.009663
20
39.244974
10
-5.267886
20
37.976187
10
-5.364302
20
36.726514
10
-5.214764
20
35.511751
10
-5.036988
20
34.301123
10
-4.859212
20
33.090495
10
-4.681436
20
31.879867
10
-4.503660
20
30.669239
10
-11.434336
20
28.812170
10
-11.885691
20
29.949493
10
-12.337047
20
31.086815
10
-12.788402
20
32.224138
10
-13.239757
20
33.361460
10
-13.717635
20
34.488245
10
-14.425970
20
35.522286
10
-15.283991
20
36.491976
10
-16.256805
20
37.407201
10
-17.329288
20
38.269967
10
-18.492206
20
39.079912
10
-19.738956
20
39.835610
10
-21.064317
20
40.535075
10
-24.572246
20
38.509771
10
-24.629172
20
37.012243
10
-24.598093
20
35.554676
10
-24.478119
20
34.142587
10
-24.267184
20
32.782407
10
-23.960982
20
31.482313
10
-23.550217
20
30.254399
10
-23.008879
20
29.123943
10
-22.271993
20
28.146696
10
-21.512721
20
27.187150
10
-20.753448
20
26.227603
10
-19.994176
20
25.268057
10
-19.234903
20
24.308511
10
-24.308511
20
19.234903
10
-25.268057
20
19.994176
10
-26.227603
20
20.753448
10
-27.187150
20
21.512721
10
-28.146696
20
22.271993
10
-29.123943
20
23.008879
10
-30.254399
20
23.550217
10
-31.482313
20
23.960982
10
-32.782407
20
24.267184
10
-34.142587
20
24.478119
10
-35.554676
20
24.598093
10
-37.012243
20
24.629172
10
-38.509771
20
24.572246
10
-40.535075
20
21.064317
10
-39.835610
20
19.738956
10
-39.079912
20
18.492206
10
-38.269967
20
17.329288
10
-37.407201
20
16.256805
10
-36.491976
20
15.283991
10
-35.522286
20
14.425970
10
-34.488245
20
13.717635
10
-33.361460
20
13.239757
10
-32.224138
20
12.788402
10
-31.086815
20
12.337047
10
-29.949493
20
11.885691
10
-28.812170
20
11.434336
10
-30.669239
20
4.503660
10
-31.879867
20
4.681436
10
-33.090495
20
4.859212
10
-34.301123
20
5.036988
10
-35.511751
20
5.214764
10
-36.726514
20
5.364302
10
-37.976187
20
5.267886
10
-39.244974
20
5.009663
10
-40.523989
20
4.624794
10
-41.807407
20
4.127380
10
-43.090299
20
3.525236
10
-44.368129
20
2.823368
10
-45.636563
20
2.025304
10
-45.636563
20
-2.025304
10
-44.368129
20
-2.823368
10
-43.090299
20
-3.525236
10
-41.807407
20
-4.127380
10
-40.523989
20
-4.624794
10
-39.244974
20
-5.009663
10
-37.976187
20
-5.267886
10
-36.726514
20
-5.364302
10
-35.511751
20
-5.214764
10
-34.301123
20
-5.036988
10
-33.090495
20
-4.859212
10
-31.879867
20
-4.681436
10
-30.669239
20
-4.503660
10
-28.812170
20
-11.434336
10
-29.949493
20
-11.885691
10
-31.086815
20
-12.337047
10
-32.224138
20
-12.788402
10
-33.361460
20
-13.239757
10
-34.488245
20
-13.717635
10
-35.522286
20
-14.425970
10
-36.491976
20
-15.283991
10
-37.407201
20
-16.256805
10
-38.269967
20
-17.329288
10
-39.079912
20
-18.492206
10
-39.835610
20
-19.738956
10
-40.535075
20
-21.064317
10
-38.509771
20
-24.572246
10
-37.012243
20
-24.629172
10
-35.554676
20
-24.598093
10
-34.142587
20
-24.478119
10
-32.782407
20
-24.267184
10
-31.482313
20
-23.960982
10
-30.254399
20
-23.550217
10
-29.123943
20
-23.008879
10
-28.146696
20
-22.271993
10
-27.187150
20
-21.512721
10
-26.227603
20
-20.753448
10
-25.268057
20
-19.994176
10
-24.308511
20
-19.234903
10
-19.234903
20
-24.308511
10
-19.994176
20
-25.268057
10
-20.753448
20
-26.227603
10
-21.512721
20
-27.187150
10
-22.271993
20
-28.146696
10
-23.008879
20
-29.123943
10
-23.550217
20
-30.254399
10
-23.960982
20
-31.482313
10
-24.267184
20
-32.782407
10
-24.478119
20
-34.142587
10
-24.598093
20
-35.554676
10
-24.629172
20
-37.012243
10
-24.572246
20
-38.509771
10
-21.064317
20
-40.535075
10
-19.738956
20
-39.835610
10
-18.492206
20
-39.079912
10
-17.329288
20
-38.269967
10
-16.256805
20
-37.407201
10
-15.283991
20
-36.491976
10
-14.425970
20
-35.522286
10
-13.717635
20
-34.488245
10
-13.239757
20
-33.361460
10
-12.788402
20
-32.224138
10
-12.337047
20
-31.086815
10
-11.885691
20
-29.949493
10
-11.434336
20
-28.812170
10
-4.503660
20
-30.669239
10
-4.681436
20
-31.879867
10
-4.859212
20
-33.090495
10
-5.036988
20
-34.301123
10
-5.214764
20
-35.511751
10
-5.364302
20
-36.726514
10
-5.267886
20
-37.976187
10
-5.009663
20
-39.244974
10
-4.624794
20
-40.523989
10
-4.127380
20
-41.807407
10
-3.525236
20
-43.090299
10
-2.823368
20
-44.368129
10
-2.025304
20
-45.636563
10
2.025304
20
-45.636563
10
2.823368
20
-44.368129
10
3.525236
20
-43.090299
10
4.127380
20
-41.807407
10
4.624794
20
-40.523989
10
5.009663
20
-39.244974
10
5.267886
20
-37.976187
10
5.364302
20
-36.726514
10
5.214764
20
-35.511751
10
5.036988
20
-34.301123
10
4.859212
20
-33.090495
10
4.681436
20
-31.879867
10
4.503660
20
-30.669239
10
11.434336
20
-28.812170
10
11.885691
20
-29.949493
10
12.337047
20
-31.086815
10
12.788402
20
-32.224138
10
13.239757
20
-33.361460
10
13.717635
20
-34.488245
10
14.425970
20
-35.522286
10
15.283991
20
-36.491976
10
16.256805
20
-37.407201
10
17.329288
20
-38.269967
10
18.492206
20
-39.079912
10
19.738956
20
-39.835610
10
21.064317
20
-40.535075
10
24.572246
20
-38.509771
10
24.629172
20
-37.012243
10
24.598093
20
-35.554676
10
24.478119
20
-34.142587
10
24.267184
20
-32.782407
10
23.960982
20
-31.482313
10
23.550217
20
-30.254399
10
23.008879
20
-29.123943
10
22.271993
20
-28.146696
10
21.512721
20
-27.187150
10
20.753448
20
-26.227603
10
19.994176
20
-25.268057
10
19.234903
20
-24.308511
10
24.308511
20
-19.234903
10
25.268057
20
-19.994176
10
26.227603
20
-20.753448
10
27.187150
20
-21.512721
10
28.146696
20
-22.271993
10
29.123943
20
-23.008879
10
30.254399
20
-23.550217
10
31.482313
20
-23.960982
10
32.782407
20
-24.267184
10
34.142587
20
-24.478119
10
35.554676
20
-24.598093
10
37.012243
20
-24.629172
10
38.509771
20
-24.572246
10
40.535075
20
-21.064317
10
39.835610
20
-19.738956
10
39.079912
20
-18.492206
10
38.269967
20
-17.329288
10
37.407201
20
-16.256805
10
36.491976
20
-15.283991
10
35.522286
20
-14.425970
10
34.488245
20
-13.717635
10
33.361460
20
-13.239757
10
32.224138
20
-12.788402
10
31.086815
20
-12.337047
10
29.949493
20
-11.885691
10
28.812170
20
-11.434336
0
ENDSEC
0
EOF
