0
SECTION
2
HEADER
9
$ACADVER
1
AC1015
0
ENDSEC
0
SECTION
2
ENTITIES
0
LWPOLYLINE
5
64
100
AcDbEntity
8
0
100
AcDbPolyline
90
312
70
1
10
25.497927
20
-3.744272
10
26.504424
20
-3.892073
10
27.510921
20
-4.039873
10
28.517418
20
-4.187673
10
29.523915
20
-4.335473
10
30.533850
20
-4.459797
10
31.572809
20
-4.379639
10
32.627658
20
-4.164956
10
33.691012
20
-3.844982
10
34.758026
20
-3.431439
10
35.824602
20
-2.930826
10
36.886969
20
-2.347304
10
37.941526
20
-1.683806
10
37.941526
20
1.683806
10
36.886969
20
2.347304
10
35.824602
20
2.930826
10
34.758026
20
3.431439
10
33.691012
20
3.844982
10
32.627658
20
4.164956
10
31.572809
20
4.379639
10
30.533850
20
4.459797
10
29.523915
20
4.335473
10
28.517418
20
4.187673
10
27.510921
20
4.039873
10
26.504424
20
3.892073
10
25.497927
20
3.744272
10
23.953988
20
9.506328
10
24.899541
20
9.881578
10
25.845093
20
10.256828
10
26.790645
20
10.632078
10
27.736197
20
11.007328
10
28.672989
20
11.404627
10
29.532674
20
11.993526
10
30.338859
20
12.706872
10
31.099763
20
13.515654
10
31.817053
20
14.407299
10
32.490428
20
15.374131
10
33.118704
20
16.410660
10
33.700229
20
17.512544
10
32.016422
20
20.428982
10
30.771401
20
20.476309
10
29.559602
20
20.450471
10
28.385614
20
20.350726
10
27.254781
20
20.175358
10
26.173903
20
19.920786
10
25.153035
20
19.579283
10
24.213191
20
19.129223
10
23.400724
20
18.516587
10
22.602972
20
17.885340
10
21.805220
20
17.254093
10
21.007468
20
16.622846
10
20.209716
20
15.991598
10
15.991598
20
20.209716
10
16.622846
20
21.007468
10
17.254093
20
21.805220
10
17.885340
20
22.602972
10
18.516587
20
23.400724
10
19.129223
20
24.213191
10
19.579283
20
25.153035
10
19.920786
20
26.173903
10
20.175358
20
27.254781
10
20.350726
20
28.385614
10
20.450471
20
29.559602
10
20.476309
20
30.771401
10
20.428982
20
32.016422
10
17.512544
20
33.700229
10
16.410660
20
33.118704
10
15.374131
20
32.490428
10
14.407299
20
31.817053
10
13.515654
20
31.099763
10
12.706872
20
30.338859
10
11.993526
20
29.532674
10
11.404627
20
28.672989
10
11.007328
20
27.736197
10
10.632078
20
26.790645
10
10.256828
20
25.845093
10
9.881578
20
24.899541
10
9.506328
20
23.953988
10
3.744272
20
25.497927
10
3.892073
20
26.504424
10
4.039873
20
27.510921
10
4.187673
20
28.517418
10
4.335473
20
29.523915
10
4.459797
20
30.533850
10
4.379639
20
31.572809
10
4.164956
20
32.627658
10
3.844982
20
33.691012
10
3.431439
20
34.758026
10
2.930826
20
35.824602
10
2.347304
20
36.886969
10
1.683806
20
37.941526
10
-1.683806
20
37.941526
10
-2.347304
20
36.886969
10
-2.930826
20
35.824602
10
-3.431439
20
34.758026
10
-3.844982
20
33.691012
10
-4.164956
20
32.627658
10
-4.379639
20
31.572809
10
-4.459797
20
30.533850
10
-4.335473
20
29.523915
10
-4.187673
20
28.517418
10
-4.039873
20
27.510921
10
-3.892073
20
26.504424
10
-3.744272
20
25.497927
10
-9.506328
20
23.953988
10
-9.881578
20
24.899541
10
-10.256828
20
25.845093
10
-10.632078
20
26.790645
10
-11.007328
20
27.736197
10
-11.404627
20
28.672989
10
-11.993526
20
29.532674
10
-12.706872
20
30.338859
10
-13.515654
20
31.099763
10
-14.407299
20
31.817053
10
-15.374131
20
32.490428
10
-16.410660
20
33.118704
10
-17.512544
20
33.700229
10
-20.428982
20
32.016422
10
-20.476309
20
30.771401
10
-20.450471
20
29.559602
10
-20.350726
20
28.385614
10
-20.175358
20
27.254781
10
-19.920786
20
26.173903
10
-19.579283
20
25.153035
10
-19.129223
20
24.213191
10
-18.516587
20
23.400724
10
-17.885340
20
22.602972
10
-17.254093
20
21.805220
10
-16.622846
20
21.007468
10
-15.991598
20
20.209716
10
-20.209716
20
15.991598
10
-21.007468
20
16.622846
10
-21.805220
20
17.254093
10
-22.602972
20
17.885340
10
-23.400724
20
18.516587
10
-24.213191
20
19.129223
10
-25.153035
20
19.579283
10
-26.173903
20
19.920786
10
-27.254781
20
20.175358
10
-28.385614
20
20.350726
10
-29.559602
20
20.450471
10
-30.771401
20
20.476309
10
-32.016422
20
20.428982
10
-33.700229
20
17.512544
10
-33.118704
20
16.410660
10
-32.490428
20
15.374131
10
-31.817053
20
14.407299
10
-31.099763
20
13.515654
10
-30.338859
20
12.706872
10
-29.532674
20
11.993526
10
-28.672989
20
11.404627
10
-27.736197
20
11.007328
10
-26.790645
20
10.632078
10
-25.845093
20
10.256828
10
-24.899541
20
9.881578
10
-23.953988
20
9.506328
10
-25.497927
20
3.744272
10
-26.504424
20
3.892073
10
-27.510921
20
4.039873
10
-28.517418
20
4.187673
10
-29.523915
20
4.335473
10
-30.533850
20
4.459797
10
-31.572809
20
4.379639
10
-32.627658
20
4.164956
10
-33.691012
20
3.844982
10
-34.758026
20
3.431439
10
-35.824602
20
2.930826
10
-36.886969
20
2.347304
10
-37.941526
20
1.683806
10
-37.941526
20
-1.683806
10
-36.886969
20
-2.347304
10
-35.824602
20
-2.930826
10
-34.758026
20
-3.431439
10
-33.691012
20
-3.844982
10
-32.627658
20
-4.164956
10
-31.572809
20
-4.379639
10
-30.533850
20
-4.459797
10
-29.523915
20
-4.335473
10
-28.517418
20
-4.187673
10
-27.510921
20
-4.039873
10
-26.504424
20
-3.892073
10
-25.497927
20
-3.744272
10
-23.953988
20
-9.506328
10
-24.899541
20
-9.881578
10
-25.845093
20
-10.256828
10
-26.790645
20
-10.632078
10
-27.736197
20
-11.007328
10
-28.672989
20
-11.404627
10
-29.532674
20
-11.993526
10
-30.338859
20
-12.706872
10
-31.099763
20
-13.515654
10
-31.817053
20
-14.407299
10
-32.490428
20
-15.374131
10
-33.118704
20
-16.410660
10
-33.700229
20
-17.512544
10
-32.016422
20
-20.428982
10
-30.771401
20
-20.476309
10
-29.559602
20
-20.450471
10
-28.385614
20
-20.350726
10
-27.254781
20
-20.175358
10
-26.173903
20
-19.920786
10
-25.153035
20
-19.579283
10
-24.213191
20
-19.129223
10
-23.400724
20
-18.516587
10
-22.602972
20
-17.885340
10
-21.805220
20
-17.254093
10
-21.007468
20
-16.622846
10
-20.209716
20
-15.991598
10
-15.991598
20
-20.209716
10
-16.622846
20
-21.007468
10
-17.254093
20
-21.805220
10
-17.885340
20
-22.602972
10
-18.516587
20
-23.400724
10
-19.129223
20
-24.213191
10
-19.579283
20
-25.153035
10
-19.920786
20
-26.173903
10
-20.175358
20
-27.254781
10
-20.350726
20
-28.385614
10
-20.450471
20
-29.559602
10
-20.476309
20
-30.771401
10
-20.428982
20
-32.016422
10
-17.512544
20
-33.700229
10
-16.410660
20
-33.118704
10
-15.374131
20
-32.490428
10
-14.407299
20
-31.817053
10
-13.515654
20
-31.099763
10
-12.706872
20
-30.338859
10
-11.993526
20
-29.532674
10
-11.404627
20
-28.672989
10
-11.007328
20
-27.736197
10
-10.632078
20
-26.790645
10
-10.256828
20
-25.845093
10
-9.881578
20
-24.899541
10
-9.506328
20
-23.953988
10
-3.744272
20
-25.497927
10
-3.892073
20
-26.504424
10
-4.039873
20
-27.510921
10
-4.187673
20
-28.517418
10
-4.335473
20
-29.523915
10
-4.459797
20
-30.533850
10
-4.379639
20
-31.572809
10
-4.164956
20
-32.627658
10
-3.844982
20
-33.691012
10
-3.431439
20
-34.758026
10
-2.930826
20
-35.824602
10
-2.347304
20
-36.886969
10
-1.683806
20
-37.941526
10
1.683806
20
-37.941526
10
2.347304
20
-36.886969
10
2.930826
20
-35.824602
10
3.431439
20
-34.758026
10
3.844982
20
-33.691012
10
4.164956
20
-32.627658
10
4.379639
20
-31.572809
10
4.459797
20
-30.533850
10
4.335473
20
-29.523915
10
4.187673
20
-28.517418
10
4.039873
20
-27.510921
10
3.892073
20
-26.504424
10
3.744272
20
-25.497927
10
9.506328
20
-23.953988
10
9.881578
20
-24.899541
10
10.256828
20
-25.845093
10
10.632078
20
-26.790645
10
11.007328
20
-27.736197
10
11.404627
20
-28.672989
10
11.993526
20
-29.532674
10
12.706872
20
-30.338859
10
13.515654
20
-31.099763
10
14.407299
20
-31.817053
10
15.374131
20
-32.490428
10
16.410660
20
-33.118704
10
17.512544
20
-33.700229
10
20.428982
20
-32.016422
10
20.476309
20
-30.771401
10
20.450471
20
-29.559602
10
20.350726
20
-28.385614
10
20.175358
20
-27.254781
10
19.920786
20
-26.173903
10
19.579283
20
-25.153035
10
19.129223
20
-24.213191
10
18.516587
20
-23.400724
10
17.885340
20
-22.602972
10
17.254093
20
-21.805220
10
16.622846
20
-21.007468
10
15.991598
20
-20.209716
10
20.209716
20
-15.991598
10
21.007468
20
-16.622846
10
21.805220
20
-17.254093
10
22.602972
20
-17.885340
10
23.400724
20
-18.516587
10
24.213191
20
-19.129223
10
25.153035
20
-19.579283
10
26.173903
20
-19.920786
10
27.254781
20
-20.175358
10
28.385614
20
-20.350726
10
29.559602
20
-20.450471
10
30.771401
20
-20.476309
10
32.016422
20
-20.428982
10
33.700229
20
-17.512544
10
33.118704
20
-16.410660
10
32.490428
20
-15.374131
10
31.817053
20
-14.407299
10
31.099763
20
-13.515654
10
30.338859
20
-12.706872
10
29.532674
20
-11.993526
10
28.672989
20
-11.404627
10
27.736197
20
-11.007328
10
26.790645
20
-10.632078
10
25.845093
20
-10.256828
10
24.899541
20
-9.881578
10
23.953988
20
-9.506328
0
ENDSEC
0
EOF
