0
SECTION
2
HEADER
9
$ACADVER
1
AC1015
0
ENDSEC
0
SECTION
2
ENTITIES
0
LWPOLYLINE
5
64
100
AcDbEntity
8
0
100
AcDbPolyline
90
520
70
1
10
10.018600
20
-0.938914
10
10.233284
20
-0.959034
10
10.447969
20
-0.979154
10
10.662653
20
-0.999273
10
10.878430
20
-1.007669
10
11.097136
20
-0.983410
10
11.317283
20
-0.939954
10
11.538285
20
-0.881068
10
11.759736
20
-0.808554
10
11.981300
20
-0.723500
10
12.202671
20
-0.626639
10
12.423560
20
-0.518501
10
12.643690
20
-0.399490
10
12.643690
20
0.399490
10
12.423560
20
0.518501
10
12.202671
20
0.626639
10
11.981300
20
0.723500
10
11.759736
20
0.808554
10
11.538285
20
0.881068
10
11.317283
20
0.939954
10
11.097136
20
0.983410
10
10.878430
20
1.007669
10
10.662653
20
0.999273
10
10.447969
20
0.979154
10
10.233284
20
0.959034
10
10.018600
20
0.938914
10
9.818395
20
2.202957
10
10.028790
20
2.250163
10
10.239184
20
2.297369
10
10.449578
20
2.344576
10
10.657388
20
2.403270
10
10.857894
20
2.493925
10
11.053838
20
2.603283
10
11.245826
20
2.727581
10
11.434031
20
2.864978
10
11.618467
20
3.014336
10
11.799072
20
3.174864
10
11.975733
20
3.345967
10
12.148313
20
3.527178
10
11.901415
20
4.287052
10
11.655282
20
4.332215
10
11.411788
20
4.366801
10
11.171320
20
4.390514
10
10.934317
20
4.402939
10
10.701296
20
4.403471
10
10.472914
20
4.391183
10
10.250113
20
4.364482
10
10.034615
20
4.319970
10
9.831993
20
4.245306
10
9.634033
20
4.159830
10
9.436074
20
4.074354
10
9.238114
20
3.988878
10
8.657098
20
5.129188
10
8.842607
20
5.239099
10
9.028116
20
5.349010
10
9.213625
20
5.458921
10
9.393127
20
5.578959
10
9.555806
20
5.727138
10
9.708366
20
5.891693
10
9.852547
20
6.069235
10
9.989082
20
6.258066
10
10.118338
20
6.457108
10
10.240497
20
6.665589
10
10.355638
20
6.882909
10
10.463775
20
7.108581
10
9.994146
20
7.754969
10
9.746104
20
7.721861
10
9.503839
20
7.679511
10
9.267813
20
7.627755
10
9.038571
20
7.566333
10
8.816790
20
7.494832
10
8.603383
20
7.412571
10
8.399738
20
7.318328
10
8.208542
20
7.209402
10
8.038909
20
7.075779
10
7.877052
20
6.933314
10
7.715195
20
6.790848
10
7.553338
20
6.648383
10
6.648383
20
7.553338
10
6.790848
20
7.715195
10
6.933314
20
7.877052
10
7.075779
20
8.038909
10
7.209402
20
8.208542
10
7.318328
20
8.399738
10
7.412571
20
8.603383
10
7.494832
20
8.816790
10
7.566333
20
9.038571
10
7.627755
20
9.267813
10
7.679511
20
9.503839
10
7.721861
20
9.746104
10
7.754969
20
9.994146
10
7.108581
20
10.463775
10
6.882909
20
10.355638
10
6.665589
20
10.240497
10
6.457108
20
10.118338
10
6.258066
20
9.989082
10
6.069235
20
9.852547
10
5.891693
20
9.708366
10
5.727138
20
9.555806
10
5.578959
20
9.393127
10
5.458921
20
9.213625
10
5.349010
20
9.028116
10
5.239099
20
8.842607
10
5.129188
20
8.657098
10
3.988878
20
9.238114
10
4.074354
20
9.436074
10
4.159830
20
9.634033
10
4.245306
20
9.831993
10
4.319970
20
10.034615
10
4.364482
20
10.250113
10
4.391183
20
10.472914
10
4.403471
20
10.701296
10
4.402939
20
10.934317
10
4.390514
20
11.171320
10
4.366801
20
11.411788
10
4.332215
20
11.655282
10
4.287052
20
11.901415
10
3.527178
20
12.148313
10
3.345967
20
11.975733
10
3.174864
20
11.799072
10
3.014336
20
11.618467
10
2.864978
20
11.434031
10
2.727581
20
11.245826
10
2.603283
20
11.053838
10
2.493925
20
10.857894
10
2.403270
20
10.657388
10
2.344576
20
10.449578
10
2.297369
20
10.239184
10
2.250163
20
10.028790
10
2.202957
20
9.818395
10
0.938914
20
10.018600
10
0.959034
20
10.233284
10
0.979154
20
10.447969
10
0.999273
20
10.662653
10
1.007669
20
10.878430
10
0.983410
20
11.097136
10
0.939954
20
11.317283
10
0.881068
20
11.538285
10
0.808554
20
11.759736
10
0.723500
20
11.981300
10
0.626639
20
12.202671
10
0.518501
20
12.423560
10
0.399490
20
12.643690
10
-0.399490
20
12.643690
10
-0.518501
20
12.423560
10
-0.626639
20
12.202671
10
-0.723500
20
11.981300
10
-0.808554
20
11.759736
10
-0.881068
20
11.538285
10
-0.939954
20
11.317283
10
-0.983410
20
11.097136
10
-1.007669
20
10.878430
10
-0.999273
20
10.662653
10
-0.979154
20
10.447969
10
-0.959034
20
10.233284
10
-0.938914
20
10.018600
10
-2.202957
20
9.818395
10
-2.250163
20
10.028790
10
-2.297369
20
10.239184
10
-2.344576
20
10.449578
10
-2.403270
20
10.657388
10
-2.493925
20
10.857894
10
-2.603283
20
11.053838
10
-2.727581
20
11.245826
10
-2.864978
20
11.434031
10
-3.014336
20
11.618467
10
-3.174864
20
11.799072
10
-3.345967
20
11.975733
10
-3.527178
20
12.148313
10
-4.287052
20
11.901415
10
-4.332215
20
11.655282
10
-4.366801
20
11.411788
10
-4.390514
20
11.171320
10
-4.402939
20
10.934317
10
-4.403471
20
10.701296
10
-4.391183
20
10.472914
10
-4.364482
20
10.250113
10
-4.319970
20
10.034615
10
-4.245306
20
9.831993
10
-4.159830
20
9.634033
10
-4.074354
20
9.436074
10
-3.988878
20
9.238114
10
-5.129188
20
8.657098
10
-5.239099
20
8.842607
10
-5.349010
20
9.028116
10
-5.458921
20
9.213625
10
-5.578959
20
9.393127
10
-5.727138
20
9.555806
10
-5.891693
20
9.708366
10
-6.069235
20
9.852547
10
-6.258066
20
9.989082
10
-6.457108
20
10.118338
10
-6.665589
20
10.240497
10
-6.882909
20
10.355638
10
-7.108581
20
10.463775
10
-7.754969
20
9.994146
10
-7.721861
20
9.746104
10
-7.679511
20
9.503839
10
-7.627755
20
9.267813
10
-7.566333
20
9.038571
10
-7.494832
20
8.816790
10
-7.412571
20
8.603383
10
-7.318328
20
8.399738
10
-7.209402
20
8.208542
10
-7.075779
20
8.038909
10
-6.933314
20
7.877052
10
-6.790848
20
7.715195
10
-6.648383
20
7.553338
10
-7.553338
20
6.648383
10
-7.715195
20
6.790848
10
-7.877052
20
6.933314
10
-8.038909
20
7.075779
10
-8.208542
20
7.209402
10
-8.399738
20
7.318328
10
-8.603383
20
7.412571
10
-8.816790
20
7.494832
10
-9.038571
20
7.566333
10
-9.267813
20
7.627755
10
-9.503839
20
7.679511
10
-9.746104
20
7.721861
10
-9.994146
20
7.754969
10
-10.463775
20
7.108581
10
-10.355638
20
6.882909
10
-10.240497
20
6.665589
10
-10.118338
20
6.457108
10
-9.989082
20
6.258066
10
-9.852547
20
6.069235
10
-9.708366
20
5.891693
10
-9.555806
20
5.727138
10
-9.393127
20
5.578959
10
-9.213625
20
5.458921
10
-9.028116
20
5.349010
10
-8.842607
20
5.239099
10
-8.657098
20
5.129188
10
-9.238114
20
3.988878
10
-9.436074
20
4.074354
10
-9.634033
20
4.159830
10
-9.831993
20
4.245306
10
-10.034615
20
4.319970
10
-10.250113
20
4.364482
10
-10.472914
20
4.391183
10
-10.701296
20
4.403471
10
-10.934317
20
4.402939
10
-11.171320
20
4.390514
10
-11.411788
20
4.366801
10
-11.655282
20
4.332215
10
-11.901415
20
4.287052
10
-12.148313
20
3.527178
10
-11.975733
20
3.345967
10
-11.799072
20
3.174864
10
-11.618467
20
3.014336
10
-11.434031
20
2.864978
10
-11.245826
20
2.727581
10
-11.053838
20
2.603283
10
-10.857894
20
2.493925
10
-10.657388
20
2.403270
10
-10.449578
20
2.344576
10
-10.239184
20
2.297369
10
-10.028790
20
2.250163
10
-9.818395
20
2.202957
10
-10.018600
20
0.938914
10
-10.233284
20
0.959034
10
-10.447969
20
0.979154
10
-10.662653
20
0.999273
10
-10.878430
20
1.007669
10
-11.097136
20
0.983410
10
-11.317283
20
0.939954
10
-11.538285
20
0.881068
10
-11.759736
20
0.808554
10
-11.981300
20
0.723500
10
-12.202671
20
0.626639
10
-12.423560
20
0.518501
10
-12.643690
20
0.399490
10
-12.643690
20
-0.399490
10
-12.423560
20
-0.518501
10
-12.202671
20
-0.626639
10
-11.981300
20
-0.723500
10
-11.759736
20
-0.808554
10
-11.538285
20
-0.881068
10
-11.317283
20
-0.939954
10
-11.097136
20
-0.983410
10
-10.878430
20
-1.007669
10
-10.662653
20
-0.999273
10
-10.447969
20
-0.979154
10
-10.233284
20
-0.959034
10
-10.018600
20
-0.938914
10
-9.818395
20
-2.202957
10
-10.028790
20
-2.250163
10
-10.239184
20
-2.297369
10
-10.449578
20
-2.344576
10
-10.657388
20
-2.403270
10
-10.857894
20
-2.493925
10
-11.053838
20
-2.603283
10
-11.245826
20
-2.727581
10
-11.434031
20
-2.864978
10
-11.618467
20
-3.014336
10
-11.799072
20
-3.174864
10
-11.975733
20
-3.345967
10
-12.148313
20
-3.527178
10
-11.901415
20
-4.287052
10
-11.655282
20
-4.332215
10
-11.411788
20
-4.366801
10
-11.171320
20
-4.390514
10
-10.934317
20
-4.402939
10
-10.701296
20
-4.403471
10
-10.472914
20
-4.391183
10
-10.250113
20
-4.364482
10
-10.034615
20
-4.319970
10
-9.831993
20
-4.245306
10
-9.634033
20
-4.159830
10
-9.436074
20
-4.074354
10
-9.238114
20
-3.988878
10
-8.657098
20
-5.129188
10
-8.842607
20
-5.239099
10
-9.028116
20
-5.349010
10
-9.213625
20
-5.458921
10
-9.393127
20
-5.578959
10
-9.555806
20
-5.727138
10
-9.708366
20
-5.891693
10
-9.852547
20
-6.069235
10
-9.989082
20
-6.258066
10
-10.118338
20
-6.457108
10
-10.240497
20
-6.665589
10
-10.355638
20
-6.882909
10
-10.463775
20
-7.108581
10
-9.994146
20
-7.754969
10
-9.746104
20
-7.721861
10
-9.503839
20
-7.679511
10
-9.267813
20
-7.627755
10
-9.038571
20
-7.566333
10
-8.816790
20
-7.494832
10
-8.603383
20
-7.412571
10
-8.399738
20
-7.318328
10
-8.208542
20
-7.209402
10
-8.038909
20
-7.075779
10
-7.877052
20
-6.933314
10
-7.715195
20
-6.790848
10
-7.553338
20
-6.648383
10
-6.648383
20
-7.553338
10
-6.790848
20
-7.715195
10
-6.933314
20
-7.877052
10
-7.075779
20
-8.038909
10
-7.209402
20
-8.208542
10
-7.318328
20
-8.399738
10
-7.412571
20
-8.603383
10
-7.494832
20
-8.816790
10
-7.566333
20
-9.038571
10
-7.627755
20
-9.267813
10
-7.679511
20
-9.503839
10
-7.721861
20
-9.746104
10
-7.754969
20
-9.994146
10
-7.108581
20
-10.463775
10
-6.882909
20
-10.355638
10
-6.665589
20
-10.240497
10
-6.457108
20
-10.118338
10
-6.258066
20
-9.989082
10
-6.069235
20
-9.852547
10
-5.891693
20
-9.708366
10
-5.727138
20
-9.555806
10
-5.578959
20
-9.393127
10
-5.458921
20
-9.213625
10
-5.349010
20
-9.028116
10
-5.239099
20
-8.842607
10
-5.129188
20
-8.657098
10
-3.988878
20
-9.238114
10
-4.074354
20
-9.436074
10
-4.159830
20
-9.634033
10
-4.245306
20
-9.831993
10
-4.319970
20
-10.034615
10
-4.364482
20
-10.250113
10
-4.391183
20
-10.472914
10
-4.403471
20
-10.701296
10
-4.402939
20
-10.934317
10
-4.390514
20
-11.171320
10
-4.366801
20
-11.411788
10
-4.332215
20
-11.655282
10
-4.287052
20
-11.901415
10
-3.527178
20
-12.148313
10
-3.345967
20
-11.975733
10
-3.174864
20
-11.799072
10
-3.014336
20
-11.618467
10
-2.864978
20
-11.434031
10
-2.727581
20
-11.245826
10
-2.603283
20
-11.053838
10
-2.493925
20
-10.857894
10
-2.403270
20
-10.657388
10
-2.344576
20
-10.449578
10
-2.297369
20
-10.239184
10
-2.250163
20
-10.028790
10
-2.202957
20
-9.818395
10
-0.938914
20
-10.018600
10
-0.959034
20
-10.233284
10
-0.979154
20
-10.447969
10
-0.999273
20
-10.662653
10
-1.007669
20
-10.878430
10
-0.983410
20
-11.097136
10
-0.939954
20
-11.317283
10
-0.881068
20
-11.538285
10
-0.808554
20
-11.759736
10
-0.723500
20
-11.981300
10
-0.626639
20
-12.202671
10
-0.518501
20
-12.423560
10
-0.399490
20
-12.643690
10
0.399490
20
-12.643690
10
0.518501
20
-12.423560
10
0.626639
20
-12.202671
10
0.723500
20
-11.981300
10
0.808554
20
-11.759736
10
0.881068
20
-11.538285
10
0.939954
20
-11.317283
10
0.983410
20
-11.097136
10
1.007669
20
-10.878430
10
0.999273
20
-10.662653
10
0.979154
20
-10.447969
10
0.959034
20
-10.233284
10
0.938914
20
-10.018600
10
2.202957
20
-9.818395
10
2.250163
20
-10.028790
10
2.297369
20
-10.239184
10
2.344576
20
-10.449578
10
2.403270
20
-10.657388
10
2.493925
20
-10.857894
10
2.603283
20
-11.053838
10
2.727581
20
-11.245826
10
2.864978
20
-11.434031
10
3.014336
20
-11.618467
10
3.174864
20
-11.799072
10
3.345967
20
-11.975733
10
3.527178
20
-12.148313
10
4.287052
20
-11.901415
10
4.332215
20
-11.655282
10
4.366801
20
-11.411788
10
4.390514
20
-11.171320
10
4.402939
20
-10.934317
10
4.403471
20
-10.701296
10
4.391183
20
-10.472914
10
4.364482
20
-10.250113
10
4.319970
20
-10.034615
10
4.245306
20
-9.831993
10
4.159830
20
-9.634033
10
4.074354
20
-9.436074
10
3.988878
20
-9.238114
10
5.129188
20
-8.657098
10
5.239099
20
-8.842607
10
5.349010
20
-9.028116
10
5.458921
20
-9.213625
10
5.578959
20
-9.393127
10
5.727138
20
-9.555806
10
5.891693
20
-9.708366
10
6.069235
20
-9.852547
10
6.258066
20
-9.989082
10
6.457108
20
-10.118338
10
6.665589
20
-10.240497
10
6.882909
20
-10.355638
10
7.108581
20
-10.463775
10
7.754969
20
-9.994146
10
7.721861
20
-9.746104
10
7.679511
20
-9.503839
10
7.627755
20
-9.267813
10
7.566333
20
-9.038571
10
7.494832
20
-8.816790
10
7.412571
20
-8.603383
10
7.318328
20
-8.399738
10
7.209402
20
-8.208542
10
7.075779
20
-8.038909
10
6.933314
20
-7.877052
10
6.790848
20
-7.715195
10
6.648383
20
-7.553338
10
7.553338
20
-6.648383
10
7.715195
20
-6.790848
10
7.877052
20
-6.933314
10
8.038909
20
-7.075779
10
8.208542
20
-7.209402
10
8.399738
20
-7.318328
10
8.603383
20
-7.412571
10
8.816790
20
-7.494832
10
9.038571
20
-7.566333
10
9.267813
20
-7.627755
10
9.503839
20
-7.679511
10
9.746104
20
-7.721861
10
9.994146
20
-7.754969
10
10.463775
20
-7.108581
10
10.355638
20
-6.882909
10
10.240497
20
-6.665589
10
10.118338
20
-6.457108
10
9.989082
20
-6.258066
10
9.852547
20
-6.069235
10
9.708366
20
-5.891693
10
9.555806
20
-5.727138
10
9.393127
20
-5.578959
10
9.213625
20
-5.458921
10
9.028116
20
-5.349010
10
8.842607
20
-5.239099
10
8.657098
20
-5.129188
10
9.238114
20
-3.988878
10
9.436074
20
-4.074354
10
9.634033
20
-4.159830
10
9.831993
20
-4.245306
10
10.034615
20
-4.319970
10
10.250113
20
-4.364482
10
10.472914
20
-4.391183
10
10.701296
20
-4.403471
10
10.934317
20
-4.402939
10
11.171320
20
-4.390514
10
11.411788
20
-4.366801
10
11.655282
20
-4.332215
10
11.901415
20
-4.287052
10
12.148313
20
-3.527178
10
11.975733
20
-3.345967
10
11.799072
20
-3.174864
10
11.618467
20
-3.014336
10
11.434031
20
-2.864978
10
11.245826
20
-2.727581
10
11.053838
20
-2.603283
10
10.857894
20
-2.493925
10
10.657388
20
-2.403270
10
10.449578
20
-2.344576
10
10.239184
20
-2.297369
10
10.028790
20
-2.250163
10
9.818395
20
-2.202957
0
ENDSEC
0
EOF
