0
SECTION
2
HEADER
9
$ACADVER
1
AC1015
0
ENDSEC
0
SECTION
2
ENTITIES
0
LWPOLYLINE
5
64
100
AcDbEntity
8
0
100
AcDbPolyline
90
260
70
1
10
31.019948
20
-5.388165
10
32.570945
20
-5.657573
10
34.121943
20
-5.926981
10
35.672940
20
-6.196390
10
37.223938
20
-6.465798
10
38.774935
20
-6.735206
10
40.372318
20
-6.732119
10
42.011834
20
-6.449375
10
43.671672
20
-5.972714
10
45.340679
20
-5.326063
10
47.009701
20
-4.521544
10
48.670367
20
-3.566553
10
50.314688
20
-2.466188
10
50.314688
20
2.466188
10
48.670367
20
3.566553
10
47.009701
20
4.521544
10
45.340679
20
5.326063
10
43.671672
20
5.972714
10
42.011834
20
6.449375
10
40.372318
20
6.732119
10
38.774935
20
6.735206
10
37.223938
20
6.465798
10
35.672940
20
6.196390
10
34.121943
20
5.926981
10
32.570945
20
5.657573
10
31.019948
20
5.388165
10
28.262749
20
13.873951
10
29.675886
20
14.567649
10
31.089024
20
15.261346
10
32.502161
20
15.955044
10
33.915299
20
16.648741
10
35.328436
20
17.342439
10
36.618931
20
18.283855
10
37.779136
20
19.476282
10
38.841798
20
20.837537
10
39.811961
20
22.341707
10
40.689344
20
23.973603
10
41.471522
20
25.722322
10
42.155026
20
27.579044
10
39.255849
20
31.569419
10
37.278787
20
31.493126
10
35.373950
20
31.289615
10
33.550799
20
30.959458
10
31.820451
20
30.501592
10
30.197440
20
29.911591
10
28.704851
20
29.176651
10
27.410727
20
28.240231
10
26.314297
20
27.110622
10
25.217868
20
25.981013
10
24.121439
20
24.851403
10
23.025010
20
23.721794
10
21.928581
20
22.592185
10
14.710140
20
27.836689
10
15.445647
20
29.228524
10
16.181155
20
30.620358
10
16.916662
20
32.012193
10
17.652169
20
33.404027
10
18.387676
20
34.795861
10
18.878357
20
36.316017
10
19.116091
20
37.962662
10
19.175677
20
39.688558
10
19.076427
20
41.475704
10
18.827040
20
43.311649
10
18.431964
20
45.186145
10
17.893577
20
47.090018
10
13.202610
20
48.614206
10
11.647977
20
47.390396
10
10.226553
20
46.106117
10
8.945653
20
44.767392
10
7.814900
20
43.379898
10
6.848650
20
41.948595
10
6.073107
20
40.476695
10
5.576552
20
38.958448
10
5.353490
20
37.400110
10
5.130428
20
35.841772
10
4.907366
20
34.283434
10
4.684304
20
32.725096
10
4.461242
20
31.166758
10
-4.461242
20
31.166758
10
-4.684304
20
32.725096
10
-4.907366
20
34.283434
10
-5.130428
20
35.841772
10
-5.353490
20
37.400110
10
-5.576552
20
38.958448
10
-6.073107
20
40.476695
10
-6.848650
20
41.948595
10
-7.814900
20
43.379898
10
-8.945653
20
44.767392
10
-10.226553
20
46.106117
10
-11.647977
20
47.390396
10
-13.202610
20
48.614206
10
-17.893577
20
47.090018
10
-18.431964
20
45.186145
10
-18.827040
20
43.311649
10
-19.076427
20
41.475704
10
-19.175677
20
39.688558
10
-19.116091
20
37.962662
10
-18.878357
20
36.316017
10
-18.387676
20
34.795861
10
-17.652169
20
33.404027
10
-16.916662
20
32.012193
10
-16.181155
20
30.620358
10
-15.445647
20
29.228524
10
-14.710140
20
27.836689
10
-21.928581
20
22.592185
10
-23.025010
20
23.721794
10
-24.121439
20
24.851403
10
-25.217868
20
25.981013
10
-26.314297
20
27.110622
10
-27.410727
20
28.240231
10
-28.704851
20
29.176651
10
-30.197440
20
29.911591
10
-31.820451
20
30.501592
10
-33.550799
20
30.959458
10
-35.373950
20
31.289615
10
-37.278787
20
31.493126
10
-39.255849
20
31.569419
10
-42.155026
20
27.579044
10
-41.471522
20
25.722322
10
-40.689344
20
23.973603
10
-39.811961
20
22.341707
10
-38.841798
20
20.837537
10
-37.779136
20
19.476282
10
-36.618931
20
18.283855
10
-35.328436
20
17.342439
10
-33.915299
20
16.648741
10
-32.502161
20
15.955044
10
-31.089024
20
15.261346
10
-29.675886
20
14.567649
10
-28.262749
20
13.873951
10
-31.019948
20
5.388165
10
-32.570945
20
5.657573
10
-34.121943
20
5.926981
10
-35.672940
20
6.196390
10
-37.223938
20
6.465798
10
-38.774935
20
6.735206
10
-40.372318
20
6.732119
10
-42.011834
20
6.449375
10
-43.671672
20
5.972714
10
-45.340679
20
5.326063
10
-47.009701
20
4.521544
10
-48.670367
20
3.566553
10
-50.314688
20
2.466188
10
-50.314688
20
-2.466188
10
-48.670367
20
-3.566553
10
-47.009701
20
-4.521544
10
-45.340679
20
-5.326063
10
-43.671672
20
-5.972714
10
-42.011834
20
-6.449375
10
-40.372318
20
-6.732119
10
-38.774935
20
-6.735206
10
-37.223938
20
-6.465798
10
-35.672940
20
-6.196390
10
-34.121943
20
-5.926981
10
-32.570945
20
-5.657573
10
-31.019948
20
-5.388165
10
-28.262749
20
-13.873951
10
-29.675886
20
-14.567649
10
-31.089024
20
-15.261346
10
-32.502161
20
-15.955044
10
-33.915299
20
-16.648741
10
-35.328436
20
-17.342439
10
-36.618931
20
-18.283855
10
-37.779136
20
-19.476282
10
-38.841798
20
-20.837537
10
-39.811961
20
-22.341707
10
-40.689344
20
-23.973603
10
-41.471522
20
-25.722322
10
-42.155026
20
-27.579044
10
-39.255849
20
-31.569419
10
-37.278787
20
-31.493126
10
-35.373950
20
-31.289615
10
-33.550799
20
-30.959458
10
-31.820451
20
-30.501592
10
-30.197440
20
-29.911591
10
-28.704851
20
-29.176651
10
-27.410727
20
-28.240231
10
-26.314297
20
-27.110622
10
-25.217868
20
-25.981013
10
-24.121439
20
-24.851403
10
-23.025010
20
-23.721794
10
-21.928581
20
-22.592185
10
-14.710140
20
-27.836689
10
-15.445647
20
-29.228524
10
-16.181155
20
-30.620358
10
-16.916662
20
-32.012193
10
-17.652169
20
-33.404027
10
-18.387676
20
-34.795861
10
-18.878357
20
-36.316017
10
-19.116091
20
-37.962662
10
-19.175677
20
-39.688558
10
-19.076427
20
-41.475704
10
-18.827040
20
-43.311649
10
-18.431964
20
-45.186145
10
-17.893577
20
-47.090018
10
-13.202610
20
-48.614206
10
-11.647977
20
-47.390396
10
-10.226553
20
-46.106117
10
-8.945653
20
-44.767392
10
-7.814900
20
-43.379898
10
-6.848650
20
-41.948595
10
-6.073107
20
-40.476695
10
-5.576552
20
-38.958448
10
-5.353490
20
-37.400110
10
-5.130428
20
-35.841772
10
-4.907366
20
-34.283434
10
-4.684304
20
-32.725096
10
-4.461242
20
-31.166758
10
4.461242
20
-31.166758
10
4.684304
20
-32.725096
10
4.907366
20
-34.283434
10
5.130428
20
-35.841772
10
5.353490
20
-37.400110
10
5.576552
20
-38.958448
10
6.073107
20
-40.476695
10
6.848650
20
-41.948595
10
7.814900
20
-43.379898
10
8.945653
20
-44.767392
10
10.226553
20
-46.106117
10
11.647977
20
-47.390396
10
13.202610
20
-48.614206
10
17.893577
20
-47.090018
10
18.431964
20
-45.186145
10
18.827040
20
-43.311649
10
19.076427
20
-41.475704
10
19.175677
20
-39.688558
10
19.116091
20
-37.962662
10
18.878357
20
-36.316017
10
18.387676
20
-34.795861
10
17.652169
20
-33.404027
10
16.916662
20
-32.012193
10
16.181155
20
-30.620358
10
15.445647
20
-29.228524
10
14.710140
20
-27.836689
10
21.928581
20
-22.592185
10
23.025010
20
-23.721794
10
24.121439
20
-24.851403
10
25.217868
20
-25.981013
10
26.314297
20
-27.110622
10
27.410727
20
-28.240231
10
28.704851
20
-29.176651
10
30.197440
20
-29.911591
10
31.820451
20
-30.501592
10
33.550799
20
-30.959458
10
35.373950
20
-31.289615
10
37.278787
20
-31.493126
10
39.255849
20
-31.569419
10
42.155026
20
-27.579044
10
41.471522
20
-25.722322
10
40.689344
20
-23.973603
10
39.811961
20
-22.341707
10
38.841798
20
-20.837537
10
37.779136
20
-19.476282
10
36.618931
20
-18.283855
10
35.328436
20
-17.342439
10
33.915299
20
-16.648741
10
32.502161
20
-15.955044
10
31.089024
20
-15.261346
10
29.675886
20
-14.567649
10
28.262749
20
-13.873951
0
ENDSEC
0
EOF
