0
SECTION
2
HEADER
9
$ACADVER
1
AC1015
0
ENDSEC
0
SECTION
2
ENTITIES
0
LWPOLYLINE
5
64
100
AcDbEntity
8
0
100
AcDbPolyline
90
312
70
1
10
30.429908
20
-4.468515
10
31.631088
20
-4.644903
10
32.832269
20
-4.821292
10
34.033450
20
-4.997681
10
35.234630
20
-5.174070
10
36.439914
20
-5.322441
10
37.679835
20
-5.226778
10
38.938720
20
-4.970569
10
40.207754
20
-4.588704
10
41.481158
20
-4.095171
10
42.754038
20
-3.497726
10
44.021896
20
-2.801335
10
45.280432
20
-2.009499
10
45.280432
20
2.009499
10
44.021896
20
2.801335
10
42.754038
20
3.497726
10
41.481158
20
4.095171
10
40.207754
20
4.588704
10
38.938720
20
4.970569
10
37.679835
20
5.226778
10
36.439914
20
5.322441
10
35.234630
20
5.174070
10
34.033450
20
4.997681
10
32.832269
20
4.821292
10
31.631088
20
4.644903
10
30.429908
20
4.468515
10
28.587331
20
11.345107
10
29.715778
20
11.792940
10
30.844225
20
12.240773
10
31.972672
20
12.688606
10
33.101120
20
13.136439
10
34.219112
20
13.610587
10
35.245083
20
14.313395
10
36.207206
20
15.164721
10
37.115289
20
16.129943
10
37.971322
20
17.194056
10
38.774946
20
18.347900
10
39.524748
20
19.584921
10
40.218754
20
20.899939
10
38.209255
20
24.380494
10
36.723413
20
24.436975
10
35.277220
20
24.406139
10
33.876151
20
24.287101
10
32.526585
20
24.077812
10
31.236636
20
23.773999
10
30.018305
20
23.366440
10
28.896670
20
22.829326
10
27.927050
20
22.098191
10
26.974991
20
21.344843
10
26.022933
20
20.591496
10
25.070874
20
19.838149
10
24.118816
20
19.084801
10
19.084801
20
24.118816
10
19.838149
20
25.070874
10
20.591496
20
26.022933
10
21.344843
20
26.974991
10
22.098191
20
27.927050
10
22.829326
20
28.896670
10
23.366440
20
30.018305
10
23.773999
20
31.236636
10
24.077812
20
32.526585
10
24.287101
20
33.876151
10
24.406139
20
35.277220
10
24.436975
20
36.723413
10
24.380494
20
38.209255
10
20.899939
20
40.218754
10
19.584921
20
39.524748
10
18.347900
20
38.774946
10
17.194056
20
37.971322
10
16.129943
20
37.115289
10
15.164721
20
36.207206
10
14.313395
20
35.245083
10
13.610587
20
34.219112
10
13.136439
20
33.101120
10
12.688606
20
31.972672
10
12.240773
20
30.844225
10
11.792940
20
29.715778
10
11.345107
20
28.587331
10
4.468515
20
30.429908
10
4.644903
20
31.631088
10
4.821292
20
32.832269
10
4.997681
20
34.033450
10
5.174070
20
35.234630
10
5.322441
20
36.439914
10
5.226778
20
37.679835
10
4.970569
20
38.938720
10
4.588704
20
40.207754
10
4.095171
20
41.481158
10
3.497726
20
42.754038
10
2.801335
20
44.021896
10
2.009499
20
45.280432
10
-2.009499
20
45.280432
10
-2.801335
20
44.021896
10
-3.497726
20
42.754038
10
-4.095171
20
41.481158
10
-4.588704
20
40.207754
10
-4.970569
20
38.938720
10
-5.226778
20
37.679835
10
-5.322441
20
36.439914
10
-5.174070
20
35.234630
10
-4.997681
20
34.033450
10
-4.821292
20
32.832269
10
-4.644903
20
31.631088
10
-4.468515
20
30.429908
10
-11.345107
20
28.587331
10
-11.792940
20
29.715778
10
-12.240773
20
30.844225
10
-12.688606
20
31.972672
10
-13.136439
20
33.101120
10
-13.610587
20
34.219112
10
-14.313395
20
35.245083
10
-15.164721
20
36.207206
10
-16.129943
20
37.115289
10
-17.194056
20
37.971322
10
-18.347900
20
38.774946
10
-19.584921
20
39.524748
10
-20.899939
20
40.218754
10
-24.380494
20
38.209255
10
-24.436975
20
36.723413
10
-24.406139
20
35.277220
10
-24.287101
20
33.876151
10
-24.077812
20
32.526585
10
-23.773999
20
31.236636
10
-23.366440
20
30.018305
10
-22.829326
20
28.896670
10
-22.098191
20
27.927050
10
-21.344843
20
26.974991
10
-20.591496
20
26.022933
10
-19.838149
20
25.070874
10
-19.084801
20
24.118816
10
-24.118816
20
19.084801
10
-25.070874
20
19.838149
10
-26.022933
20
20.591496
10
-26.974991
20
21.344843
10
-27.927050
20
22.098191
10
-28.896670
20
22.829326
10
-30.018305
20
23.366440
10
-31.236636
20
23.773999
10
-32.526585
20
24.077812
10
-33.876151
20
24.287101
10
-35.277220
20
24.406139
10
-36.723413
20
24.436975
10
-38.209255
20
24.380494
10
-40.218754
20
20.899939
10
-39.524748
20
19.584921
10
-38.774946
20
18.347900
10
-37.971322
20
17.194056
10
-37.115289
20
16.129943
10
-36.207206
20
15.164721
10
-35.245083
20
14.313395
10
-34.219112
20
13.610587
10
-33.101120
20
13.136439
10
-31.972672
20
12.688606
10
-30.844225
20
12.240773
10
-29.715778
20
11.792940
10
-28.587331
20
11.345107
10
-30.429908
20
4.468515
10
-31.631088
20
4.644903
10
-32.832269
20
4.821292
10
-34.033450
20
4.997681
10
-35.234630
20
5.174070
10
-36.439914
20
5.322441
10
-37.679835
20
5.226778
10
-38.938720
20
4.970569
10
-40.207754
20
4.588704
10
-41.481158
20
4.095171
10
-42.754038
20
3.497726
10
-44.021896
20
2.801335
10
-45.280432
20
2.009499
10
-45.280432
20
-2.009499
10
-44.021896
20
-2.801335
10
-42.754038
20
-3.497726
10
-41.481158
20
-4.095171
10
-40.207754
20
-4.588704
10
-38.938720
20
-4.970569
10
-37.679835
20
-5.226778
10
-36.439914
20
-5.322441
10
-35.234630
20
-5.174070
10
-34.033450
20
-4.997681
10
-32.832269
20
-4.821292
10
-31.631088
20
-4.644903
10
-30.429908
20
-4.468515
10
-28.587331
20
-11.345107
10
-29.715778
20
-11.792940
10
-30.844225
20
-12.240773
10
-31.972672
20
-12.688606
10
-33.101120
20
-13.136439
10
-34.219112
20
-13.610587
10
-35.245083
20
-14.313395
10
-36.207206
20
-15.164721
10
-37.115289
20
-16.129943
10
-37.971322
20
-17.194056
10
-38.774946
20
-18.347900
10
-39.524748
20
-19.584921
10
-40.218754
20
-20.899939
10
-38.209255
20
-24.380494
10
-36.723413
20
-24.436975
10
-35.277220
20
-24.406139
10
-33.876151
20
-24.287101
10
-32.526585
20
-24.077812
10
-31.236636
20
-23.773999
10
-30.018305
20
-23.366440
10
-28.896670
20
-22.829326
10
-27.927050
20
-22.098191
10
-26.974991
20
-21.344843
10
-26.022933
20
-20.591496
10
-25.070874
20
-19.838149
10
-24.118816
20
-19.084801
10
-19.084801
20
-24.118816
10
-19.838149
20
-25.070874
10
-20.591496
20
-26.022933
10
-21.344843
20
-26.974991
10
-22.098191
20
-27.927050
10
-22.829326
20
-28.896670
10
-23.366440
20
-30.018305
10
-23.773999
20
-31.236636
10
-24.077812
20
-32.526585
10
-24.287101
20
-33.876151
10
-24.406139
20
-35.277220
10
-24.436975
20
-36.723413
10
-24.380494
20
-38.209255
10
-20.899939
20
-40.218754
10
-19.584921
20
-39.524748
10
-18.347900
20
-38.774946
10
-17.194056
20
-37.971322
10
-16.129943
20
-37.115289
10
-15.164721
20
-36.207206
10
-14.313395
20
-35.245083
10
-13.610587
20
-34.219112
10
-13.136439
20
-33.101120
10
-12.688606
20
-31.972672
10
-12.240773
20
-30.844225
10
-11.792940
20
-29.715778
10
-11.345107
20
-28.587331
10
-4.468515
20
-30.429908
10
-4.644903
20
-31.631088
10
-4.821292
20
-32.832269
10
-4.997681
20
-34.033450
10
-5.174070
20
-35.234630
10
-5.322441
20
-36.439914
10
-5.226778
20
-37.679835
10
-4.970569
20
-38.938720
10
-4.588704
20
-40.207754
10
-4.095171
20
-41.481158
10
-3.497726
20
-42.754038
10
-2.801335
20
-44.021896
10
-2.009499
20
-45.280432
10
2.009499
20
-45.280432
10
2.801335
20
-44.021896
10
3.497726
20
-42.754038
10
4.095171
20
-41.481158
10
4.588704
20
-40.207754
10
4.970569
20
-38.938720
10
5.226778
20
-37.679835
10
5.322441
20
-36.439914
10
5.174070
20
-35.234630
10
4.997681
20
-34.033450
10
4.821292
20
-32.832269
10
4.644903
20
-31.631088
10
4.468515
20
-30.429908
10
11.345107
20
-28.587331
10
11.792940
20
-29.715778
10
12.240773
20
-30.844225
10
12.688606
20
-31.972672
10
13.136439
20
-33.101120
10
13.610587
20
-34.219112
10
14.313395
20
-35.245083
10
15.164721
20
-36.207206
10
16.129943
20
-37.115289
10
17.194056
20
-37.971322
10
18.347900
20
-38.774946
10
19.584921
20
-39.524748
10
20.899939
20
-40.218754
10
24.380494
20
-38.209255
10
24.436975
20
-36.723413
10
24.406139
20
-35.277220
10
24.287101
20
-33.876151
10
24.077812
20
-32.526585
10
23.773999
20
-31.236636
10
23.366440
20
-30.018305
10
22.829326
20
-28.896670
10
22.098191
20
-27.927050
10
21.344843
20
-26.974991
10
20.591496
20
-26.022933
10
19.838149
20
-25.070874
10
19.084801
20
-24.118816
10
24.118816
20
-19.084801
10
25.070874
20
-19.838149
10
26.022933
20
-20.591496
10
26.974991
20
-21.344843
10
27.927050
20
-22.098191
10
28.896670
20
-22.829326
10
30.018305
20
-23.366440
10
31.236636
20
-23.773999
10
32.526585
20
-24.077812
10
33.876151
20
-24.287101
10
35.277220
20
-24.406139
10
36.723413
20
-24.436975
10
38.209255
20
-24.380494
10
40.218754
20
-20.899939
10
39.524748
20
-19.584921
10
38.774946
20
-18.347900
10
37.971322
20
-17.194056
10
37.115289
20
-16.129943
10
36.207206
20
-15.164721
10
35.245083
20
-14.313395
10
34.219112
20
-13.610587
10
33.101120
20
-13.136439
10
31.972672
20
-12.688606
10
30.844225
20
-12.240773
10
29.715778
20
-11.792940
10
28.587331
20
-11.345107
0
ENDSEC
0
EOF
