0
SECTION
2
HEADER
9
$ACADVER
1
AC1015
0
ENDSEC
0
SECTION
2
ENTITIES
0
LWPOLYLINE
5
64
100
AcDbEntity
8
0
100
AcDbPolyline
90
364
70
1
10
27.341141
20
-3.494008
10
28.232700
20
-3.607943
10
29.124259
20
-3.721878
10
30.015818
20
-3.835813
10
30.907377
20
-3.949748
10
31.807056
20
-3.999628
10
32.726279
20
-3.887365
10
33.654816
20
-3.677651
10
34.588462
20
-3.387713
10
35.524158
20
-3.025681
10
36.459256
20
-2.596376
10
37.391304
20
-2.103006
10
38.317955
20
-1.547883
10
38.317955
20
1.547883
10
37.391304
20
2.103006
10
36.459256
20
2.596376
10
35.524158
20
3.025681
10
34.588462
20
3.387713
10
33.654816
20
3.677651
10
32.726279
20
3.887365
10
31.807056
20
3.999628
10
30.907377
20
3.949748
10
30.015818
20
3.835813
10
29.124259
20
3.721878
10
28.232700
20
3.607943
10
27.341141
20
3.494008
10
26.149510
20
8.714884
10
27.002212
20
8.999065
10
27.854913
20
9.283246
10
28.707614
20
9.567427
10
29.560316
20
9.851608
10
30.392541
20
10.197025
10
31.172023
20
10.697006
10
31.917615
20
11.288828
10
32.633001
20
11.955147
10
33.318954
20
12.687310
10
33.975180
20
13.479825
10
34.600861
20
14.328736
10
35.194886
20
15.230944
10
33.851684
20
18.020132
10
32.775940
20
18.118222
10
31.722130
20
18.158332
10
30.693367
20
18.139399
10
29.693254
20
18.059595
10
28.726269
20
17.915727
10
27.798694
20
17.701795
10
26.921794
20
17.404104
10
26.132853
20
16.968808
10
25.379021
20
16.479323
10
24.625189
20
15.989839
10
23.871356
20
15.500354
10
23.117524
20
15.010869
10
19.778648
20
19.197687
10
20.423604
20
19.823698
10
21.068560
20
20.449710
10
21.713516
20
21.075721
10
22.358472
20
21.701733
10
22.958410
20
22.374031
10
23.443766
20
23.162703
10
23.858738
20
24.019417
10
24.214174
20
24.930144
10
24.514523
20
25.887424
10
24.761903
20
26.886180
10
24.957293
20
27.922496
10
25.101038
20
28.993095
10
22.680671
20
30.923273
10
21.668900
20
30.544901
10
20.702046
20
30.123808
10
19.783378
20
29.660387
10
18.916933
20
29.154553
10
18.108131
20
28.605373
10
17.365237
20
28.010168
10
16.704340
20
27.361485
10
16.182397
20
26.626988
10
15.715597
20
25.858902
10
15.248797
20
25.090816
10
14.781997
20
24.322729
10
14.315197
20
23.554643
10
9.490382
20
25.878152
10
9.799851
20
26.722005
10
10.109320
20
27.565857
10
10.418789
20
28.409710
10
10.728258
20
29.253563
10
10.977084
20
30.119586
10
11.072183
20
31.040743
10
11.074346
20
31.992665
10
10.999433
20
32.967420
10
10.854690
20
33.960216
10
10.644227
20
34.967399
10
10.370627
20
35.985863
10
10.035621
20
37.012808
10
7.017473
20
37.701680
10
6.270069
20
36.921788
10
5.581668
20
36.122895
10
4.955048
20
35.306771
10
4.393881
20
34.475094
10
3.903456
20
33.629374
10
3.492382
20
32.770783
10
3.178387
20
31.899588
10
3.026819
20
31.011366
10
2.939507
20
30.116808
10
2.852195
20
29.222249
10
2.764883
20
28.327690
10
2.677571
20
27.433132
10
-2.677571
20
27.433132
10
-2.764883
20
28.327690
10
-2.852195
20
29.222249
10
-2.939507
20
30.116808
10
-3.026819
20
31.011366
10
-3.178387
20
31.899588
10
-3.492382
20
32.770783
10
-3.903456
20
33.629374
10
-4.393881
20
34.475094
10
-4.955048
20
35.306771
10
-5.581668
20
36.122895
10
-6.270069
20
36.921788
10
-7.017473
20
37.701680
10
-10.035621
20
37.012808
10
-10.370627
20
35.985863
10
-10.644227
20
34.967399
10
-10.854690
20
33.960216
10
-10.999433
20
32.967420
10
-11.074346
20
31.992665
10
-11.072183
20
31.040743
10
-10.977084
20
30.119586
10
-10.728258
20
29.253563
10
-10.418789
20
28.409710
10
-10.109320
20
27.565857
10
-9.799851
20
26.722005
10
-9.490382
20
25.878152
10
-14.315197
20
23.554643
10
-14.781997
20
24.322729
10
-15.248797
20
25.090816
10
-15.715597
20
25.858902
10
-16.182397
20
26.626988
10
-16.704340
20
27.361485
10
-17.365237
20
28.010168
10
-18.108131
20
28.605373
10
-18.916933
20
29.154553
10
-19.783378
20
29.660387
10
-20.702046
20
30.123808
10
-21.668900
20
30.544901
10
-22.680671
20
30.923273
10
-25.101038
20
28.993095
10
-24.957293
20
27.922496
10
-24.761903
20
26.886180
10
-24.514523
20
25.887424
10
-24.214174
20
24.930144
10
-23.858738
20
24.019417
10
-23.443766
20
23.162703
10
-22.958410
20
22.374031
10
-22.358472
20
21.701733
10
-21.713516
20
21.075721
10
-21.068560
20
20.449710
10
-20.423604
20
19.823698
10
-19.778648
20
19.197687
10
-23.117524
20
15.010869
10
-23.871356
20
15.500354
10
-24.625189
20
15.989839
10
-25.379021
20
16.479323
10
-26.132853
20
16.968808
10
-26.921794
20
17.404104
10
-27.798694
20
17.701795
10
-28.726269
20
17.915727
10
-29.693254
20
18.059595
10
-30.693367
20
18.139399
10
-31.722130
20
18.158332
10
-32.775940
20
18.118222
10
-33.851684
20
18.020132
10
-35.194886
20
15.230944
10
-34.600861
20
14.328736
10
-33.975180
20
13.479825
10
-33.318954
20
12.687310
10
-32.633001
20
11.955147
10
-31.917615
20
11.288828
10
-31.172023
20
10.697006
10
-30.392541
20
10.197025
10
-29.560316
20
9.851608
10
-28.707614
20
9.567427
10
-27.854913
20
9.283246
10
-27.002212
20
8.999065
10
-26.149510
20
8.714884
10
-27.341141
20
3.494008
10
-28.232700
20
3.607943
10
-29.124259
20
3.721878
10
-30.015818
20
3.835813
10
-30.907377
20
3.949748
10
-31.807056
20
3.999628
10
-32.726279
20
3.887365
10
-33.654816
20
3.677651
10
-34.588462
20
3.387713
10
-35.524158
20
3.025681
10
-36.459256
20
2.596376
10
-37.391304
20
2.103006
10
-38.317955
20
1.547883
10
-38.317955
20
-1.547883
10
-37.391304
20
-2.103006
10
-36.459256
20
-2.596376
10
-35.524158
20
-3.025681
10
-34.588462
20
-3.387713
10
-33.654816
20
-3.677651
10
-32.726279
20
-3.887365
10
-31.807056
20
-3.999628
10
-30.907377
20
-3.949748
10
-30.015818
20
-3.835813
10
-29.124259
20
-3.721878
10
-28.232700
20
-3.607943
10
-27.341141
20
-3.494008
10
-26.149510
20
-8.714884
10
-27.002212
20
-8.999065
10
-27.854913
20
-9.283246
10
-28.707614
20
-9.567427
10
-29.560316
20
-9.851608
10
-30.392541
20
-10.197025
10
-31.172023
20
-10.697006
10
-31.917615
20
-11.288828
10
-32.633001
20
-11.955147
10
-33.318954
20
-12.687310
10
-33.975180
20
-13.479825
10
-34.600861
20
-14.328736
10
-35.194886
20
-15.230944
10
-33.851684
20
-18.020132
10
-32.775940
20
-18.118222
10
-31.722130
20
-18.158332
10
-30.693367
20
-18.139399
10
-29.693254
20
-18.059595
10
-28.726269
20
-17.915727
10
-27.798694
20
-17.701795
10
-26.921794
20
-17.404104
10
-26.132853
20
-16.968808
10
-25.379021
20
-16.479323
10
-24.625189
20
-15.989839
10
-23.871356
20
-15.500354
10
-23.117524
20
-15.010869
10
-19.778648
20
-19.197687
10
-20.423604
20
-19.823698
10
-21.068560
20
-20.449710
10
-21.713516
20
-21.075721
10
-22.358472
20
-21.701733
10
-22.958410
20
-22.374031
10
-23.443766
20
-23.162703
10
-23.858738
20
-24.019417
10
-24.214174
20
-24.930144
10
-24.514523
20
-25.887424
10
-24.761903
20
-26.886180
10
-24.957293
20
-27.922496
10
-25.101038
20
-28.993095
10
-22.680671
20
-30.923273
10
-21.668900
20
-30.544901
10
-20.702046
20
-30.123808
10
-19.783378
20
-29.660387
10
-18.916933
20
-29.154553
10
-18.108131
20
-28.605373
10
-17.365237
20
-28.010168
10
-16.704340
20
-27.361485
10
-16.182397
20
-26.626988
10
-15.715597
20
-25.858902
10
-15.248797
20
-25.090816
10
-14.781997
20
-24.322729
10
-14.315197
20
-23.554643
10
-9.490382
20
-25.878152
10
-9.799851
20
-26.722005
10
-10.109320
20
-27.565857
10
-10.418789
20
-28.409710
10
-10.728258
20
-29.253563
10
-10.977084
20
-30.119586
10
-11.072183
20
-31.040743
10
-11.074346
20
-31.992665
10
-10.999433
20
-32.967420
10
-10.854690
20
-33.960216
10
-10.644227
20
-34.967399
10
-10.370627
20
-35.985863
10
-10.035621
20
-37.012808
10
-7.017473
20
-37.701680
10
-6.270069
20
-36.921788
10
-5.581668
20
-36.122895
10
-4.955048
20
-35.306771
10
-4.393881
20
-34.475094
10
-3.903456
20
-33.629374
10
-3.492382
20
-32.770783
10
-3.178387
20
-31.899588
10
-3.026819
20
-31.011366
10
-2.939507
20
-30.116808
10
-2.852195
20
-29.222249
10
-2.764883
20
-28.327690
10
-2.677571
20
-27.433132
10
2.677571
20
-27.433132
10
2.764883
20
-28.327690
10
2.852195
20
-29.222249
10
2.939507
20
-30.116808
10
3.026819
20
-31.011366
10
3.178387
20
-31.899588
10
3.492382
20
-32.770783
10
3.903456
20
-33.629374
10
4.393881
20
-34.475094
10
4.955048
20
-35.306771
10
5.581668
20
-36.122895
10
6.270069
20
-36.921788
10
7.017473
20
-37.701680
10
10.035621
20
-37.012808
10
10.370627
20
-35.985863
10
10.644227
20
-34.967399
10
10.854690
20
-33.960216
10
10.999433
20
-32.967420
10
11.074346
20
-31.992665
10
11.072183
20
-31.040743
10
10.977084
20
-30.119586
10
10.728258
20
-29.253563
10
10.418789
20
-28.409710
10
10.109320
20
-27.565857
10
9.799851
20
-26.722005
10
9.490382
20
-25.878152
10
14.315197
20
-23.554643
10
14.781997
20
-24.322729
10
15.248797
20
-25.090816
10
15.715597
20
-25.858902
10
16.182397
20
-26.626988
10
16.704340
20
-27.361485
10
17.365237
20
-28.010168
10
18.108131
20
-28.605373
10
18.916933
20
-29.154553
10
19.783378
20
-29.660387
10
20.702046
20
-30.123808
10
21.668900
20
-30.544901
10
22.680671
20
-30.923273
10
25.101038
20
-28.993095
10
24.957293
20
-27.922496
10
24.761903
20
-26.886180
10
24.514523
20
-25.887424
10
24.214174
20
-24.930144
10
23.858738
20
-24.019417
10
23.443766
20
-23.162703
10
22.958410
20
-22.374031
10
22.358472
20
-21.701733
10
21.713516
20
-21.075721
10
21.068560
20
-20.449710
10
20.423604
20
-19.823698
10
19.778648
20
-19.197687
10
23.117524
20
-15.010869
10
23.871356
20
-15.500354
10
24.625189
20
-15.989839
10
25.379021
20
-16.479323
10
26.132853
20
-16.968808
10
26.921794
20
-17.404104
10
27.798694
20
-17.701795
10
28.726269
20
-17.915727
10
29.693254
20
-18.059595
10
30.693367
20
-18.139399
10
31.722130
20
-18.158332
10
32.775940
20
-18.118222
10
33.851684
20
-18.020132
10
35.194886
20
-15.230944
10
34.600861
20
-14.328736
10
33.975180
20
-13.479825
10
33.318954
20
-12.687310
10
32.633001
20
-11.955147
10
31.917615
20
-11.288828
10
31.172023
20
-10.697006
10
30.392541
20
-10.197025
10
29.560316
20
-9.851608
10
28.707614
20
-9.567427
10
27.854913
20
-9.283246
10
27.002212
20
-8.999065
10
26.149510
20
-8.714884
0
ENDSEC
0
EOF
