0
SECTION
2
HEADER
9
$ACADVER
1
AC1015
0
ENDSEC
0
SECTION
2
ENTITIES
0
LWPOLYLINE
5
64
100
AcDbEntity
8
0
100
AcDbPolyline
90
728
70
1
10
30.482522
20
-2.168033
10
30.930794
20
-2.199916
10
31.379066
20
-2.231799
10
31.830077
20
-2.224841
10
32.284417
20
-2.168201
10
32.740475
20
-2.081071
10
33.197623
20
-1.968813
10
33.655408
20
-1.834284
10
34.113453
20
-1.679303
10
34.571417
20
-1.505140
10
35.028982
20
-1.312737
10
35.485844
20
-1.102824
10
35.941708
20
-0.875982
10
35.941708
20
0.875982
10
35.485844
20
1.102824
10
35.028982
20
1.312737
10
34.571417
20
1.505140
10
34.113453
20
1.679303
10
33.655408
20
1.834284
10
33.197623
20
1.968813
10
32.740475
20
2.081071
10
32.284417
20
2.168201
10
31.830077
20
2.224841
10
31.379066
20
2.231799
10
30.930794
20
2.199916
10
30.482522
20
2.168033
10
30.200694
20
4.669323
10
30.644822
20
4.737989
10
31.088950
20
4.806656
10
31.527105
20
4.913799
10
31.957450
20
5.070119
10
32.382685
20
5.256547
10
32.803391
20
5.467715
10
33.219763
20
5.700738
10
33.631838
20
5.953758
10
34.039565
20
6.225461
10
34.442844
20
6.514857
10
34.841541
20
6.821169
10
35.235498
20
7.143763
10
34.845650
20
8.851802
10
34.350738
20
8.971517
10
33.858621
20
9.074506
10
33.369715
20
9.160267
10
32.884478
20
9.228157
10
32.403430
20
9.277328
10
31.927187
20
9.306617
10
31.456521
20
9.314335
10
30.992509
20
9.297799
10
30.536957
20
9.251918
10
30.095706
20
9.158342
10
29.665767
20
9.027509
10
29.235828
20
8.896675
10
28.404477
20
11.272540
10
28.822190
20
11.438313
10
29.239903
20
11.604085
10
29.643231
20
11.806040
10
30.028002
20
12.054202
10
30.401092
20
12.330580
10
30.764260
20
12.630070
10
31.118341
20
12.949902
10
31.463782
20
13.288273
10
31.800827
20
13.643892
10
32.129598
20
14.015770
10
32.450138
20
14.403120
10
32.762434
20
14.805290
10
32.002285
20
16.383755
10
31.493143
20
16.390341
10
30.990447
20
16.381241
10
30.494715
20
16.356060
10
30.006537
20
16.314272
10
29.526609
20
16.255167
10
29.055789
20
16.177748
10
28.595206
20
16.080540
10
28.146508
20
15.961166
10
27.712587
20
15.815066
10
27.303221
20
15.625648
10
26.913175
20
15.402425
10
26.523129
20
15.179201
10
25.183942
20
17.310505
10
25.554294
20
17.565071
10
25.924646
20
17.819637
10
26.272922
20
18.106278
10
26.592825
20
18.433837
10
26.895061
20
18.786306
10
27.182481
20
19.159099
10
27.456515
20
19.549703
10
27.718000
20
19.956458
10
27.967462
20
20.378160
10
28.205239
20
20.813874
10
28.431549
20
21.262839
10
28.646525
20
21.724418
10
27.554193
20
23.094159
10
27.056350
20
22.987284
10
26.568283
20
22.866553
10
26.090583
20
22.731692
10
25.623944
20
22.582322
10
25.169200
20
22.417905
10
24.727412
20
22.237659
10
24.300008
20
22.040399
10
23.889122
20
21.824173
10
23.498591
20
21.585180
10
23.141638
20
21.309419
10
22.811043
20
21.004998
10
22.480448
20
20.700578
10
20.700578
20
22.480448
10
21.004998
20
22.811043
10
21.309419
20
23.141638
10
21.585180
20
23.498591
10
21.824173
20
23.889122
10
22.040399
20
24.300008
10
22.237659
20
24.727412
10
22.417905
20
25.169200
10
22.582322
20
25.623944
10
22.731692
20
26.090583
10
22.866553
20
26.568283
10
22.987284
20
27.056350
10
23.094159
20
27.554193
10
21.724418
20
28.646525
10
21.262839
20
28.431549
10
20.813874
20
28.205239
10
20.378160
20
27.967462
10
19.956458
20
27.718000
10
19.549703
20
27.456515
10
19.159099
20
27.182481
10
18.786306
20
26.895061
10
18.433837
20
26.592825
10
18.106278
20
26.272922
10
17.819637
20
25.924646
10
17.565071
20
25.554294
10
17.310505
20
25.183942
10
15.179201
20
26.523129
10
15.402425
20
26.913175
10
15.625648
20
27.303221
10
15.815066
20
27.712587
10
15.961166
20
28.146508
10
16.080540
20
28.595206
10
16.177748
20
29.055789
10
16.255167
20
29.526609
10
16.314272
20
30.006537
10
16.356060
20
30.494715
10
16.381241
20
30.990447
10
16.390341
20
31.493143
10
16.383755
20
32.002285
10
14.805290
20
32.762434
10
14.403120
20
32.450138
10
14.015770
20
32.129598
10
13.643892
20
31.800827
10
13.288273
20
31.463782
10
12.949902
20
31.118341
10
12.630070
20
30.764260
10
12.330580
20
30.401092
10
12.054202
20
30.028002
10
11.806040
20
29.643231
10
11.604085
20
29.239903
10
11.438313
20
28.822190
10
11.272540
20
28.404477
10
8.896675
20
29.235828
10
9.027509
20
29.665767
10
9.158342
20
30.095706
10
9.251918
20
30.536957
10
9.297799
20
30.992509
10
9.314335
20
31.456521
10
9.306617
20
31.927187
10
9.277328
20
32.403430
10
9.228157
20
32.884478
10
9.160267
20
33.369715
10
9.074506
20
33.858621
10
8.971517
20
34.350738
10
8.851802
20
34.845650
10
7.143763
20
35.235498
10
6.821169
20
34.841541
10
6.514857
20
34.442844
10
6.225461
20
34.039565
10
5.953758
20
33.631838
10
5.700738
20
33.219763
10
5.467715
20
32.803391
10
5.256547
20
32.382685
10
5.070119
20
31.957450
10
4.913799
20
31.527105
10
4.806656
20
31.088950
10
4.737989
20
30.644822
10
4.669323
20
30.200694
10
2.168033
20
30.482522
10
2.199916
20
30.930794
10
2.231799
20
31.379066
10
2.224841
20
31.830077
10
2.168201
20
32.284417
10
2.081071
20
32.740475
10
1.968813
20
33.197623
10
1.834284
20
33.655408
10
1.679303
20
34.113453
10
1.505140
20
34.571417
10
1.312737
20
35.028982
10
1.102824
20
35.485844
10
0.875982
20
35.941708
10
-0.875982
20
35.941708
10
-1.102824
20
35.485844
10
-1.312737
20
35.028982
10
-1.505140
20
34.571417
10
-1.679303
20
34.113453
10
-1.834284
20
33.655408
10
-1.968813
20
33.197623
10
-2.081071
20
32.740475
10
-2.168201
20
32.284417
10
-2.224841
20
31.830077
10
-2.231799
20
31.379066
10
-2.199916
20
30.930794
10
-2.168033
20
30.482522
10
-4.669323
20
30.200694
10
-4.737989
20
30.644822
10
-4.806656
20
31.088950
10
-4.913799
20
31.527105
10
-5.070119
20
31.957450
10
-5.256547
20
32.382685
10
-5.467715
20
32.803391
10
-5.700738
20
33.219763
10
-5.953758
20
33.631838
10
-6.225461
20
34.039565
10
-6.514857
20
34.442844
10
-6.821169
20
34.841541
10
-7.143763
20
35.235498
10
-8.851802
20
34.845650
10
-8.971517
20
34.350738
10
-9.074506
20
33.858621
10
-9.160267
20
33.369715
10
-9.228157
20
32.884478
10
-9.277328
20
32.403430
10
-9.306617
20
31.927187
10
-9.314335
20
31.456521
10
-9.297799
20
30.992509
10
-9.251918
20
30.536957
10
-9.158342
20
30.095706
10
-9.027509
20
29.665767
10
-8.896675
20
29.235828
10
-11.272540
20
28.404477
10
-11.438313
20
28.822190
10
-11.604085
20
29.239903
10
-11.806040
20
29.643231
10
-12.054202
20
30.028002
10
-12.330580
20
30.401092
10
-12.630070
20
30.764260
10
-12.949902
20
31.118341
10
-13.288273
20
31.463782
10
-13.643892
20
31.800827
10
-14.015770
20
32.129598
10
-14.403120
20
32.450138
10
-14.805290
20
32.762434
10
-16.383755
20
32.002285
10
-16.390341
20
31.493143
10
-16.381241
20
30.990447
10
-16.356060
20
30.494715
10
-16.314272
20
30.006537
10
-16.255167
20
29.526609
10
-16.177748
20
29.055789
10
-16.080540
20
28.595206
10
-15.961166
20
28.146508
10
-15.815066
20
27.712587
10
-15.625648
20
27.303221
10
-15.402425
20
26.913175
10
-15.179201
20
26.523129
10
-17.310505
20
25.183942
10
-17.565071
20
25.554294
10
-17.819637
20
25.924646
10
-18.106278
20
26.272922
10
-18.433837
20
26.592825
10
-18.786306
20
26.895061
10
-19.159099
20
27.182481
10
-19.549703
20
27.456515
10
-19.956458
20
27.718000
10
-20.378160
20
27.967462
10
-20.813874
20
28.205239
10
-21.262839
20
28.431549
10
-21.724418
20
28.646525
10
-23.094159
20
27.554193
10
-22.987284
20
27.056350
10
-22.866553
20
26.568283
10
-22.731692
20
26.090583
10
-22.582322
20
25.623944
10
-22.417905
20
25.169200
10
-22.237659
20
24.727412
10
-22.040399
20
24.300008
10
-21.824173
20
23.889122
10
-21.585180
20
23.498591
10
-21.309419
20
23.141638
10
-21.004998
20
22.811043
10
-20.700578
20
22.480448
10
-22.480448
20
20.700578
10
-22.811043
20
21.004998
10
-23.141638
20
21.309419
10
-23.498591
20
21.585180
10
-23.889122
20
21.824173
10
-24.300008
20
22.040399
10
-24.727412
20
22.237659
10
-25.169200
20
22.417905
10
-25.623944
20
22.582322
10
-26.090583
20
22.731692
10
-26.568283
20
22.866553
10
-27.056350
20
22.987284
10
-27.554193
20
23.094159
10
-28.646525
20
21.724418
10
-28.431549
20
21.262839
10
-28.205239
20
20.813874
10
-27.967462
20
20.378160
10
-27.718000
20
19.956458
10
-27.456515
20
19.549703
10
-27.182481
20
19.159099
10
-26.895061
20
18.786306
10
-26.592825
20
18.433837
10
-26.272922
20
18.106278
10
-25.924646
20
17.819637
10
-25.554294
20
17.565071
10
-25.183942
20
17.310505
10
-26.523129
20
15.179201
10
-26.913175
20
15.402425
10
-27.303221
20
15.625648
10
-27.712587
20
15.815066
10
-28.146508
20
15.961166
10
-28.595206
20
16.080540
10
-29.055789
20
16.177748
10
-29.526609
20
16.255167
10
-30.006537
20
16.314272
10
-30.494715
20
16.356060
10
-30.990447
20
16.381241
10
-31.493143
20
16.390341
10
-32.002285
20
16.383755
10
-32.762434
20
14.805290
10
-32.450138
20
14.403120
10
-32.129598
20
14.015770
10
-31.800827
20
13.643892
10
-31.463782
20
13.288273
10
-31.118341
20
12.949902
10
-30.764260
20
12.630070
10
-30.401092
20
12.330580
10
-30.028002
20
12.054202
10
-29.643231
20
11.806040
10
-29.239903
20
11.604085
10
-28.822190
20
11.438313
10
-28.404477
20
11.272540
10
-29.235828
20
8.896675
10
-29.665767
20
9.027509
10
-30.095706
20
9.158342
10
-30.536957
20
9.251918
10
-30.992509
20
9.297799
10
-31.456521
20
9.314335
10
-31.927187
20
9.306617
10
-32.403430
20
9.277328
10
-32.884478
20
9.228157
10
-33.369715
20
9.160267
10
-33.858621
20
9.074506
10
-34.350738
20
8.971517
10
-34.845650
20
8.851802
10
-35.235498
20
7.143763
10
-34.841541
20
6.821169
10
-34.442844
20
6.514857
10
-34.039565
20
6.225461
10
-33.631838
20
5.953758
10
-33.219763
20
5.700738
10
-32.803391
20
5.467715
10
-32.382685
20
5.256547
10
-31.957450
20
5.070119
10
-31.527105
20
4.913799
10
-31.088950
20
4.806656
10
-30.644822
20
4.737989
10
-30.200694
20
4.669323
10
-30.482522
20
2.168033
10
-30.930794
20
2.199916
10
-31.379066
20
2.231799
10
-31.830077
20
2.224841
10
-32.284417
20
2.168201
10
-32.740475
20
2.081071
10
-33.197623
20
1.968813
10
-33.655408
20
1.834284
10
-34.113453
20
1.679303
10
-34.571417
20
1.505140
10
-35.028982
20
1.312737
10
-35.485844
20
1.102824
10
-35.941708
20
0.875982
10
-35.941708
20
-0.875982
10
-35.485844
20
-1.102824
10
-35.028982
20
-1.312737
10
-34.571417
20
-1.505140
10
-34.113453
20
-1.679303
10
-33.655408
20
-1.834284
10
-33.197623
20
-1.968813
10
-32.740475
20
-2.081071
10
-32.284417
20
-2.168201
10
-31.830077
20
-2.224841
10
-31.379066
20
-2.231799
10
-30.930794
20
-2.199916
10
-30.482522
20
-2.168033
10
-30.200694
20
-4.669323
10
-30.644822
20
-4.737989
10
-31.088950
20
-4.806656
10
-31.527105
20
-4.913799
10
-31.957450
20
-5.070119
10
-32.382685
20
-5.256547
10
-32.803391
20
-5.467715
10
-33.219763
20
-5.700738
10
-33.631838
20
-5.953758
10
-34.039565
20
-6.225461
10
-34.442844
20
-6.514857
10
-34.841541
20
-6.821169
10
-35.235498
20
-7.143763
10
-34.845650
20
-8.851802
10
-34.350738
20
-8.971517
10
-33.858621
20
-9.074506
10
-33.369715
20
-9.160267
10
-32.884478
20
-9.228157
10
-32.403430
20
-9.277328
10
-31.927187
20
-9.306617
10
-31.456521
20
-9.314335
10
-30.992509
20
-9.297799
10
-30.536957
20
-9.251918
10
-30.095706
20
-9.158342
10
-29.665767
20
-9.027509
10
-29.235828
20
-8.896675
10
-28.404477
20
-11.272540
10
-28.822190
20
-11.438313
10
-29.239903
20
-11.604085
10
-29.643231
20
-11.806040
10
-30.028002
20
-12.054202
10
-30.401092
20
-12.330580
10
-30.764260
20
-12.630070
10
-31.118341
20
-12.949902
10
-31.463782
20
-13.288273
10
-31.800827
20
-13.643892
10
-32.129598
20
-14.015770
10
-32.450138
20
-14.403120
10
-32.762434
20
-14.805290
10
-32.002285
20
-16.383755
10
-31.493143
20
-16.390341
10
-30.990447
20
-16.381241
10
-30.494715
20
-16.356060
10
-30.006537
20
-16.314272
10
-29.526609
20
-16.255167
10
-29.055789
20
-16.177748
10
-28.595206
20
-16.080540
10
-28.146508
20
-15.961166
10
-27.712587
20
-15.815066
10
-27.303221
20
-15.625648
10
-26.913175
20
-15.402425
10
-26.523129
20
-15.179201
10
-25.183942
20
-17.310505
10
-25.554294
20
-17.565071
10
-25.924646
20
-17.819637
10
-26.272922
20
-18.106278
10
-26.592825
20
-18.433837
10
-26.895061
20
-18.786306
10
-27.182481
20
-19.159099
10
-27.456515
20
-19.549703
10
-27.718000
20
-19.956458
10
-27.967462
20
-20.378160
10
-28.205239
20
-20.813874
10
-28.431549
20
-21.262839
10
-28.646525
20
-21.724418
10
-27.554193
20
-23.094159
10
-27.056350
20
-22.987284
10
-26.568283
20
-22.866553
10
-26.090583
20
-22.731692
10
-25.623944
20
-22.582322
10
-25.169200
20
-22.417905
10
-24.727412
20
-22.237659
10
-24.300008
20
-22.040399
10
-23.889122
20
-21.824173
10
-23.498591
20
-21.585180
10
-23.141638
20
-21.309419
10
-22.811043
20
-21.004998
10
-22.480448
20
-20.700578
10
-20.700578
20
-22.480448
10
-21.004998
20
-22.811043
10
-21.309419
20
-23.141638
10
-21.585180
20
-23.498591
10
-21.824173
20
-23.889122
10
-22.040399
20
-24.300008
10
-22.237659
20
-24.727412
10
-22.417905
20
-25.169200
10
-22.582322
20
-25.623944
10
-22.731692
20
-26.090583
10
-22.866553
20
-26.568283
10
-22.987284
20
-27.056350
10
-23.094159
20
-27.554193
10
-21.724418
20
-28.646525
10
-21.262839
20
-28.431549
10
-20.813874
20
-28.205239
10
-20.378160
20
-27.967462
10
-19.956458
20
-27.718000
10
-19.549703
20
-27.456515
10
-19.159099
20
-27.182481
10
-18.786306
20
-26.895061
10
-18.433837
20
-26.592825
10
-18.106278
20
-26.272922
10
-17.819637
20
-25.924646
10
-17.565071
20
-25.554294
10
-17.310505
20
-25.183942
10
-15.179201
20
-26.523129
10
-15.402425
20
-26.913175
10
-15.625648
20
-27.303221
10
-15.815066
20
-27.712587
10
-15.961166
20
-28.146508
10
-16.080540
20
-28.595206
10
-16.177748
20
-29.055789
10
-16.255167
20
-29.526609
10
-16.314272
20
-30.006537
10
-16.356060
20
-30.494715
10
-16.381241
20
-30.990447
10
-16.390341
20
-31.493143
10
-16.383755
20
-32.002285
10
-14.805290
20
-32.762434
10
-14.403120
20
-32.450138
10
-14.015770
20
-32.129598
10
-13.643892
20
-31.800827
10
-13.288273
20
-31.463782
10
-12.949902
20
-31.118341
10
-12.630070
20
-30.764260
10
-12.330580
20
-30.401092
10
-12.054202
20
-30.028002
10
-11.806040
20
-29.643231
10
-11.604085
20
-29.239903
10
-11.438313
20
-28.822190
10
-11.272540
20
-28.404477
10
-8.896675
20
-29.235828
10
-9.027509
20
-29.665767
10
-9.158342
20
-30.095706
10
-9.251918
20
-30.536957
10
-9.297799
20
-30.992509
10
-9.314335
20
-31.456521
10
-9.306617
20
-31.927187
10
-9.277328
20
-32.403430
10
-9.228157
20
-32.884478
10
-9.160267
20
-33.369715
10
-9.074506
20
-33.858621
10
-8.971517
20
-34.350738
10
-8.851802
20
-34.845650
10
-7.143763
20
-35.235498
10
-6.821169
20
-34.841541
10
-6.514857
20
-34.442844
10
-6.225461
20
-34.039565
10
-5.953758
20
-33.631838
10
-5.700738
20
-33.219763
10
-5.467715
20
-32.803391
10
-5.256547
20
-32.382685
10
-5.070119
20
-31.957450
10
-4.913799
20
-31.527105
10
-4.806656
20
-31.088950
10
-4.737989
20
-30.644822
10
-4.669323
20
-30.200694
10
-2.168033
20
-30.482522
10
-2.199916
20
-30.930794
10
-2.231799
20
-31.379066
10
-2.224841
20
-31.830077
10
-2.168201
20
-32.284417
10
-2.081071
20
-32.740475
10
-1.968813
20
-33.197623
10
-1.834284
20
-33.655408
10
-1.679303
20
-34.113453
10
-1.505140
20
-34.571417
10
-1.312737
20
-35.028982
10
-1.102824
20
-35.485844
10
-0.875982
20
-35.941708
10
0.875982
20
-35.941708
10
1.102824
20
-35.485844
10
1.312737
20
-35.028982
10
1.505140
20
-34.571417
10
1.679303
20
-34.113453
10
1.834284
20
-33.655408
10
1.968813
20
-33.197623
10
2.081071
20
-32.740475
10
2.168201
20
-32.284417
10
2.224841
20
-31.830077
10
2.231799
20
-31.379066
10
2.199916
20
-30.930794
10
2.168033
20
-30.482522
10
4.669323
20
-30.200694
10
4.737989
20
-30.644822
10
4.806656
20
-31.088950
10
4.913799
20
-31.527105
10
5.070119
20
-31.957450
10
5.256547
20
-32.382685
10
5.467715
20
-32.803391
10
5.700738
20
-33.219763
10
5.953758
20
-33.631838
10
6.225461
20
-34.039565
10
6.514857
20
-34.442844
10
6.821169
20
-34.841541
10
7.143763
20
-35.235498
10
8.851802
20
-34.845650
10
8.971517
20
-34.350738
10
9.074506
20
-33.858621
10
9.160267
20
-33.369715
10
9.228157
20
-32.884478
10
9.277328
20
-32.403430
10
9.306617
20
-31.927187
10
9.314335
20
-31.456521
10
9.297799
20
-30.992509
10
9.251918
20
-30.536957
10
9.158342
20
-30.095706
10
9.027509
20
-29.665767
10
8.896675
20
-29.235828
10
11.272540
20
-28.404477
10
11.438313
20
-28.822190
10
11.604085
20
-29.239903
10
11.806040
20
-29.643231
10
12.054202
20
-30.028002
10
12.330580
20
-30.401092
10
12.630070
20
-30.764260
10
12.949902
20
-31.118341
10
13.288273
20
-31.463782
10
13.643892
20
-31.800827
10
14.015770
20
-32.129598
10
14.403120
20
-32.450138
10
14.805290
20
-32.762434
10
16.383755
20
-32.002285
10
16.390341
20
-31.493143
10
16.381241
20
-30.990447
10
16.356060
20
-30.494715
10
16.314272
20
-30.006537
10
16.255167
20
-29.526609
10
16.177748
20
-29.055789
10
16.080540
20
-28.595206
10
15.961166
20
-28.146508
10
15.815066
20
-27.712587
10
15.625648
20
-27.303221
10
15.402425
20
-26.913175
10
15.179201
20
-26.523129
10
17.310505
20
-25.183942
10
17.565071
20
-25.554294
10
17.819637
20
-25.924646
10
18.106278
20
-26.272922
10
18.433837
20
-26.592825
10
18.786306
20
-26.895061
10
19.159099
20
-27.182481
10
19.549703
20
-27.456515
10
19.956458
20
-27.718000
10
20.378160
20
-27.967462
10
20.813874
20
-28.205239
10
21.262839
20
-28.431549
10
21.724418
20
-28.646525
10
23.094159
20
-27.554193
10
22.987284
20
-27.056350
10
22.866553
20
-26.568283
10
22.731692
20
-26.090583
10
22.582322
20
-25.623944
10
22.417905
20
-25.169200
10
22.237659
20
-24.727412
10
22.040399
20
-24.300008
10
21.824173
20
-23.889122
10
21.585180
20
-23.498591
10
21.309419
20
-23.141638
10
21.004998
20
-22.811043
10
20.700578
20
-22.480448
10
22.480448
20
-20.700578
10
22.811043
20
-21.004998
10
23.141638
20
-21.309419
10
23.498591
20
-21.585180
10
23.889122
20
-21.824173
10
24.300008
20
-22.040399
10
24.727412
20
-22.237659
10
25.169200
20
-22.417905
10
25.623944
20
-22.582322
10
26.090583
20
-22.731692
10
26.568283
20
-22.866553
10
27.056350
20
-22.987284
10
27.554193
20
-23.094159
10
28.646525
20
-21.724418
10
28.431549
20
-21.262839
10
28.205239
20
-20.813874
10
27.967462
20
-20.378160
10
27.718000
20
-19.956458
10
27.456515
20
-19.549703
10
27.182481
20
-19.159099
10
26.895061
20
-18.786306
10
26.592825
20
-18.433837
10
26.272922
20
-18.106278
10
25.924646
20
-17.819637
10
25.554294
20
-17.565071
10
25.183942
20
-17.310505
10
26.523129
20
-15.179201
10
26.913175
20
-15.402425
10
27.303221
20
-15.625648
10
27.712587
20
-15.815066
10
28.146508
20
-15.961166
10
28.595206
20
-16.080540
10
29.055789
20
-16.177748
10
29.526609
20
-16.255167
10
30.006537
20
-16.314272
10
30.494715
20
-16.356060
10
30.990447
20
-16.381241
10
31.493143
20
-16.390341
10
32.002285
20
-16.383755
10
32.762434
20
-14.805290
10
32.450138
20
-14.403120
10
32.129598
20
-14.015770
10
31.800827
20
-13.643892
10
31.463782
20
-13.288273
10
31.118341
20
-12.949902
10
30.764260
20
-12.630070
10
30.401092
20
-12.330580
10
30.028002
20
-12.054202
10
29.643231
20
-11.806040
10
29.239903
20
-11.604085
10
28.822190
20
-11.438313
10
28.404477
20
-11.272540
10
29.235828
20
-8.896675
10
29.665767
20
-9.027509
10
30.095706
20
-9.158342
10
30.536957
20
-9.251918
10
30.992509
20
-9.297799
10
31.456521
20
-9.314335
10
31.927187
20
-9.306617
10
32.403430
20
-9.277328
10
32.884478
20
-9.228157
10
33.369715
20
-9.160267
10
33.858621
20
-9.074506
10
34.350738
20
-8.971517
10
34.845650
20
-8.851802
10
35.235498
20
-7.143763
10
34.841541
20
-6.821169
10
34.442844
20
-6.514857
10
34.039565
20
-6.225461
10
33.631838
20
-5.953758
10
33.219763
20
-5.700738
10
32.803391
20
-5.467715
10
32.382685
20
-5.256547
10
31.957450
20
-5.070119
10
31.527105
20
-4.913799
10
31.088950
20
-4.806656
10
30.644822
20
-4.737989
10
30.200694
20
-4.669323
0
ENDSEC
0
EOF
