0
SECTION
2
HEADER
9
$ACADVER
1
AC1015
0
ENDSEC
0
SECTION
2
ENTITIES
0
LWPOLYLINE
5
64
100
AcDbEntity
8
0
100
AcDbPolyline
90
312
70
1
10
25.715501
20
-3.776222
10
26.730586
20
-3.925284
10
27.745672
20
-4.074345
10
28.760757
20
-4.223406
10
29.775843
20
-4.372468
10
30.794396
20
-4.497853
10
31.842220
20
-4.417010
10
32.906070
20
-4.200495
10
33.978497
20
-3.877791
10
35.054616
20
-3.460720
10
36.130294
20
-2.955835
10
37.201726
20
-2.367333
10
38.265281
20
-1.698174
10
38.265281
20
1.698174
10
37.201726
20
2.367333
10
36.130294
20
2.955835
10
35.054616
20
3.460720
10
33.978497
20
3.877791
10
32.906070
20
4.200495
10
31.842220
20
4.417010
10
30.794396
20
4.497853
10
29.775843
20
4.372468
10
28.760757
20
4.223406
10
27.745672
20
4.074345
10
26.730586
20
3.925284
10
25.715501
20
3.776222
10
24.158388
20
9.587446
10
25.112009
20
9.965898
10
26.065629
20
10.344350
10
27.019250
20
10.722801
10
27.972870
20
11.101253
10
28.917656
20
11.501943
10
29.784676
20
12.095867
10
30.597740
20
12.815300
10
31.365137
20
13.630983
10
32.088548
20
14.530237
10
32.767669
20
15.505319
10
33.401307
20
16.550692
10
33.987793
20
17.661979
10
32.289619
20
20.603303
10
31.033973
20
20.651034
10
29.811835
20
20.624975
10
28.627828
20
20.524379
10
27.487346
20
20.347514
10
26.397245
20
20.090771
10
25.367666
20
19.746353
10
24.419803
20
19.292453
10
23.600403
20
18.674590
10
22.795843
20
18.037956
10
21.991284
20
17.401322
10
21.186725
20
16.764688
10
20.382166
20
16.128055
10
16.128055
20
20.382166
10
16.764688
20
21.186725
10
17.401322
20
21.991284
10
18.037956
20
22.795843
10
18.674590
20
23.600403
10
19.292453
20
24.419803
10
19.746353
20
25.367666
10
20.090771
20
26.397245
10
20.347514
20
27.487346
10
20.524379
20
28.627828
10
20.624975
20
29.811835
10
20.651034
20
31.033973
10
20.603303
20
32.289619
10
17.661979
20
33.987793
10
16.550692
20
33.401307
10
15.505319
20
32.767669
10
14.530237
20
32.088548
10
13.630983
20
31.365137
10
12.815300
20
30.597740
10
12.095867
20
29.784676
10
11.501943
20
28.917656
10
11.101253
20
27.972870
10
10.722801
20
27.019250
10
10.344350
20
26.065629
10
9.965898
20
25.112009
10
9.587446
20
24.158388
10
3.776222
20
25.715501
10
3.925284
20
26.730586
10
4.074345
20
27.745672
10
4.223406
20
28.760757
10
4.372468
20
29.775843
10
4.497853
20
30.794396
10
4.417010
20
31.842220
10
4.200495
20
32.906070
10
3.877791
20
33.978497
10
3.460720
20
35.054616
10
2.955835
20
36.130294
10
2.367333
20
37.201726
10
1.698174
20
38.265281
10
-1.698174
20
38.265281
10
-2.367333
20
37.201726
10
-2.955835
20
36.130294
10
-3.460720
20
35.054616
10
-3.877791
20
33.978497
10
-4.200495
20
32.906070
10
-4.417010
20
31.842220
10
-4.497853
20
30.794396
10
-4.372468
20
29.775843
10
-4.223406
20
28.760757
10
-4.074345
20
27.745672
10
-3.925284
20
26.730586
10
-3.776222
20
25.715501
10
-9.587446
20
24.158388
10
-9.965898
20
25.112009
10
-10.344350
20
26.065629
10
-10.722801
20
27.019250
10
-11.101253
20
27.972870
10
-11.501943
20
28.917656
10
-12.095867
20
29.784676
10
-12.815300
20
30.597740
10
-13.630983
20
31.365137
10
-14.530237
20
32.088548
10
-15.505319
20
32.767669
10
-16.550692
20
33.401307
10
-17.661979
20
33.987793
10
-20.603303
20
32.289619
10
-20.651034
20
31.033973
10
-20.624975
20
29.811835
10
-20.524379
20
28.627828
10
-20.347514
20
27.487346
10
-20.090771
20
26.397245
10
-19.746353
20
25.367666
10
-19.292453
20
24.419803
10
-18.674590
20
23.600403
10
-18.037956
20
22.795843
10
-17.401322
20
21.991284
10
-16.764688
20
21.186725
10
-16.128055
20
20.382166
10
-20.382166
20
16.128055
10
-21.186725
20
16.764688
10
-21.991284
20
17.401322
10
-22.795843
20
18.037956
10
-23.600403
20
18.674590
10
-24.419803
20
19.292453
10
-25.367666
20
19.746353
10
-26.397245
20
20.090771
10
-27.487346
20
20.347514
10
-28.627828
20
20.524379
10
-29.811835
20
20.624975
10
-31.033973
20
20.651034
10
-32.289619
20
20.603303
10
-33.987793
20
17.661979
10
-33.401307
20
16.550692
10
-32.767669
20
15.505319
10
-32.088548
20
14.530237
10
-31.365137
20
13.630983
10
-30.597740
20
12.815300
10
-29.784676
20
12.095867
10
-28.917656
20
11.501943
10
-27.972870
20
11.101253
10
-27.019250
20
10.722801
10
-26.065629
20
10.344350
10
-25.112009
20
9.965898
10
-24.158388
20
9.587446
10
-25.715501
20
3.776222
10
-26.730586
20
3.925284
10
-27.745672
20
4.074345
10
-28.760757
20
4.223406
10
-29.775843
20
4.372468
10
-30.794396
20
4.497853
10
-31.842220
20
4.417010
10
-32.906070
20
4.200495
10
-33.978497
20
3.877791
10
-35.054616
20
3.460720
10
-36.130294
20
2.955835
10
-37.201726
20
2.367333
10
-38.265281
20
1.698174
10
-38.265281
20
-1.698174
10
-37.201726
20
-2.367333
10
-36.130294
20
-2.955835
10
-35.054616
20
-3.460720
10
-33.978497
20
-3.877791
10
-32.906070
20
-4.200495
10
-31.842220
20
-4.417010
10
-30.794396
20
-4.497853
10
-29.775843
20
-4.372468
10
-28.760757
20
-4.223406
10
-27.745672
20
-4.074345
10
-26.730586
20
-3.925284
10
-25.715501
20
-3.776222
10
-24.158388
20
-9.587446
10
-25.112009
20
-9.965898
10
-26.065629
20
-10.344350
10
-27.019250
20
-10.722801
10
-27.972870
20
-11.101253
10
-28.917656
20
-11.501943
10
-29.784676
20
-12.095867
10
-30.597740
20
-12.815300
10
-31.365137
20
-13.630983
10
-32.088548
20
-14.530237
10
-32.767669
20
-15.505319
10
-33.401307
20
-16.550692
10
-33.987793
20
-17.661979
10
-32.289619
20
-20.603303
10
-31.033973
20
-20.651034
10
-29.811835
20
-20.624975
10
-28.627828
20
-20.524379
10
-27.487346
20
-20.347514
10
-26.397245
20
-20.090771
10
-25.367666
20
-19.746353
10
-24.419803
20
-19.292453
10
-23.600403
20
-18.674590
10
-22.795843
20
-18.037956
10
-21.991284
20
-17.401322
10
-21.186725
20
-16.764688
10
-20.382166
20
-16.128055
10
-16.128055
20
-20.382166
10
-16.764688
20
-21.186725
10
-17.401322
20
-21.991284
10
-18.037956
20
-22.795843
10
-18.674590
20
-23.600403
10
-19.292453
20
-24.419803
10
-19.746353
20
-25.367666
10
-20.090771
20
-26.397245
10
-20.347514
20
-27.487346
10
-20.524379
20
-28.627828
10
-20.624975
20
-29.811835
10
-20.651034
20
-31.033973
10
-20.603303
20
-32.289619
10
-17.661979
20
-33.987793
10
-16.550692
20
-33.401307
10
-15.505319
20
-32.767669
10
-14.530237
20
-32.088548
10
-13.630983
20
-31.365137
10
-12.815300
20
-30.597740
10
-12.095867
20
-29.784676
10
-11.501943
20
-28.917656
10
-11.101253
20
-27.972870
10
-10.722801
20
-27.019250
10
-10.344350
20
-26.065629
10
-9.965898
20
-25.112009
10
-9.587446
20
-24.158388
10
-3.776222
20
-25.715501
10
-3.925284
20
-26.730586
10
-4.074345
20
-27.745672
10
-4.223406
20
-28.760757
10
-4.372468
20
-29.775843
10
-4.497853
20
-30.794396
10
-4.417010
20
-31.842220
10
-4.200495
20
-32.906070
10
-3.877791
20
-33.978497
10
-3.460720
20
-35.054616
10
-2.955835
20
-36.130294
10
-2.367333
20
-37.201726
10
-1.698174
20
-38.265281
10
1.698174
20
-38.265281
10
2.367333
20
-37.201726
10
2.955835
20
-36.130294
10
3.460720
20
-35.054616
10
3.877791
20
-33.978497
10
4.200495
20
-32.906070
10
4.417010
20
-31.842220
10
4.497853
20
-30.794396
10
4.372468
20
-29.775843
10
4.223406
20
-28.760757
10
4.074345
20
-27.745672
10
3.925284
20
-26.730586
10
3.776222
20
-25.715501
10
9.587446
20
-24.158388
10
9.965898
20
-25.112009
10
10.344350
20
-26.065629
10
10.722801
20
-27.019250
10
11.101253
20
-27.972870
10
11.501943
20
-28.917656
10
12.095867
20
-29.784676
10
12.815300
20
-30.597740
10
13.630983
20
-31.365137
10
14.530237
20
-32.088548
10
15.505319
20
-32.767669
10
16.550692
20
-33.401307
10
17.661979
20
-33.987793
10
20.603303
20
-32.289619
10
20.651034
20
-31.033973
10
20.624975
20
-29.811835
10
20.524379
20
-28.627828
10
20.347514
20
-27.487346
10
20.090771
20
-26.397245
10
19.746353
20
-25.367666
10
19.292453
20
-24.419803
10
18.674590
20
-23.600403
10
18.037956
20
-22.795843
10
17.401322
20
-21.991284
10
16.764688
20
-21.186725
10
16.128055
20
-20.382166
10
20.382166
20
-16.128055
10
21.186725
20
-16.764688
10
21.991284
20
-17.401322
10
22.795843
20
-18.037956
10
23.600403
20
-18.674590
10
24.419803
20
-19.292453
10
25.367666
20
-19.746353
10
26.397245
20
-20.090771
10
27.487346
20
-20.347514
10
28.627828
20
-20.524379
10
29.811835
20
-20.624975
10
31.033973
20
-20.651034
10
32.289619
20
-20.603303
10
33.987793
20
-17.661979
10
33.401307
20
-16.550692
10
32.767669
20
-15.505319
10
32.088548
20
-14.530237
10
31.365137
20
-13.630983
10
30.597740
20
-12.815300
10
29.784676
20
-12.095867
10
28.917656
20
-11.501943
10
27.972870
20
-11.101253
10
27.019250
20
-10.722801
10
26.065629
20
-10.344350
10
25.112009
20
-9.965898
10
24.158388
20
-9.587446
0
ENDSEC
0
EOF
