0
SECTION
2
HEADER
9
$ACADVER
1
AC1015
0
ENDSEC
0
SECTION
2
ENTITIES
0
LWPOLYLINE
5
64
100
AcDbEntity
8
0
100
AcDbPolyline
90
260
70
1
10
12.561901
20
-2.182002
10
13.189996
20
-2.291102
10
13.818092
20
-2.400202
10
14.446187
20
-2.509303
10
15.074282
20
-2.618403
10
15.702377
20
-2.727503
10
16.349256
20
-2.726252
10
17.013198
20
-2.611752
10
17.685369
20
-2.418722
10
18.361254
20
-2.156853
10
19.037144
20
-1.831054
10
19.709651
20
-1.444318
10
20.375539
20
-0.998712
10
20.375539
20
0.998712
10
19.709651
20
1.444318
10
19.037144
20
1.831054
10
18.361254
20
2.156853
10
17.685369
20
2.418722
10
17.013198
20
2.611752
10
16.349256
20
2.726252
10
15.702377
20
2.727503
10
15.074282
20
2.618403
10
14.446187
20
2.509303
10
13.818092
20
2.400202
10
13.189996
20
2.291102
10
12.561901
20
2.182002
10
11.445340
20
5.618423
10
12.017607
20
5.899345
10
12.589874
20
6.180266
10
13.162142
20
6.461187
10
13.734409
20
6.742108
10
14.306676
20
7.023029
10
14.829277
20
7.404267
10
15.299116
20
7.887155
10
15.729454
20
8.438412
10
16.122333
20
9.047543
10
16.477640
20
9.708399
10
16.794392
20
10.416564
10
17.071185
20
11.168466
10
15.897129
20
12.784416
10
15.096494
20
12.753521
10
14.325107
20
12.671106
10
13.586800
20
12.537405
10
12.886075
20
12.351987
10
12.228817
20
12.113059
10
11.624375
20
11.815436
10
11.100304
20
11.436222
10
10.656292
20
10.978773
10
10.212279
20
10.521324
10
9.768267
20
10.063875
10
9.324255
20
9.606426
10
8.880243
20
9.148977
10
5.957048
20
11.272802
10
6.254901
20
11.836443
10
6.552753
20
12.400083
10
6.850606
20
12.963723
10
7.148458
20
13.527363
10
7.446311
20
14.091003
10
7.645018
20
14.706608
10
7.741291
20
15.373437
10
7.765421
20
16.072359
10
7.725229
20
16.796086
10
7.624237
20
17.539574
10
7.464246
20
18.298673
10
7.246220
20
19.069670
10
5.346556
20
19.686908
10
4.716989
20
19.191311
10
4.141366
20
18.671227
10
3.622650
20
18.129094
10
3.164738
20
17.567212
10
2.773443
20
16.987589
10
2.459378
20
16.391525
10
2.258292
20
15.776692
10
2.167960
20
15.145625
10
2.077629
20
14.514557
10
1.987297
20
13.883489
10
1.896965
20
13.252422
10
1.806634
20
12.621354
10
-1.806634
20
12.621354
10
-1.896965
20
13.252422
10
-1.987297
20
13.883489
10
-2.077629
20
14.514557
10
-2.167960
20
15.145625
10
-2.258292
20
15.776692
10
-2.459378
20
16.391525
10
-2.773443
20
16.987589
10
-3.164738
20
17.567212
10
-3.622650
20
18.129094
10
-4.141366
20
18.671227
10
-4.716989
20
19.191311
10
-5.346556
20
19.686908
10
-7.246220
20
19.069670
10
-7.464246
20
18.298673
10
-7.624237
20
17.539574
10
-7.725229
20
16.796086
10
-7.765421
20
16.072359
10
-7.741291
20
15.373437
10
-7.645018
20
14.706608
10
-7.446311
20
14.091003
10
-7.148458
20
13.527363
10
-6.850606
20
12.963723
10
-6.552753
20
12.400083
10
-6.254901
20
11.836443
10
-5.957048
20
11.272802
10
-8.880243
20
9.148977
10
-9.324255
20
9.606426
10
-9.768267
20
10.063875
10
-10.212279
20
10.521324
10
-10.656292
20
10.978773
10
-11.100304
20
11.436222
10
-11.624375
20
11.815436
10
-12.228817
20
12.113059
10
-12.886075
20
12.351987
10
-13.586800
20
12.537405
10
-14.325107
20
12.671106
10
-15.096494
20
12.753521
10
-15.897129
20
12.784416
10
-17.071185
20
11.168466
10
-16.794392
20
10.416564
10
-16.477640
20
9.708399
10
-16.122333
20
9.047543
10
-15.729454
20
8.438412
10
-15.299116
20
7.887155
10
-14.829277
20
7.404267
10
-14.306676
20
7.023029
10
-13.734409
20
6.742108
10
-13.162142
20
6.461187
10
-12.589874
20
6.180266
10
-12.017607
20
5.899345
10
-11.445340
20
5.618423
10
-12.561901
20
2.182002
10
-13.189996
20
2.291102
10
-13.818092
20
2.400202
10
-14.446187
20
2.509303
10
-15.074282
20
2.618403
10
-15.702377
20
2.727503
10
-16.349256
20
2.726252
10
-17.013198
20
2.611752
10
-17.685369
20
2.418722
10
-18.361254
20
2.156853
10
-19.037144
20
1.831054
10
-19.709651
20
1.444318
10
-20.375539
20
0.998712
10
-20.375539
20
-0.998712
10
-19.709651
20
-1.444318
10
-19.037144
20
-1.831054
10
-18.361254
20
-2.156853
10
-17.685369
20
-2.418722
10
-17.013198
20
-2.611752
10
-16.349256
20
-2.726252
10
-15.702377
20
-2.727503
10
-15.074282
20
-2.618403
10
-14.446187
20
-2.509303
10
-13.818092
20
-2.400202
10
-13.189996
20
-2.291102
10
-12.561901
20
-2.182002
10
-11.445340
20
-5.618423
10
-12.017607
20
-5.899345
10
-12.589874
20
-6.180266
10
-13.162142
20
-6.461187
10
-13.734409
20
-6.742108
10
-14.306676
20
-7.023029
10
-14.829277
20
-7.404267
10
-15.299116
20
-7.887155
10
-15.729454
20
-8.438412
10
-16.122333
20
-9.047543
10
-16.477640
20
-9.708399
10
-16.794392
20
-10.416564
10
-17.071185
20
-11.168466
10
-15.897129
20
-12.784416
10
-15.096494
20
-12.753521
10
-14.325107
20
-12.671106
10
-13.586800
20
-12.537405
10
-12.886075
20
-12.351987
10
-12.228817
20
-12.113059
10
-11.624375
20
-11.815436
10
-11.100304
20
-11.436222
10
-10.656292
20
-10.978773
10
-10.212279
20
-10.521324
10
-9.768267
20
-10.063875
10
-9.324255
20
-9.606426
10
-8.880243
20
-9.148977
10
-5.957048
20
-11.272802
10
-6.254901
20
-11.836443
10
-6.552753
20
-12.400083
10
-6.850606
20
-12.963723
10
-7.148458
20
-13.527363
10
-7.446311
20
-14.091003
10
-7.645018
20
-14.706608
10
-7.741291
20
-15.373437
10
-7.765421
20
-16.072359
10
-7.725229
20
-16.796086
10
-7.624237
20
-17.539574
10
-7.464246
20
-18.298673
10
-7.246220
20
-19.069670
10
-5.346556
20
-19.686908
10
-4.716989
20
-19.191311
10
-4.141366
20
-18.671227
10
-3.622650
20
-18.129094
10
-3.164738
20
-17.567212
10
-2.773443
20
-16.987589
10
-2.459378
20
-16.391525
10
-2.258292
20
-15.776692
10
-2.167960
20
-15.145625
10
-2.077629
20
-14.514557
10
-1.987297
20
-13.883489
10
-1.896965
20
-13.252422
10
-1.806634
20
-12.621354
10
1.806634
20
-12.621354
10
1.896965
20
-13.252422
10
1.987297
20
-13.883489
10
2.077629
20
-14.514557
10
2.167960
20
-15.145625
10
2.258292
20
-15.776692
10
2.459378
20
-16.391525
10
2.773443
20
-16.987589
10
3.164738
20
-17.567212
10
3.622650
20
-18.129094
10
4.141366
20
-18.671227
10
4.716989
20
-19.191311
10
5.346556
20
-19.686908
10
7.246220
20
-19.069670
10
7.464246
20
-18.298673
10
7.624237
20
-17.539574
10
7.725229
20
-16.796086
10
7.765421
20
-16.072359
10
7.741291
20
-15.373437
10
7.645018
20
-14.706608
10
7.446311
20
-14.091003
10
7.148458
20
-13.527363
10
6.850606
20
-12.963723
10
6.552753
20
-12.400083
10
6.254901
20
-11.836443
10
5.957048
20
-11.272802
10
8.880243
20
-9.148977
10
9.324255
20
-9.606426
10
9.768267
20
-10.063875
10
10.212279
20
-10.521324
10
10.656292
20
-10.978773
10
11.100304
20
-11.436222
10
11.624375
20
-11.815436
10
12.228817
20
-12.113059
10
12.886075
20
-12.351987
10
13.586800
20
-12.537405
10
14.325107
20
-12.671106
10
15.096494
20
-12.753521
10
15.897129
20
-12.784416
10
17.071185
20
-11.168466
10
16.794392
20
-10.416564
10
16.477640
20
-9.708399
10
16.122333
20
-9.047543
10
15.729454
20
-8.438412
10
15.299116
20
-7.887155
10
14.829277
20
-7.404267
10
14.306676
20
-7.023029
10
13.734409
20
-6.742108
10
13.162142
20
-6.461187
10
12.589874
20
-6.180266
10
12.017607
20
-5.899345
10
11.445340
20
-5.618423
0
ENDSEC
0
EOF
