0
SECTION
2
HEADER
9
$ACADVER
1
AC1015
0
ENDSEC
0
SECTION
2
ENTITIES
0
LWPOLYLINE
5
64
100
AcDbEntity
8
0
100
AcDbPolyline
90
504
70
1
10
239.436456
20
-86.257946
10
238.981529
20
-85.860833
10
238.525012
20
-85.467592
10
238.066897
20
-85.078274
10
237.607176
20
-84.692931
10
237.145839
20
-84.311618
10
236.682875
20
-83.934393
10
236.218273
20
-83.561318
10
235.752020
20
-83.192459
10
236.188001
20
-81.946496
10
236.782512
20
-81.948815
10
237.378361
20
-81.946808
10
237.975516
20
-81.940535
10
238.573949
20
-81.930051
10
239.173631
20
-81.915409
10
239.774536
20
-81.896658
10
240.376637
20
-81.873844
10
240.979910
20
-81.847011
10
241.512506
20
-80.261819
10
241.047819
20
-79.876171
10
240.581640
20
-79.494434
10
240.113962
20
-79.116658
10
239.644776
20
-78.742896
10
239.174076
20
-78.373203
10
238.701852
20
-78.007637
10
238.228094
20
-77.646261
10
237.752789
20
-77.289141
10
238.157572
20
-76.032696
10
238.751957
20
-76.020192
10
239.347570
20
-76.003331
10
239.944384
20
-75.982172
10
240.542369
20
-75.956772
10
241.141500
20
-75.927184
10
241.741750
20
-75.893458
10
242.343095
20
-75.855641
10
242.945511
20
-75.813775
10
243.438422
20
-74.215799
10
242.964266
20
-73.841855
10
242.488714
20
-73.471859
10
242.011763
20
-73.105860
10
241.533405
20
-72.743911
10
241.053635
20
-72.386068
10
240.572444
20
-72.032388
10
240.089823
20
-71.682936
10
239.605763
20
-71.337776
10
239.979096
20
-70.071630
10
240.572984
20
-70.044312
10
241.167992
20
-70.012607
10
241.764093
20
-69.976576
10
242.361259
20
-69.936276
10
242.959466
20
-69.891760
10
243.558689
20
-69.843080
10
244.158904
20
-69.790282
10
244.760089
20
-69.733411
10
245.213008
20
-68.123643
10
244.729677
20
-67.761636
10
244.245049
20
-67.403611
10
243.759121
20
-67.049616
10
243.271888
20
-66.699706
10
242.783346
20
-66.353935
10
242.293487
20
-66.012362
10
241.802304
20
-65.675050
10
241.309789
20
-65.342066
10
241.651441
20
-64.067006
10
242.244463
20
-64.024890
10
242.838496
20
-63.978361
10
243.433512
20
-63.927480
10
244.029488
20
-63.872304
10
244.626399
20
-63.812889
10
245.224222
20
-63.749285
10
245.822935
20
-63.681540
10
246.422516
20
-63.609699
10
246.835161
20
-61.989139
10
246.342955
20
-61.639295
10
245.849552
20
-61.293462
10
245.354950
20
-60.951693
10
244.859145
20
-60.614038
10
244.362134
20
-60.280554
10
243.863911
20
-59.951300
10
243.364472
20
-59.626338
10
242.863809
20
-59.305736
10
243.173566
20
-58.022555
10
243.765354
20
-57.965668
10
244.358042
20
-57.904344
10
244.951605
20
-57.838644
10
245.546020
20
-57.768628
10
246.141265
20
-57.694350
10
246.737316
20
-57.615861
10
247.334154
20
-57.533211
10
247.931757
20
-57.446444
10
248.303872
20
-55.816100
10
247.803097
20
-55.478636
10
247.301226
20
-55.145212
10
246.798257
20
-54.815879
10
246.294188
20
-54.490690
10
245.789018
20
-54.169701
10
245.282741
20
-53.852970
10
244.775356
20
-53.540561
10
244.266855
20
-53.232540
10
244.544526
20
-51.942035
10
245.134711
20
-51.870412
10
245.725686
20
-51.794331
10
246.317427
20
-51.713854
10
246.909912
20
-51.629040
10
247.503120
20
-51.539945
10
248.097029
20
-51.446621
10
248.691620
20
-51.349117
10
249.286875
20
-51.247478
10
249.618229
20
-49.608364
10
249.109196
20
-49.283489
10
248.599168
20
-48.962681
10
248.088145
20
-48.645990
10
247.576126
20
-48.333469
10
247.063110
20
-48.025174
10
246.549095
20
-47.721163
10
246.034078
20
-47.421501
10
245.518057
20
-47.126253
10
245.763468
20
-45.829227
10
246.351684
20
-45.742912
10
246.940579
20
-45.652121
10
247.530130
20
-45.556916
10
248.120316
20
-45.457358
10
248.711118
20
-45.353502
10
249.302516
20
-45.245400
10
249.894492
20
-45.133102
10
250.487027
20
-45.016655
10
250.777414
20
-43.369790
10
250.260440
20
-43.057706
10
249.742573
20
-42.749714
10
249.223813
20
-42.445861
10
248.704162
20
-42.146202
10
248.183619
20
-41.850792
10
247.662185
20
-41.559691
10
247.139857
20
-41.272961
10
246.616636
20
-40.990670
10
246.829634
20
-39.687929
10
247.415516
20
-39.586977
10
248.001964
20
-39.481532
10
248.588958
20
-39.371659
10
249.176479
20
-39.257418
10
249.764508
20
-39.138865
10
250.353027
20
-39.016053
10
250.942019
20
-38.889032
10
251.531468
20
-38.757848
10
251.780707
20
-37.104256
10
251.256113
20
-36.805157
10
250.730728
20
-36.510171
10
250.204555
20
-36.219346
10
249.677594
20
-35.932735
10
249.149848
20
-35.650395
10
248.621319
20
-35.372384
10
248.092005
20
-35.098765
10
247.561908
20
-34.829606
10
247.742363
20
-33.521960
10
248.325546
20
-33.406432
10
248.909183
20
-33.286400
10
249.493255
20
-33.161927
10
250.077745
20
-33.033074
10
250.662636
20
-32.899898
10
251.247910
20
-32.762452
10
251.833553
20
-32.620786
10
252.419547
20
-32.474948
10
252.627483
20
-30.815656
10
252.095596
20
-30.529729
10
251.563020
20
-30.247933
10
251.029760
20
-29.970316
10
250.495818
20
-29.696932
10
249.961197
20
-29.427836
10
249.425901
20
-29.163088
10
248.889930
20
-28.902751
10
248.353288
20
-28.646891
10
248.501085
20
-27.335152
10
249.081207
20
-27.205121
10
249.661670
20
-27.070576
10
250.242458
20
-26.931580
10
250.823554
20
-26.788196
10
251.404942
20
-26.640479
10
251.986608
20
-26.488485
10
252.568537
20
-26.332262
10
253.150713
20
-26.171861
10
253.317218
20
-24.507900
10
252.778367
20
-24.235322
10
252.238932
20
-23.966891
10
251.698916
20
-23.702655
10
251.158324
20
-23.442667
10
250.617161
20
-23.186984
10
250.075431
20
-22.935663
10
249.533136
20
-22.688769
10
248.990282
20
-22.446368
10
249.105331
20
-21.131352
10
249.682031
20
-20.986899
10
250.258959
20
-20.837924
10
250.836101
20
-20.684492
10
251.413441
20
-20.526665
10
251.990967
20
-20.364500
10
252.568663
20
-20.198051
10
253.146516
20
-20.027370
10
253.724512
20
-19.852504
10
253.849481
20
-18.184909
10
253.304003
20
-17.925850
10
252.758043
20
-17.670950
10
252.211607
20
-17.420260
10
251.664702
20
-17.173830
10
251.117332
20
-16.931718
10
250.569505
20
-16.693981
10
250.021224
20
-16.460683
10
249.472495
20
-16.231891
10
249.554724
20
-14.914416
10
250.127643
20
-14.755630
10
250.700678
20
-14.592318
10
251.273815
20
-14.424545
10
251.847042
20
-14.252374
10
252.420344
20
-14.075861
10
252.993711
20
-13.895062
10
253.567129
20
-13.710027
10
254.140587
20
-13.520805
10
254.223943
20
-11.850613
10
253.672175
20
-11.605234
10
253.120030
20
-11.364025
10
252.567514
20
-11.127035
10
252.014635
20
-10.894317
10
251.461400
20
-10.665926
10
250.907816
20
-10.441921
10
250.353889
20
-10.222365
10
249.799627
20
-10.007324
10
249.848984
20
-8.688208
10
250.417767
20
-8.515188
10
250.986552
20
-8.337641
10
251.555329
20
-8.155632
10
252.124085
20
-7.969223
10
252.692809
20
-7.778472
10
253.261490
20
-7.583435
10
253.830117
20
-7.384162
10
254.398678
20
-7.180702
10
254.440369
20
-5.508951
10
253.882656
20
-5.277404
10
253.324669
20
-5.050036
10
252.766416
20
-4.826894
10
252.207907
20
-4.608032
10
251.649150
20
-4.393504
10
251.090153
20
-4.183370
10
250.530925
20
-3.977692
10
249.971474
20
-3.776536
10
249.987930
20
-2.456600
10
250.552222
20
-2.269454
10
251.116404
20
-2.077781
10
251.680466
20
-1.881648
10
252.244398
20
-1.681118
10
252.808190
20
-1.476248
10
253.371832
20
-1.267093
10
253.935314
20
-1.053706
10
254.498626
20
-0.836135
10
254.498626
20
0.836135
10
253.935314
20
1.053706
10
253.371832
20
1.267093
10
252.808190
20
1.476248
10
252.244398
20
1.681118
10
251.680466
20
1.881648
10
251.116404
20
2.077781
10
250.552222
20
2.269454
10
249.987930
20
2.456600
10
249.971474
20
3.776536
10
250.530925
20
3.977692
10
251.090153
20
4.183370
10
251.649150
20
4.393504
10
252.207907
20
4.608032
10
252.766416
20
4.826894
10
253.324669
20
5.050036
10
253.882656
20
5.277404
10
254.440369
20
5.508951
10
254.398678
20
7.180702
10
253.830117
20
7.384162
10
253.261490
20
7.583435
10
252.692809
20
7.778472
10
252.124085
20
7.969223
10
251.555329
20
8.155632
10
250.986552
20
8.337641
10
250.417767
20
8.515188
10
249.848984
20
8.688208
10
249.799627
20
10.007324
10
250.353889
20
10.222365
10
250.907816
20
10.441921
10
251.461400
20
10.665926
10
252.014635
20
10.894317
10
252.567514
20
11.127035
10
253.120030
20
11.364025
10
253.672175
20
11.605234
10
254.223943
20
11.850613
10
254.140587
20
13.520805
10
253.567129
20
13.710027
10
252.993711
20
13.895062
10
252.420344
20
14.075861
10
251.847042
20
14.252374
10
251.273815
20
14.424545
10
250.700678
20
14.592318
10
250.127643
20
14.755630
10
249.554724
20
14.914416
10
249.472495
20
16.231891
10
250.021224
20
16.460683
10
250.569505
20
16.693981
10
251.117332
20
16.931718
10
251.664702
20
17.173830
10
252.211607
20
17.420260
10
252.758043
20
17.670950
10
253.304003
20
17.925850
10
253.849481
20
18.184909
10
253.724512
20
19.852504
10
253.146516
20
20.027370
10
252.568663
20
20.198051
10
251.990967
20
20.364500
10
251.413441
20
20.526665
10
250.836101
20
20.684492
10
250.258959
20
20.837924
10
249.682031
20
20.986899
10
249.105331
20
21.131352
10
248.990282
20
22.446368
10
249.533136
20
22.688769
10
250.075431
20
22.935663
10
250.617161
20
23.186984
10
251.158324
20
23.442667
10
251.698916
20
23.702655
10
252.238932
20
23.966891
10
252.778367
20
24.235322
10
253.317218
20
24.507900
10
253.150713
20
26.171861
10
252.568537
20
26.332262
10
251.986608
20
26.488485
10
251.404942
20
26.640479
10
250.823554
20
26.788196
10
250.242458
20
26.931580
10
249.661670
20
27.070576
10
249.081207
20
27.205121
10
248.501085
20
27.335152
10
248.353288
20
28.646891
10
248.889930
20
28.902751
10
249.425901
20
29.163088
10
249.961197
20
29.427836
10
250.495818
20
29.696932
10
251.029760
20
29.970316
10
251.563020
20
30.247933
10
252.095596
20
30.529729
10
252.627483
20
30.815656
10
252.419547
20
32.474948
10
251.833553
20
32.620786
10
251.247910
20
32.762452
10
250.662636
20
32.899898
10
250.077745
20
33.033074
10
249.493255
20
33.161927
10
248.909183
20
33.286400
10
248.325546
20
33.406432
10
247.742363
20
33.521960
10
247.561908
20
34.829606
10
248.092005
20
35.098765
10
248.621319
20
35.372384
10
249.149848
20
35.650395
10
249.677594
20
35.932735
10
250.204555
20
36.219346
10
250.730728
20
36.510171
10
251.256113
20
36.805157
10
251.780707
20
37.104256
10
251.531468
20
38.757848
10
250.942019
20
38.889032
10
250.353027
20
39.016053
10
249.764508
20
39.138865
10
249.176479
20
39.257418
10
248.588958
20
39.371659
10
248.001964
20
39.481532
10
247.415516
20
39.586977
10
246.829634
20
39.687929
10
246.616636
20
40.990670
10
247.139857
20
41.272961
10
247.662185
20
41.559691
10
248.183619
20
41.850792
10
248.704162
20
42.146202
10
249.223813
20
42.445861
10
249.742573
20
42.749714
10
250.260440
20
43.057706
10
250.777414
20
43.369790
10
250.487027
20
45.016655
10
249.894492
20
45.133102
10
249.302516
20
45.245400
10
248.711118
20
45.353502
10
248.120316
20
45.457358
10
247.530130
20
45.556916
10
246.940579
20
45.652121
10
246.351684
20
45.742912
10
245.763468
20
45.829227
10
245.518057
20
47.126253
10
246.034078
20
47.421501
10
246.549095
20
47.721163
10
247.063110
20
48.025174
10
247.576126
20
48.333469
10
248.088145
20
48.645990
10
248.599168
20
48.962681
10
249.109196
20
49.283489
10
249.618229
20
49.608364
10
249.286875
20
51.247478
10
248.691620
20
51.349117
10
248.097029
20
51.446621
10
247.503120
20
51.539945
10
246.909912
20
51.629040
10
246.317427
20
51.713854
10
245.725686
20
51.794331
10
245.134711
20
51.870412
10
244.544526
20
51.942035
10
244.266855
20
53.232540
10
244.775356
20
53.540561
10
245.282741
20
53.852970
10
245.789018
20
54.169701
10
246.294188
20
54.490690
10
246.798257
20
54.815879
10
247.301226
20
55.145212
10
247.803097
20
55.478636
10
248.303872
20
55.816100
10
247.931757
20
57.446444
10
247.334154
20
57.533211
10
246.737316
20
57.615861
10
246.141265
20
57.694350
10
245.546020
20
57.768628
10
244.951605
20
57.838644
10
244.358042
20
57.904344
10
243.765354
20
57.965668
10
243.173566
20
58.022555
10
242.863809
20
59.305736
10
243.364472
20
59.626338
10
243.863911
20
59.951300
10
244.362134
20
60.280554
10
244.859145
20
60.614038
10
245.354950
20
60.951693
10
245.849552
20
61.293462
10
246.342955
20
61.639295
10
246.835161
20
61.989139
10
246.422516
20
63.609699
10
245.822935
20
63.681540
10
245.224222
20
63.749285
10
244.626399
20
63.812889
10
244.029488
20
63.872304
10
243.433512
20
63.927480
10
242.838496
20
63.978361
10
242.244463
20
64.024890
10
241.651441
20
64.067006
10
241.309789
20
65.342066
10
241.802304
20
65.675050
10
242.293487
20
66.012362
10
242.783346
20
66.353935
10
243.271888
20
66.699706
10
243.759121
20
67.049616
10
244.245049
20
67.403611
10
244.729677
20
67.761636
10
245.213008
20
68.123643
10
244.760089
20
69.733411
10
244.158904
20
69.790282
10
243.558689
20
69.843080
10
242.959466
20
69.891760
10
242.361259
20
69.936276
10
241.764093
20
69.976576
10
241.167992
20
70.012607
10
240.572984
20
70.044312
10
239.979096
20
70.071630
10
239.605763
20
71.337776
10
240.089823
20
71.682936
10
240.572444
20
72.032388
10
241.053635
20
72.386068
10
241.533405
20
72.743911
10
242.011763
20
73.105860
10
242.488714
20
73.471859
10
242.964266
20
73.841855
10
243.438422
20
74.215799
10
242.945511
20
75.813775
10
242.343095
20
75.855641
10
241.741750
20
75.893458
10
241.141500
20
75.927184
10
240.542369
20
75.956772
10
239.944384
20
75.982172
10
239.347570
20
76.003331
10
238.751957
20
76.020192
10
238.157572
20
76.032696
10
237.752789
20
77.289141
10
238.228094
20
77.646261
10
238.701852
20
78.007637
10
239.174076
20
78.373203
10
239.644776
20
78.742896
10
240.113962
20
79.116658
10
240.581640
20
79.494434
10
241.047819
20
79.876171
10
241.512506
20
80.261819
10
240.979910
20
81.847011
10
240.376637
20
81.873844
10
239.774536
20
81.896658
10
239.173631
20
81.915409
10
238.573949
20
81.930051
10
237.975516
20
81.940535
10
237.378361
20
81.946808
10
236.782512
20
81.948815
10
236.188001
20
81.946496
10
235.752020
20
83.192459
10
236.218273
20
83.561318
10
236.682875
20
83.934393
10
237.145839
20
84.311618
10
237.607176
20
84.692931
10
238.066897
20
85.078274
10
238.525012
20
85.467592
10
238.981529
20
85.860833
10
239.436456
20
86.257946
0
ENDSEC
0
EOF
