0
SECTION
2
HEADER
9
$ACADVER
1
AC1015
0
ENDSEC
0
SECTION
2
ENTITIES
0
LWPOLYLINE
5
64
100
AcDbEntity
8
0
100
AcDbPolyline
90
260
70
1
10
20.727508
20
-3.372003
10
21.763884
20
-3.540604
10
22.800259
20
-3.709204
10
23.836634
20
-3.877804
10
24.873010
20
-4.046404
10
25.909385
20
-4.215004
10
26.974750
20
-4.201530
10
28.066218
20
-4.001235
10
29.169854
20
-3.671461
10
30.278391
20
-3.228244
10
31.385809
20
-2.679737
10
32.486579
20
-2.030930
10
33.575408
20
-1.285282
10
33.575408
20
1.285282
10
32.486579
20
2.030930
10
31.385809
20
2.679737
10
30.278391
20
3.228244
10
29.169854
20
3.671461
10
28.066218
20
4.001235
10
26.974750
20
4.201530
10
25.909385
20
4.215004
10
24.873010
20
4.046404
10
23.836634
20
3.877804
10
22.800259
20
3.709204
10
21.763884
20
3.540604
10
20.727508
20
3.372003
10
18.750920
20
9.455316
10
19.688466
20
9.928081
10
20.626012
20
10.400847
10
21.563558
20
10.873613
10
22.501104
20
11.346379
10
23.438650
20
11.819144
10
24.292629
20
12.456251
10
25.057915
20
13.259842
10
25.756938
20
14.175336
10
26.393247
20
15.185487
10
26.966763
20
16.280163
10
27.475945
20
17.452075
10
27.918546
20
18.695315
10
26.407606
20
20.774945
10
25.088444
20
20.738189
10
23.816543
20
20.616068
10
22.598218
20
20.408896
10
21.440877
20
20.115884
10
20.354180
20
19.733977
10
19.353434
20
19.254469
10
18.483616
20
18.639165
10
17.744271
20
17.893598
10
17.004926
20
17.148031
10
16.265582
20
16.402465
10
15.526237
20
15.656898
10
14.786892
20
14.911332
10
9.612118
20
18.671025
10
10.092724
20
19.604577
10
10.573330
20
20.538128
10
11.053936
20
21.471679
10
11.534542
20
22.405230
10
12.015148
20
23.338782
10
12.331548
20
24.356168
10
12.478339
20
25.456110
10
12.505747
20
26.607636
10
12.426780
20
27.798878
10
12.247330
20
29.021594
10
11.970434
20
30.268981
10
11.597748
20
31.534937
10
9.152996
20
32.329285
10
8.107376
20
31.524165
10
7.150167
20
30.677762
10
6.286294
20
29.794043
10
5.522214
20
28.876723
10
4.867537
20
27.929010
10
4.339764
20
26.952856
10
3.997733
20
25.943798
10
3.837824
20
24.906046
10
3.677914
20
23.868294
10
3.518005
20
22.830542
10
3.358096
20
21.792790
10
3.198186
20
20.755038
10
-3.198186
20
20.755038
10
-3.358096
20
21.792790
10
-3.518005
20
22.830542
10
-3.677914
20
23.868294
10
-3.837824
20
24.906046
10
-3.997733
20
25.943798
10
-4.339764
20
26.952856
10
-4.867537
20
27.929010
10
-5.522214
20
28.876723
10
-6.286294
20
29.794043
10
-7.150167
20
30.677762
10
-8.107376
20
31.524165
10
-9.152996
20
32.329285
10
-11.597748
20
31.534937
10
-11.970434
20
30.268981
10
-12.247330
20
29.021594
10
-12.426780
20
27.798878
10
-12.505747
20
26.607636
10
-12.478339
20
25.456110
10
-12.331548
20
24.356168
10
-12.015148
20
23.338782
10
-11.534542
20
22.405230
10
-11.053936
20
21.471679
10
-10.573330
20
20.538128
10
-10.092724
20
19.604577
10
-9.612118
20
18.671025
10
-14.786892
20
14.911332
10
-15.526237
20
15.656898
10
-16.265582
20
16.402465
10
-17.004926
20
17.148031
10
-17.744271
20
17.893598
10
-18.483616
20
18.639165
10
-19.353434
20
19.254469
10
-20.354180
20
19.733977
10
-21.440877
20
20.115884
10
-22.598218
20
20.408896
10
-23.816543
20
20.616068
10
-25.088444
20
20.738189
10
-26.407606
20
20.774945
10
-27.918546
20
18.695315
10
-27.475945
20
17.452075
10
-26.966763
20
16.280163
10
-26.393247
20
15.185487
10
-25.756938
20
14.175336
10
-25.057915
20
13.259842
10
-24.292629
20
12.456251
10
-23.438650
20
11.819144
10
-22.501104
20
11.346379
10
-21.563558
20
10.873613
10
-20.626012
20
10.400847
10
-19.688466
20
9.928081
10
-18.750920
20
9.455316
10
-20.727508
20
3.372003
10
-21.763884
20
3.540604
10
-22.800259
20
3.709204
10
-23.836634
20
3.877804
10
-24.873010
20
4.046404
10
-25.909385
20
4.215004
10
-26.974750
20
4.201530
10
-28.066218
20
4.001235
10
-29.169854
20
3.671461
10
-30.278391
20
3.228244
10
-31.385809
20
2.679737
10
-32.486579
20
2.030930
10
-33.575408
20
1.285282
10
-33.575408
20
-1.285282
10
-32.486579
20
-2.030930
10
-31.385809
20
-2.679737
10
-30.278391
20
-3.228244
10
-29.169854
20
-3.671461
10
-28.066218
20
-4.001235
10
-26.974750
20
-4.201530
10
-25.909385
20
-4.215004
10
-24.873010
20
-4.046404
10
-23.836634
20
-3.877804
10
-22.800259
20
-3.709204
10
-21.763884
20
-3.540604
10
-20.727508
20
-3.372003
10
-18.750920
20
-9.455316
10
-19.688466
20
-9.928081
10
-20.626012
20
-10.400847
10
-21.563558
20
-10.873613
10
-22.501104
20
-11.346379
10
-23.438650
20
-11.819144
10
-24.292629
20
-12.456251
10
-25.057915
20
-13.259842
10
-25.756938
20
-14.175336
10
-26.393247
20
-15.185487
10
-26.966763
20
-16.280163
10
-27.475945
20
-17.452075
10
-27.918546
20
-18.695315
10
-26.407606
20
-20.774945
10
-25.088444
20
-20.738189
10
-23.816543
20
-20.616068
10
-22.598218
20
-20.408896
10
-21.440877
20
-20.115884
10
-20.354180
20
-19.733977
10
-19.353434
20
-19.254469
10
-18.483616
20
-18.639165
10
-17.744271
20
-17.893598
10
-17.004926
20
-17.148031
10
-16.265582
20
-16.402465
10
-15.526237
20
-15.656898
10
-14.786892
20
-14.911332
10
-9.612118
20
-18.671025
10
-10.092724
20
-19.604577
10
-10.573330
20
-20.538128
10
-11.053936
20
-21.471679
10
-11.534542
20
-22.405230
10
-12.015148
20
-23.338782
10
-12.331548
20
-24.356168
10
-12.478339
20
-25.456110
10
-12.505747
20
-26.607636
10
-12.426780
20
-27.798878
10
-12.247330
20
-29.021594
10
-11.970434
20
-30.268981
10
-11.597748
20
-31.534937
10
-9.152996
20
-32.329285
10
-8.107376
20
-31.524165
10
-7.150167
20
-30.677762
10
-6.286294
20
-29.794043
10
-5.522214
20
-28.876723
10
-4.867537
20
-27.929010
10
-4.339764
20
-26.952856
10
-3.997733
20
-25.943798
10
-3.837824
20
-24.906046
10
-3.677914
20
-23.868294
10
-3.518005
20
-22.830542
10
-3.358096
20
-21.792790
10
-3.198186
20
-20.755038
10
3.198186
20
-20.755038
10
3.358096
20
-21.792790
10
3.518005
20
-22.830542
10
3.677914
20
-23.868294
10
3.837824
20
-24.906046
10
3.997733
20
-25.943798
10
4.339764
20
-26.952856
10
4.867537
20
-27.929010
10
5.522214
20
-28.876723
10
6.286294
20
-29.794043
10
7.150167
20
-30.677762
10
8.107376
20
-31.524165
10
9.152996
20
-32.329285
10
11.597748
20
-31.534937
10
11.970434
20
-30.268981
10
12.247330
20
-29.021594
10
12.426780
20
-27.798878
10
12.505747
20
-26.607636
10
12.478339
20
-25.456110
10
12.331548
20
-24.356168
10
12.015148
20
-23.338782
10
11.534542
20
-22.405230
10
11.053936
20
-21.471679
10
10.573330
20
-20.538128
10
10.092724
20
-19.604577
10
9.612118
20
-18.671025
10
14.786892
20
-14.911332
10
15.526237
20
-15.656898
10
16.265582
20
-16.402465
10
17.004926
20
-17.148031
10
17.744271
20
-17.893598
10
18.483616
20
-18.639165
10
19.353434
20
-19.254469
10
20.354180
20
-19.733977
10
21.440877
20
-20.115884
10
22.598218
20
-20.408896
10
23.816543
20
-20.616068
10
25.088444
20
-20.738189
10
26.407606
20
-20.774945
10
27.918546
20
-18.695315
10
27.475945
20
-17.452075
10
26.966763
20
-16.280163
10
26.393247
20
-15.185487
10
25.756938
20
-14.175336
10
25.057915
20
-13.259842
10
24.292629
20
-12.456251
10
23.438650
20
-11.819144
10
22.501104
20
-11.346379
10
21.563558
20
-10.873613
10
20.626012
20
-10.400847
10
19.688466
20
-9.928081
10
18.750920
20
-9.455316
0
ENDSEC
0
EOF
