0
SECTION
2
HEADER
9
$ACADVER
1
AC1015
0
ENDSEC
0
SECTION
2
ENTITIES
0
LWPOLYLINE
5
64
100
AcDbEntity
8
0
100
AcDbPolyline
90
312
70
1
10
25.335524
20
-3.480381
10
26.335611
20
-3.617764
10
27.335697
20
-3.755147
10
28.335784
20
-3.892531
10
29.335870
20
-4.029914
10
30.339152
20
-4.143971
10
31.369348
20
-4.054857
10
32.414073
20
-3.832111
10
33.466266
20
-3.504809
10
34.521229
20
-3.084627
10
35.574956
20
-2.578050
10
36.623741
20
-1.989244
10
37.664040
20
-1.321152
10
37.664040
20
1.321152
10
36.623741
20
1.989244
10
35.574956
20
2.578050
10
34.521229
20
3.084627
10
33.466266
20
3.504809
10
32.414073
20
3.832111
10
31.369348
20
4.054857
10
30.339152
20
4.143971
10
29.335870
20
4.029914
10
28.335784
20
3.892531
10
27.335697
20
3.755147
10
26.335611
20
3.617764
10
25.335524
20
3.480381
10
23.681398
20
9.653664
10
24.616190
20
10.034730
10
25.550982
20
10.415796
10
26.485774
20
10.796861
10
27.420566
20
11.177927
10
28.346462
20
11.580792
10
29.194081
20
12.173065
10
29.987466
20
12.888331
10
30.735041
20
13.697880
10
31.438575
20
14.589250
10
32.097840
20
15.554821
10
32.711712
20
16.589135
10
33.278591
20
17.687868
10
31.957439
20
19.976171
10
30.722468
20
20.034607
10
29.519790
20
20.020135
10
28.353948
20
19.931980
10
27.230232
20
19.768387
10
26.155355
20
19.525742
10
25.139224
20
19.196283
10
24.202491
20
18.758360
10
23.390652
20
18.157943
10
22.593243
20
17.538923
10
21.795835
20
16.919902
10
20.998426
20
16.300881
10
20.201017
20
15.681860
10
15.681860
20
20.201017
10
16.300881
20
20.998426
10
16.919902
20
21.795835
10
17.538923
20
22.593243
10
18.157943
20
23.390652
10
18.758360
20
24.202491
10
19.196283
20
25.139224
10
19.525742
20
26.155355
10
19.768387
20
27.230232
10
19.931980
20
28.353948
10
20.020135
20
29.519790
10
20.034607
20
30.722468
10
19.976171
20
31.957439
10
17.687868
20
33.278591
10
16.589135
20
32.711712
10
15.554821
20
32.097840
10
14.589250
20
31.438575
10
13.697880
20
30.735041
10
12.888331
20
29.987466
10
12.173065
20
29.194081
10
11.580792
20
28.346462
10
11.177927
20
27.420566
10
10.796861
20
26.485774
10
10.415796
20
25.550982
10
10.034730
20
24.616190
10
9.653664
20
23.681398
10
3.480381
20
25.335524
10
3.617764
20
26.335611
10
3.755147
20
27.335697
10
3.892531
20
28.335784
10
4.029914
20
29.335870
10
4.143971
20
30.339152
10
4.054857
20
31.369348
10
3.832111
20
32.414073
10
3.504809
20
33.466266
10
3.084627
20
34.521229
10
2.578050
20
35.574956
10
1.989244
20
36.623741
10
1.321152
20
37.664040
10
-1.321152
20
37.664040
10
-1.989244
20
36.623741
10
-2.578050
20
35.574956
10
-3.084627
20
34.521229
10
-3.504809
20
33.466266
10
-3.832111
20
32.414073
10
-4.054857
20
31.369348
10
-4.143971
20
30.339152
10
-4.029914
20
29.335870
10
-3.892531
20
28.335784
10
-3.755147
20
27.335697
10
-3.617764
20
26.335611
10
-3.480381
20
25.335524
10
-9.653664
20
23.681398
10
-10.034730
20
24.616190
10
-10.415796
20
25.550982
10
-10.796861
20
26.485774
10
-11.177927
20
27.420566
10
-11.580792
20
28.346462
10
-12.173065
20
29.194081
10
-12.888331
20
29.987466
10
-13.697880
20
30.735041
10
-14.589250
20
31.438575
10
-15.554821
20
32.097840
10
-16.589135
20
32.711712
10
-17.687868
20
33.278591
10
-19.976171
20
31.957439
10
-20.034607
20
30.722468
10
-20.020135
20
29.519790
10
-19.931980
20
28.353948
10
-19.768387
20
27.230232
10
-19.525742
20
26.155355
10
-19.196283
20
25.139224
10
-18.758360
20
24.202491
10
-18.157943
20
23.390652
10
-17.538923
20
22.593243
10
-16.919902
20
21.795835
10
-16.300881
20
20.998426
10
-15.681860
20
20.201017
10
-20.201017
20
15.681860
10
-20.998426
20
16.300881
10
-21.795835
20
16.919902
10
-22.593243
20
17.538923
10
-23.390652
20
18.157943
10
-24.202491
20
18.758360
10
-25.139224
20
19.196283
10
-26.155355
20
19.525742
10
-27.230232
20
19.768387
10
-28.353948
20
19.931980
10
-29.519790
20
20.020135
10
-30.722468
20
20.034607
10
-31.957439
20
19.976171
10
-33.278591
20
17.687868
10
-32.711712
20
16.589135
10
-32.097840
20
15.554821
10
-31.438575
20
14.589250
10
-30.735041
20
13.697880
10
-29.987466
20
12.888331
10
-29.194081
20
12.173065
10
-28.346462
20
11.580792
10
-27.420566
20
11.177927
10
-26.485774
20
10.796861
10
-25.550982
20
10.415796
10
-24.616190
20
10.034730
10
-23.681398
20
9.653664
10
-25.335524
20
3.480381
10
-26.335611
20
3.617764
10
-27.335697
20
3.755147
10
-28.335784
20
3.892531
10
-29.335870
20
4.029914
10
-30.339152
20
4.143971
10
-31.369348
20
4.054857
10
-32.414073
20
3.832111
10
-33.466266
20
3.504809
10
-34.521229
20
3.084627
10
-35.574956
20
2.578050
10
-36.623741
20
1.989244
10
-37.664040
20
1.321152
10
-37.664040
20
-1.321152
10
-36.623741
20
-1.989244
10
-35.574956
20
-2.578050
10
-34.521229
20
-3.084627
10
-33.466266
20
-3.504809
10
-32.414073
20
-3.832111
10
-31.369348
20
-4.054857
10
-30.339152
20
-4.143971
10
-29.335870
20
-4.029914
10
-28.335784
20
-3.892531
10
-27.335697
20
-3.755147
10
-26.335611
20
-3.617764
10
-25.335524
20
-3.480381
10
-23.681398
20
-9.653664
10
-24.616190
20
-10.034730
10
-25.550982
20
-10.415796
10
-26.485774
20
-10.796861
10
-27.420566
20
-11.177927
10
-28.346462
20
-11.580792
10
-29.194081
20
-12.173065
10
-29.987466
20
-12.888331
10
-30.735041
20
-13.697880
10
-31.438575
20
-14.589250
10
-32.097840
20
-15.554821
10
-32.711712
20
-16.589135
10
-33.278591
20
-17.687868
10
-31.957439
20
-19.976171
10
-30.722468
20
-20.034607
10
-29.519790
20
-20.020135
10
-28.353948
20
-19.931980
10
-27.230232
20
-19.768387
10
-26.155355
20
-19.525742
10
-25.139224
20
-19.196283
10
-24.202491
20
-18.758360
10
-23.390652
20
-18.157943
10
-22.593243
20
-17.538923
10
-21.795835
20
-16.919902
10
-20.998426
20
-16.300881
10
-20.201017
20
-15.681860
10
-15.681860
20
-20.201017
10
-16.300881
20
-20.998426
10
-16.919902
20
-21.795835
10
-17.538923
20
-22.593243
10
-18.157943
20
-23.390652
10
-18.758360
20
-24.202491
10
-19.196283
20
-25.139224
10
-19.525742
20
-26.155355
10
-19.768387
20
-27.230232
10
-19.931980
20
-28.353948
10
-20.020135
20
-29.519790
10
-20.034607
20
-30.722468
10
-19.976171
20
-31.957439
10
-17.687868
20
-33.278591
10
-16.589135
20
-32.711712
10
-15.554821
20
-32.097840
10
-14.589250
20
-31.438575
10
-13.697880
20
-30.735041
10
-12.888331
20
-29.987466
10
-12.173065
20
-29.194081
10
-11.580792
20
-28.346462
10
-11.177927
20
-27.420566
10
-10.796861
20
-26.485774
10
-10.415796
20
-25.550982
10
-10.034730
20
-24.616190
10
-9.653664
20
-23.681398
10
-3.480381
20
-25.335524
10
-3.617764
20
-26.335611
10
-3.755147
20
-27.335697
10
-3.892531
20
-28.335784
10
-4.029914
20
-29.335870
10
-4.143971
20
-30.339152
10
-4.054857
20
-31.369348
10
-3.832111
20
-32.414073
10
-3.504809
20
-33.466266
10
-3.084627
20
-34.521229
10
-2.578050
20
-35.574956
10
-1.989244
20
-36.623741
10
-1.321152
20
-37.664040
10
1.321152
20
-37.664040
10
1.989244
20
-36.623741
10
2.578050
20
-35.574956
10
3.084627
20
-34.521229
10
3.504809
20
-33.466266
10
3.832111
20
-32.414073
10
4.054857
20
-31.369348
10
4.143971
20
-30.339152
10
4.029914
20
-29.335870
10
3.892531
20
-28.335784
10
3.755147
20
-27.335697
10
3.617764
20
-26.335611
10
3.480381
20
-25.335524
10
9.653664
20
-23.681398
10
10.034730
20
-24.616190
10
10.415796
20
-25.550982
10
10.796861
20
-26.485774
10
11.177927
20
-27.420566
10
11.580792
20
-28.346462
10
12.173065
20
-29.194081
10
12.888331
20
-29.987466
10
13.697880
20
-30.735041
10
14.589250
20
-31.438575
10
15.554821
20
-32.097840
10
16.589135
20
-32.711712
10
17.687868
20
-33.278591
10
19.976171
20
-31.957439
10
20.034607
20
-30.722468
10
20.020135
20
-29.519790
10
19.931980
20
-28.353948
10
19.768387
20
-27.230232
10
19.525742
20
-26.155355
10
19.196283
20
-25.139224
10
18.758360
20
-24.202491
10
18.157943
20
-23.390652
10
17.538923
20
-22.593243
10
16.919902
20
-21.795835
10
16.300881
20
-20.998426
10
15.681860
20
-20.201017
10
20.201017
20
-15.681860
10
20.998426
20
-16.300881
10
21.795835
20
-16.919902
10
22.593243
20
-17.538923
10
23.390652
20
-18.157943
10
24.202491
20
-18.758360
10
25.139224
20
-19.196283
10
26.155355
20
-19.525742
10
27.230232
20
-19.768387
10
28.353948
20
-19.931980
10
29.519790
20
-20.020135
10
30.722468
20
-20.034607
10
31.957439
20
-19.976171
10
33.278591
20
-17.687868
10
32.711712
20
-16.589135
10
32.097840
20
-15.554821
10
31.438575
20
-14.589250
10
30.735041
20
-13.697880
10
29.987466
20
-12.888331
10
29.194081
20
-12.173065
10
28.346462
20
-11.580792
10
27.420566
20
-11.177927
10
26.485774
20
-10.796861
10
25.550982
20
-10.415796
10
24.616190
20
-10.034730
10
23.681398
20
-9.653664
0
ENDSEC
0
EOF
