0
SECTION
2
HEADER
9
$ACADVER
1
AC1015
0
ENDSEC
0
SECTION
2
ENTITIES
0
LWPOLYLINE
5
64
100
AcDbEntity
8
0
100
AcDbPolyline
90
312
70
1
10
25.319090
20
-3.597988
10
26.318528
20
-3.740014
10
27.317966
20
-3.882039
10
28.317403
20
-4.024065
10
29.316841
20
-4.166091
10
30.319583
20
-4.284805
10
31.350182
20
-4.200476
10
32.395930
20
-3.982583
10
33.449631
20
-3.660171
10
34.506534
20
-3.244892
10
35.562601
20
-2.743214
10
36.614109
20
-2.159284
10
37.657499
20
-1.496030
10
37.657499
20
1.496030
10
36.614109
20
2.159284
10
35.562601
20
2.743214
10
34.506534
20
3.244892
10
33.449631
20
3.660171
10
32.395930
20
3.982583
10
31.350182
20
4.200476
10
30.319583
20
4.284805
10
29.316841
20
4.166091
10
28.317403
20
4.024065
10
27.317966
20
3.882039
10
26.318528
20
3.740014
10
25.319090
20
3.597988
10
23.725969
20
9.543596
10
24.662521
20
9.920317
10
25.599072
20
10.297038
10
26.535623
20
10.673759
10
27.472175
20
11.050480
10
28.399931
20
11.449041
10
29.250292
20
12.037372
10
30.046990
20
12.748946
10
30.798315
20
13.555015
10
31.505981
20
14.443108
10
32.169723
20
15.405608
10
32.788391
20
16.437060
10
33.360366
20
17.533150
10
31.864336
20
20.124349
10
30.629107
20
20.177050
10
29.426509
20
20.156993
10
28.261089
20
20.063425
10
27.138145
20
19.894616
10
26.064406
20
19.646983
10
25.049816
20
19.312810
10
24.115126
20
18.870542
10
23.306084
20
18.266361
10
22.511558
20
17.643644
10
21.717033
20
17.020928
10
20.922507
20
16.398211
10
20.127981
20
15.775494
10
15.775494
20
20.127981
10
16.398211
20
20.922507
10
17.020928
20
21.717033
10
17.643644
20
22.511558
10
18.266361
20
23.306084
10
18.870542
20
24.115126
10
19.312810
20
25.049816
10
19.646983
20
26.064406
10
19.894616
20
27.138145
10
20.063425
20
28.261089
10
20.156993
20
29.426509
10
20.177050
20
30.629107
10
20.124349
20
31.864336
10
17.533150
20
33.360366
10
16.437060
20
32.788391
10
15.405608
20
32.169723
10
14.443108
20
31.505981
10
13.555015
20
30.798315
10
12.748946
20
30.046990
10
12.037372
20
29.250292
10
11.449041
20
28.399931
10
11.050480
20
27.472175
10
10.673759
20
26.535623
10
10.297038
20
25.599072
10
9.920317
20
24.662521
10
9.543596
20
23.725969
10
3.597988
20
25.319090
10
3.740014
20
26.318528
10
3.882039
20
27.317966
10
4.024065
20
28.317403
10
4.166091
20
29.316841
10
4.284805
20
30.319583
10
4.200476
20
31.350182
10
3.982583
20
32.395930
10
3.660171
20
33.449631
10
3.244892
20
34.506534
10
2.743214
20
35.562601
10
2.159284
20
36.614109
10
1.496030
20
37.657499
10
-1.496030
20
37.657499
10
-2.159284
20
36.614109
10
-2.743214
20
35.562601
10
-3.244892
20
34.506534
10
-3.660171
20
33.449631
10
-3.982583
20
32.395930
10
-4.200476
20
31.350182
10
-4.284805
20
30.319583
10
-4.166091
20
29.316841
10
-4.024065
20
28.317403
10
-3.882039
20
27.317966
10
-3.740014
20
26.318528
10
-3.597988
20
25.319090
10
-9.543596
20
23.725969
10
-9.920317
20
24.662521
10
-10.297038
20
25.599072
10
-10.673759
20
26.535623
10
-11.050480
20
27.472175
10
-11.449041
20
28.399931
10
-12.037372
20
29.250292
10
-12.748946
20
30.046990
10
-13.555015
20
30.798315
10
-14.443108
20
31.505981
10
-15.405608
20
32.169723
10
-16.437060
20
32.788391
10
-17.533150
20
33.360366
10
-20.124349
20
31.864336
10
-20.177050
20
30.629107
10
-20.156993
20
29.426509
10
-20.063425
20
28.261089
10
-19.894616
20
27.138145
10
-19.646983
20
26.064406
10
-19.312810
20
25.049816
10
-18.870542
20
24.115126
10
-18.266361
20
23.306084
10
-17.643644
20
22.511558
10
-17.020928
20
21.717033
10
-16.398211
20
20.922507
10
-15.775494
20
20.127981
10
-20.127981
20
15.775494
10
-20.922507
20
16.398211
10
-21.717033
20
17.020928
10
-22.511558
20
17.643644
10
-23.306084
20
18.266361
10
-24.115126
20
18.870542
10
-25.049816
20
19.312810
10
-26.064406
20
19.646983
10
-27.138145
20
19.894616
10
-28.261089
20
20.063425
10
-29.426509
20
20.156993
10
-30.629107
20
20.177050
10
-31.864336
20
20.124349
10
-33.360366
20
17.533150
10
-32.788391
20
16.437060
10
-32.169723
20
15.405608
10
-31.505981
20
14.443108
10
-30.798315
20
13.555015
10
-30.046990
20
12.748946
10
-29.250292
20
12.037372
10
-28.399931
20
11.449041
10
-27.472175
20
11.050480
10
-26.535623
20
10.673759
10
-25.599072
20
10.297038
10
-24.662521
20
9.920317
10
-23.725969
20
9.543596
10
-25.319090
20
3.597988
10
-26.318528
20
3.740014
10
-27.317966
20
3.882039
10
-28.317403
20
4.024065
10
-29.316841
20
4.166091
10
-30.319583
20
4.284805
10
-31.350182
20
4.200476
10
-32.395930
20
3.982583
10
-33.449631
20
3.660171
10
-34.506534
20
3.244892
10
-35.562601
20
2.743214
10
-36.614109
20
2.159284
10
-37.657499
20
1.496030
10
-37.657499
20
-1.496030
10
-36.614109
20
-2.159284
10
-35.562601
20
-2.743214
10
-34.506534
20
-3.244892
10
-33.449631
20
-3.660171
10
-32.395930
20
-3.982583
10
-31.350182
20
-4.200476
10
-30.319583
20
-4.284805
10
-29.316841
20
-4.166091
10
-28.317403
20
-4.024065
10
-27.317966
20
-3.882039
10
-26.318528
20
-3.740014
10
-25.319090
20
-3.597988
10
-23.725969
20
-9.543596
10
-24.662521
20
-9.920317
10
-25.599072
20
-10.297038
10
-26.535623
20
-10.673759
10
-27.472175
20
-11.050480
10
-28.399931
20
-11.449041
10
-29.250292
20
-12.037372
10
-30.046990
20
-12.748946
10
-30.798315
20
-13.555015
10
-31.505981
20
-14.443108
10
-32.169723
20
-15.405608
10
-32.788391
20
-16.437060
10
-33.360366
20
-17.533150
10
-31.864336
20
-20.124349
10
-30.629107
20
-20.177050
10
-29.426509
20
-20.156993
10
-28.261089
20
-20.063425
10
-27.138145
20
-19.894616
10
-26.064406
20
-19.646983
10
-25.049816
20
-19.312810
10
-24.115126
20
-18.870542
10
-23.306084
20
-18.266361
10
-22.511558
20
-17.643644
10
-21.717033
20
-17.020928
10
-20.922507
20
-16.398211
10
-20.127981
20
-15.775494
10
-15.775494
20
-20.127981
10
-16.398211
20
-20.922507
10
-17.020928
20
-21.717033
10
-17.643644
20
-22.511558
10
-18.266361
20
-23.306084
10
-18.870542
20
-24.115126
10
-19.312810
20
-25.049816
10
-19.646983
20
-26.064406
10
-19.894616
20
-27.138145
10
-20.063425
20
-28.261089
10
-20.156993
20
-29.426509
10
-20.177050
20
-30.629107
10
-20.124349
20
-31.864336
10
-17.533150
20
-33.360366
10
-16.437060
20
-32.788391
10
-15.405608
20
-32.169723
10
-14.443108
20
-31.505981
10
-13.555015
20
-30.798315
10
-12.748946
20
-30.046990
10
-12.037372
20
-29.250292
10
-11.449041
20
-28.399931
10
-11.050480
20
-27.472175
10
-10.673759
20
-26.535623
10
-10.297038
20
-25.599072
10
-9.920317
20
-24.662521
10
-9.543596
20
-23.725969
10
-3.597988
20
-25.319090
10
-3.740014
20
-26.318528
10
-3.882039
20
-27.317966
10
-4.024065
20
-28.317403
10
-4.166091
20
-29.316841
10
-4.284805
20
-30.319583
10
-4.200476
20
-31.350182
10
-3.982583
20
-32.395930
10
-3.660171
20
-33.449631
10
-3.244892
20
-34.506534
10
-2.743214
20
-35.562601
10
-2.159284
20
-36.614109
10
-1.496030
20
-37.657499
10
1.496030
20
-37.657499
10
2.159284
20
-36.614109
10
2.743214
20
-35.562601
10
3.244892
20
-34.506534
10
3.660171
20
-33.449631
10
3.982583
20
-32.395930
10
4.200476
20
-31.350182
10
4.284805
20
-30.319583
10
4.166091
20
-29.316841
10
4.024065
20
-28.317403
10
3.882039
20
-27.317966
10
3.740014
20
-26.318528
10
3.597988
20
-25.319090
10
9.543596
20
-23.725969
10
9.920317
20
-24.662521
10
10.297038
20
-25.599072
10
10.673759
20
-26.535623
10
11.050480
20
-27.472175
10
11.449041
20
-28.399931
10
12.037372
20
-29.250292
10
12.748946
20
-30.046990
10
13.555015
20
-30.798315
10
14.443108
20
-31.505981
10
15.405608
20
-32.169723
10
16.437060
20
-32.788391
10
17.533150
20
-33.360366
10
20.124349
20
-31.864336
10
20.177050
20
-30.629107
10
20.156993
20
-29.426509
10
20.063425
20
-28.261089
10
19.894616
20
-27.138145
10
19.646983
20
-26.064406
10
19.312810
20
-25.049816
10
18.870542
20
-24.115126
10
18.266361
20
-23.306084
10
17.643644
20
-22.511558
10
17.020928
20
-21.717033
10
16.398211
20
-20.922507
10
15.775494
20
-20.127981
10
20.127981
20
-15.775494
10
20.922507
20
-16.398211
10
21.717033
20
-17.020928
10
22.511558
20
-17.643644
10
23.306084
20
-18.266361
10
24.115126
20
-18.870542
10
25.049816
20
-19.312810
10
26.064406
20
-19.646983
10
27.138145
20
-19.894616
10
28.261089
20
-20.063425
10
29.426509
20
-20.156993
10
30.629107
20
-20.177050
10
31.864336
20
-20.124349
10
33.360366
20
-17.533150
10
32.788391
20
-16.437060
10
32.169723
20
-15.405608
10
31.505981
20
-14.443108
10
30.798315
20
-13.555015
10
30.046990
20
-12.748946
10
29.250292
20
-12.037372
10
28.399931
20
-11.449041
10
27.472175
20
-11.050480
10
26.535623
20
-10.673759
10
25.599072
20
-10.297038
10
24.662521
20
-9.920317
10
23.725969
20
-9.543596
0
ENDSEC
0
EOF
