0
SECTION
2
HEADER
9
$ACADVER
1
AC1015
0
ENDSEC
0
SECTION
2
ENTITIES
0
LWPOLYLINE
5
64
100
AcDbEntity
8
0
100
AcDbPolyline
90
728
70
1
10
25.453669
20
-1.536463
10
25.827988
20
-1.559058
10
26.202307
20
-1.581653
10
26.578563
20
-1.571815
10
26.957153
20
-1.520494
10
27.336904
20
-1.443716
10
27.717339
20
-1.345962
10
28.098108
20
-1.229620
10
28.478910
20
-1.096210
10
28.859473
20
-0.946796
10
29.239540
20
-0.782167
10
29.618864
20
-0.602933
10
29.997204
20
-0.409583
10
29.997204
20
0.409583
10
29.618864
20
0.602933
10
29.239540
20
0.782167
10
28.859473
20
0.946796
10
28.478910
20
1.096210
10
28.098108
20
1.229620
10
27.717339
20
1.345962
10
27.336904
20
1.443716
10
26.957153
20
1.520494
10
26.578563
20
1.571815
10
26.202307
20
1.581653
10
25.827988
20
1.559058
10
25.453669
20
1.536463
10
25.157388
20
4.166034
10
25.527349
20
4.227299
10
25.897311
20
4.288564
10
26.261945
20
4.381880
10
26.619623
20
4.516159
10
26.972768
20
4.675514
10
27.321912
20
4.855472
10
27.667246
20
5.053626
10
28.008814
20
5.268428
10
28.346588
20
5.498779
10
28.680492
20
5.743853
10
29.010422
20
6.003001
10
29.336252
20
6.275692
10
29.153971
20
7.074320
10
28.742092
20
7.178634
10
28.332395
20
7.268966
10
27.925224
20
7.344895
10
27.520955
20
7.405880
10
27.120013
20
7.451208
10
26.722903
20
7.479904
10
26.330254
20
7.490552
10
25.942939
20
7.480903
10
25.562421
20
7.446693
10
25.193409
20
7.372559
10
24.833503
20
7.267237
10
24.473598
20
7.161915
10
23.599610
20
9.659628
10
23.946663
20
9.801681
10
24.293716
20
9.943735
10
24.628443
20
10.115850
10
24.947273
20
10.326353
10
25.256104
20
10.560295
10
25.556451
20
10.813433
10
25.849032
20
11.083463
10
26.134239
20
11.368885
10
26.412287
20
11.668622
10
26.683285
20
11.981853
10
26.947277
20
12.307919
10
27.204258
20
12.646277
10
26.848835
20
13.384321
10
26.424071
20
13.394367
10
26.004546
20
13.391269
10
25.590688
20
13.374690
10
25.182984
20
13.344187
10
24.782008
20
13.299161
10
24.388469
20
13.238772
10
24.003294
20
13.161781
10
23.627838
20
13.066188
10
23.264473
20
12.948163
10
22.921209
20
12.793775
10
22.593763
20
12.611007
10
22.266317
20
12.428239
10
20.858449
20
14.668848
10
21.165191
20
14.884566
10
21.471933
20
15.100285
10
21.759968
20
15.342568
10
22.023963
20
15.618740
10
22.272994
20
15.915538
10
22.509482
20
16.229163
10
22.734641
20
16.557528
10
22.949184
20
16.899258
10
23.153563
20
17.253352
10
23.348066
20
17.619032
10
23.532883
20
17.995667
10
23.708129
20
18.382726
10
23.197387
20
19.023176
10
22.781038
20
18.938452
10
22.372720
20
18.842078
10
21.972927
20
18.733822
10
21.582233
20
18.613362
10
21.201330
20
18.480239
10
20.831095
20
18.333794
10
20.472710
20
18.173023
10
20.127939
20
17.996280
10
19.799947
20
17.800358
10
19.499644
20
17.573457
10
19.221077
20
17.322408
10
18.942511
20
17.071358
10
17.071358
20
18.942511
10
17.322408
20
19.221077
10
17.573457
20
19.499644
10
17.800358
20
19.799947
10
17.996280
20
20.127939
10
18.173023
20
20.472710
10
18.333794
20
20.831095
10
18.480239
20
21.201330
10
18.613362
20
21.582233
10
18.733822
20
21.972927
10
18.842078
20
22.372720
10
18.938452
20
22.781038
10
19.023176
20
23.197387
10
18.382726
20
23.708129
10
17.995667
20
23.532883
10
17.619032
20
23.348066
10
17.253352
20
23.153563
10
16.899258
20
22.949184
10
16.557528
20
22.734641
10
16.229163
20
22.509482
10
15.915538
20
22.272994
10
15.618740
20
22.023963
10
15.342568
20
21.759968
10
15.100285
20
21.471933
10
14.884566
20
21.165191
10
14.668848
20
20.858449
10
12.428239
20
22.266317
10
12.611007
20
22.593763
10
12.793775
20
22.921209
10
12.948163
20
23.264473
10
13.066188
20
23.627838
10
13.161781
20
24.003294
10
13.238772
20
24.388469
10
13.299161
20
24.782008
10
13.344187
20
25.182984
10
13.374690
20
25.590688
10
13.391269
20
26.004546
10
13.394367
20
26.424071
10
13.384321
20
26.848835
10
12.646277
20
27.204258
10
12.307919
20
26.947277
10
11.981853
20
26.683285
10
11.668622
20
26.412287
10
11.368885
20
26.134239
10
11.083463
20
25.849032
10
10.813433
20
25.556451
10
10.560295
20
25.256104
10
10.326353
20
24.947273
10
10.115850
20
24.628443
10
9.943735
20
24.293716
10
9.801681
20
23.946663
10
9.659628
20
23.599610
10
7.161915
20
24.473598
10
7.267237
20
24.833503
10
7.372559
20
25.193409
10
7.446693
20
25.562421
10
7.480903
20
25.942939
10
7.490552
20
26.330254
10
7.479904
20
26.722903
10
7.451208
20
27.120013
10
7.405880
20
27.520955
10
7.344895
20
27.925224
10
7.268966
20
28.332395
10
7.178634
20
28.742092
10
7.074320
20
29.153971
10
6.275692
20
29.336252
10
6.003001
20
29.010422
10
5.743853
20
28.680492
10
5.498779
20
28.346588
10
5.268428
20
28.008814
10
5.053626
20
27.667246
10
4.855472
20
27.321912
10
4.675514
20
26.972768
10
4.516159
20
26.619623
10
4.381880
20
26.261945
10
4.288564
20
25.897311
10
4.227299
20
25.527349
10
4.166034
20
25.157388
10
1.536463
20
25.453669
10
1.559058
20
25.827988
10
1.581653
20
26.202307
10
1.571815
20
26.578563
10
1.520494
20
26.957153
10
1.443716
20
27.336904
10
1.345962
20
27.717339
10
1.229620
20
28.098108
10
1.096210
20
28.478910
10
0.946796
20
28.859473
10
0.782167
20
29.239540
10
0.602933
20
29.618864
10
0.409583
20
29.997204
10
-0.409583
20
29.997204
10
-0.602933
20
29.618864
10
-0.782167
20
29.239540
10
-0.946796
20
28.859473
10
-1.096210
20
28.478910
10
-1.229620
20
28.098108
10
-1.345962
20
27.717339
10
-1.443716
20
27.336904
10
-1.520494
20
26.957153
10
-1.571815
20
26.578563
10
-1.581653
20
26.202307
10
-1.559058
20
25.827988
10
-1.536463
20
25.453669
10
-4.166034
20
25.157388
10
-4.227299
20
25.527349
10
-4.288564
20
25.897311
10
-4.381880
20
26.261945
10
-4.516159
20
26.619623
10
-4.675514
20
26.972768
10
-4.855472
20
27.321912
10
-5.053626
20
27.667246
10
-5.268428
20
28.008814
10
-5.498779
20
28.346588
10
-5.743853
20
28.680492
10
-6.003001
20
29.010422
10
-6.275692
20
29.336252
10
-7.074320
20
29.153971
10
-7.178634
20
28.742092
10
-7.268966
20
28.332395
10
-7.344895
20
27.925224
10
-7.405880
20
27.520955
10
-7.451208
20
27.120013
10
-7.479904
20
26.722903
10
-7.490552
20
26.330254
10
-7.480903
20
25.942939
10
-7.446693
20
25.562421
10
-7.372559
20
25.193409
10
-7.267237
20
24.833503
10
-7.161915
20
24.473598
10
-9.659628
20
23.599610
10
-9.801681
20
23.946663
10
-9.943735
20
24.293716
10
-10.115850
20
24.628443
10
-10.326353
20
24.947273
10
-10.560295
20
25.256104
10
-10.813433
20
25.556451
10
-11.083463
20
25.849032
10
-11.368885
20
26.134239
10
-11.668622
20
26.412287
10
-11.981853
20
26.683285
10
-12.307919
20
26.947277
10
-12.646277
20
27.204258
10
-13.384321
20
26.848835
10
-13.394367
20
26.424071
10
-13.391269
20
26.004546
10
-13.374690
20
25.590688
10
-13.344187
20
25.182984
10
-13.299161
20
24.782008
10
-13.238772
20
24.388469
10
-13.161781
20
24.003294
10
-13.066188
20
23.627838
10
-12.948163
20
23.264473
10
-12.793775
20
22.921209
10
-12.611007
20
22.593763
10
-12.428239
20
22.266317
10
-14.668848
20
20.858449
10
-14.884566
20
21.165191
10
-15.100285
20
21.471933
10
-15.342568
20
21.759968
10
-15.618740
20
22.023963
10
-15.915538
20
22.272994
10
-16.229163
20
22.509482
10
-16.557528
20
22.734641
10
-16.899258
20
22.949184
10
-17.253352
20
23.153563
10
-17.619032
20
23.348066
10
-17.995667
20
23.532883
10
-18.382726
20
23.708129
10
-19.023176
20
23.197387
10
-18.938452
20
22.781038
10
-18.842078
20
22.372720
10
-18.733822
20
21.972927
10
-18.613362
20
21.582233
10
-18.480239
20
21.201330
10
-18.333794
20
20.831095
10
-18.173023
20
20.472710
10
-17.996280
20
20.127939
10
-17.800358
20
19.799947
10
-17.573457
20
19.499644
10
-17.322408
20
19.221077
10
-17.071358
20
18.942511
10
-18.942511
20
17.071358
10
-19.221077
20
17.322408
10
-19.499644
20
17.573457
10
-19.799947
20
17.800358
10
-20.127939
20
17.996280
10
-20.472710
20
18.173023
10
-20.831095
20
18.333794
10
-21.201330
20
18.480239
10
-21.582233
20
18.613362
10
-21.972927
20
18.733822
10
-22.372720
20
18.842078
10
-22.781038
20
18.938452
10
-23.197387
20
19.023176
10
-23.708129
20
18.382726
10
-23.532883
20
17.995667
10
-23.348066
20
17.619032
10
-23.153563
20
17.253352
10
-22.949184
20
16.899258
10
-22.734641
20
16.557528
10
-22.509482
20
16.229163
10
-22.272994
20
15.915538
10
-22.023963
20
15.618740
10
-21.759968
20
15.342568
10
-21.471933
20
15.100285
10
-21.165191
20
14.884566
10
-20.858449
20
14.668848
10
-22.266317
20
12.428239
10
-22.593763
20
12.611007
10
-22.921209
20
12.793775
10
-23.264473
20
12.948163
10
-23.627838
20
13.066188
10
-24.003294
20
13.161781
10
-24.388469
20
13.238772
10
-24.782008
20
13.299161
10
-25.182984
20
13.344187
10
-25.590688
20
13.374690
10
-26.004546
20
13.391269
10
-26.424071
20
13.394367
10
-26.848835
20
13.384321
10
-27.204258
20
12.646277
10
-26.947277
20
12.307919
10
-26.683285
20
11.981853
10
-26.412287
20
11.668622
10
-26.134239
20
11.368885
10
-25.849032
20
11.083463
10
-25.556451
20
10.813433
10
-25.256104
20
10.560295
10
-24.947273
20
10.326353
10
-24.628443
20
10.115850
10
-24.293716
20
9.943735
10
-23.946663
20
9.801681
10
-23.599610
20
9.659628
10
-24.473598
20
7.161915
10
-24.833503
20
7.267237
10
-25.193409
20
7.372559
10
-25.562421
20
7.446693
10
-25.942939
20
7.480903
10
-26.330254
20
7.490552
10
-26.722903
20
7.479904
10
-27.120013
20
7.451208
10
-27.520955
20
7.405880
10
-27.925224
20
7.344895
10
-28.332395
20
7.268966
10
-28.742092
20
7.178634
10
-29.153971
20
7.074320
10
-29.336252
20
6.275692
10
-29.010422
20
6.003001
10
-28.680492
20
5.743853
10
-28.346588
20
5.498779
10
-28.008814
20
5.268428
10
-27.667246
20
5.053626
10
-27.321912
20
4.855472
10
-26.972768
20
4.675514
10
-26.619623
20
4.516159
10
-26.261945
20
4.381880
10
-25.897311
20
4.288564
10
-25.527349
20
4.227299
10
-25.157388
20
4.166034
10
-25.453669
20
1.536463
10
-25.827988
20
1.559058
10
-26.202307
20
1.581653
10
-26.578563
20
1.571815
10
-26.957153
20
1.520494
10
-27.336904
20
1.443716
10
-27.717339
20
1.345962
10
-28.098108
20
1.229620
10
-28.478910
20
1.096210
10
-28.859473
20
0.946796
10
-29.239540
20
0.782167
10
-29.618864
20
0.602933
10
-29.997204
20
0.409583
10
-29.997204
20
-0.409583
10
-29.618864
20
-0.602933
10
-29.239540
20
-0.782167
10
-28.859473
20
-0.946796
10
-28.478910
20
-1.096210
10
-28.098108
20
-1.229620
10
-27.717339
20
-1.345962
10
-27.336904
20
-1.443716
10
-26.957153
20
-1.520494
10
-26.578563
20
-1.571815
10
-26.202307
20
-1.581653
10
-25.827988
20
-1.559058
10
-25.453669
20
-1.536463
10
-25.157388
20
-4.166034
10
-25.527349
20
-4.227299
10
-25.897311
20
-4.288564
10
-26.261945
20
-4.381880
10
-26.619623
20
-4.516159
10
-26.972768
20
-4.675514
10
-27.321912
20
-4.855472
10
-27.667246
20
-5.053626
10
-28.008814
20
-5.268428
10
-28.346588
20
-5.498779
10
-28.680492
20
-5.743853
10
-29.010422
20
-6.003001
10
-29.336252
20
-6.275692
10
-29.153971
20
-7.074320
10
-28.742092
20
-7.178634
10
-28.332395
20
-7.268966
10
-27.925224
20
-7.344895
10
-27.520955
20
-7.405880
10
-27.120013
20
-7.451208
10
-26.722903
20
-7.479904
10
-26.330254
20
-7.490552
10
-25.942939
20
-7.480903
10
-25.562421
20
-7.446693
10
-25.193409
20
-7.372559
10
-24.833503
20
-7.267237
10
-24.473598
20
-7.161915
10
-23.599610
20
-9.659628
10
-23.946663
20
-9.801681
10
-24.293716
20
-9.943735
10
-24.628443
20
-10.115850
10
-24.947273
20
-10.326353
10
-25.256104
20
-10.560295
10
-25.556451
20
-10.813433
10
-25.849032
20
-11.083463
10
-26.134239
20
-11.368885
10
-26.412287
20
-11.668622
10
-26.683285
20
-11.981853
10
-26.947277
20
-12.307919
10
-27.204258
20
-12.646277
10
-26.848835
20
-13.384321
10
-26.424071
20
-13.394367
10
-26.004546
20
-13.391269
10
-25.590688
20
-13.374690
10
-25.182984
20
-13.344187
10
-24.782008
20
-13.299161
10
-24.388469
20
-13.238772
10
-24.003294
20
-13.161781
10
-23.627838
20
-13.066188
10
-23.264473
20
-12.948163
10
-22.921209
20
-12.793775
10
-22.593763
20
-12.611007
10
-22.266317
20
-12.428239
10
-20.858449
20
-14.668848
10
-21.165191
20
-14.884566
10
-21.471933
20
-15.100285
10
-21.759968
20
-15.342568
10
-22.023963
20
-15.618740
10
-22.272994
20
-15.915538
10
-22.509482
20
-16.229163
10
-22.734641
20
-16.557528
10
-22.949184
20
-16.899258
10
-23.153563
20
-17.253352
10
-23.348066
20
-17.619032
10
-23.532883
20
-17.995667
10
-23.708129
20
-18.382726
10
-23.197387
20
-19.023176
10
-22.781038
20
-18.938452
10
-22.372720
20
-18.842078
10
-21.972927
20
-18.733822
10
-21.582233
20
-18.613362
10
-21.201330
20
-18.480239
10
-20.831095
20
-18.333794
10
-20.472710
20
-18.173023
10
-20.127939
20
-17.996280
10
-19.799947
20
-17.800358
10
-19.499644
20
-17.573457
10
-19.221077
20
-17.322408
10
-18.942511
20
-17.071358
10
-17.071358
20
-18.942511
10
-17.322408
20
-19.221077
10
-17.573457
20
-19.499644
10
-17.800358
20
-19.799947
10
-17.996280
20
-20.127939
10
-18.173023
20
-20.472710
10
-18.333794
20
-20.831095
10
-18.480239
20
-21.201330
10
-18.613362
20
-21.582233
10
-18.733822
20
-21.972927
10
-18.842078
20
-22.372720
10
-18.938452
20
-22.781038
10
-19.023176
20
-23.197387
10
-18.382726
20
-23.708129
10
-17.995667
20
-23.532883
10
-17.619032
20
-23.348066
10
-17.253352
20
-23.153563
10
-16.899258
20
-22.949184
10
-16.557528
20
-22.734641
10
-16.229163
20
-22.509482
10
-15.915538
20
-22.272994
10
-15.618740
20
-22.023963
10
-15.342568
20
-21.759968
10
-15.100285
20
-21.471933
10
-14.884566
20
-21.165191
10
-14.668848
20
-20.858449
10
-12.428239
20
-22.266317
10
-12.611007
20
-22.593763
10
-12.793775
20
-22.921209
10
-12.948163
20
-23.264473
10
-13.066188
20
-23.627838
10
-13.161781
20
-24.003294
10
-13.238772
20
-24.388469
10
-13.299161
20
-24.782008
10
-13.344187
20
-25.182984
10
-13.374690
20
-25.590688
10
-13.391269
20
-26.004546
10
-13.394367
20
-26.424071
10
-13.384321
20
-26.848835
10
-12.646277
20
-27.204258
10
-12.307919
20
-26.947277
10
-11.981853
20
-26.683285
10
-11.668622
20
-26.412287
10
-11.368885
20
-26.134239
10
-11.083463
20
-25.849032
10
-10.813433
20
-25.556451
10
-10.560295
20
-25.256104
10
-10.326353
20
-24.947273
10
-10.115850
20
-24.628443
10
-9.943735
20
-24.293716
10
-9.801681
20
-23.946663
10
-9.659628
20
-23.599610
10
-7.161915
20
-24.473598
10
-7.267237
20
-24.833503
10
-7.372559
20
-25.193409
10
-7.446693
20
-25.562421
10
-7.480903
20
-25.942939
10
-7.490552
20
-26.330254
10
-7.479904
20
-26.722903
10
-7.451208
20
-27.120013
10
-7.405880
20
-27.520955
10
-7.344895
20
-27.925224
10
-7.268966
20
-28.332395
10
-7.178634
20
-28.742092
10
-7.074320
20
-29.153971
10
-6.275692
20
-29.336252
10
-6.003001
20
-29.010422
10
-5.743853
20
-28.680492
10
-5.498779
20
-28.346588
10
-5.268428
20
-28.008814
10
-5.053626
20
-27.667246
10
-4.855472
20
-27.321912
10
-4.675514
20
-26.972768
10
-4.516159
20
-26.619623
10
-4.381880
20
-26.261945
10
-4.288564
20
-25.897311
10
-4.227299
20
-25.527349
10
-4.166034
20
-25.157388
10
-1.536463
20
-25.453669
10
-1.559058
20
-25.827988
10
-1.581653
20
-26.202307
10
-1.571815
20
-26.578563
10
-1.520494
20
-26.957153
10
-1.443716
20
-27.336904
10
-1.345962
20
-27.717339
10
-1.229620
20
-28.098108
10
-1.096210
20
-28.478910
10
-0.946796
20
-28.859473
10
-0.782167
20
-29.239540
10
-0.602933
20
-29.618864
10
-0.409583
20
-29.997204
10
0.409583
20
-29.997204
10
0.602933
20
-29.618864
10
0.782167
20
-29.239540
10
0.946796
20
-28.859473
10
1.096210
20
-28.478910
10
1.229620
20
-28.098108
10
1.345962
20
-27.717339
10
1.443716
20
-27.336904
10
1.520494
20
-26.957153
10
1.571815
20
-26.578563
10
1.581653
20
-26.202307
10
1.559058
20
-25.827988
10
1.536463
20
-25.453669
10
4.166034
20
-25.157388
10
4.227299
20
-25.527349
10
4.288564
20
-25.897311
10
4.381880
20
-26.261945
10
4.516159
20
-26.619623
10
4.675514
20
-26.972768
10
4.855472
20
-27.321912
10
5.053626
20
-27.667246
10
5.268428
20
-28.008814
10
5.498779
20
-28.346588
10
5.743853
20
-28.680492
10
6.003001
20
-29.010422
10
6.275692
20
-29.336252
10
7.074320
20
-29.153971
10
7.178634
20
-28.742092
10
7.268966
20
-28.332395
10
7.344895
20
-27.925224
10
7.405880
20
-27.520955
10
7.451208
20
-27.120013
10
7.479904
20
-26.722903
10
7.490552
20
-26.330254
10
7.480903
20
-25.942939
10
7.446693
20
-25.562421
10
7.372559
20
-25.193409
10
7.267237
20
-24.833503
10
7.161915
20
-24.473598
10
9.659628
20
-23.599610
10
9.801681
20
-23.946663
10
9.943735
20
-24.293716
10
10.115850
20
-24.628443
10
10.326353
20
-24.947273
10
10.560295
20
-25.256104
10
10.813433
20
-25.556451
10
11.083463
20
-25.849032
10
11.368885
20
-26.134239
10
11.668622
20
-26.412287
10
11.981853
20
-26.683285
10
12.307919
20
-26.947277
10
12.646277
20
-27.204258
10
13.384321
20
-26.848835
10
13.394367
20
-26.424071
10
13.391269
20
-26.004546
10
13.374690
20
-25.590688
10
13.344187
20
-25.182984
10
13.299161
20
-24.782008
10
13.238772
20
-24.388469
10
13.161781
20
-24.003294
10
13.066188
20
-23.627838
10
12.948163
20
-23.264473
10
12.793775
20
-22.921209
10
12.611007
20
-22.593763
10
12.428239
20
-22.266317
10
14.668848
20
-20.858449
10
14.884566
20
-21.165191
10
15.100285
20
-21.471933
10
15.342568
20
-21.759968
10
15.618740
20
-22.023963
10
15.915538
20
-22.272994
10
16.229163
20
-22.509482
10
16.557528
20
-22.734641
10
16.899258
20
-22.949184
10
17.253352
20
-23.153563
10
17.619032
20
-23.348066
10
17.995667
20
-23.532883
10
18.382726
20
-23.708129
10
19.023176
20
-23.197387
10
18.938452
20
-22.781038
10
18.842078
20
-22.372720
10
18.733822
20
-21.972927
10
18.613362
20
-21.582233
10
18.480239
20
-21.201330
10
18.333794
20
-20.831095
10
18.173023
20
-20.472710
10
17.996280
20
-20.127939
10
17.800358
20
-19.799947
10
17.573457
20
-19.499644
10
17.322408
20
-19.221077
10
17.071358
20
-18.942511
10
18.942511
20
-17.071358
10
19.221077
20
-17.322408
10
19.499644
20
-17.573457
10
19.799947
20
-17.800358
10
20.127939
20
-17.996280
10
20.472710
20
-18.173023
10
20.831095
20
-18.333794
10
21.201330
20
-18.480239
10
21.582233
20
-18.613362
10
21.972927
20
-18.733822
10
22.372720
20
-18.842078
10
22.781038
20
-18.938452
10
23.197387
20
-19.023176
10
23.708129
20
-18.382726
10
23.532883
20
-17.995667
10
23.348066
20
-17.619032
10
23.153563
20
-17.253352
10
22.949184
20
-16.899258
10
22.734641
20
-16.557528
10
22.509482
20
-16.229163
10
22.272994
20
-15.915538
10
22.023963
20
-15.618740
10
21.759968
20
-15.342568
10
21.471933
20
-15.100285
10
21.165191
20
-14.884566
10
20.858449
20
-14.668848
10
22.266317
20
-12.428239
10
22.593763
20
-12.611007
10
22.921209
20
-12.793775
10
23.264473
20
-12.948163
10
23.627838
20
-13.066188
10
24.003294
20
-13.161781
10
24.388469
20
-13.238772
10
24.782008
20
-13.299161
10
25.182984
20
-13.344187
10
25.590688
20
-13.374690
10
26.004546
20
-13.391269
10
26.424071
20
-13.394367
10
26.848835
20
-13.384321
10
27.204258
20
-12.646277
10
26.947277
20
-12.307919
10
26.683285
20
-11.981853
10
26.412287
20
-11.668622
10
26.134239
20
-11.368885
10
25.849032
20
-11.083463
10
25.556451
20
-10.813433
10
25.256104
20
-10.560295
10
24.947273
20
-10.326353
10
24.628443
20
-10.115850
10
24.293716
20
-9.943735
10
23.946663
20
-9.801681
10
23.599610
20
-9.659628
10
24.473598
20
-7.161915
10
24.833503
20
-7.267237
10
25.193409
20
-7.372559
10
25.562421
20
-7.446693
10
25.942939
20
-7.480903
10
26.330254
20
-7.490552
10
26.722903
20
-7.479904
10
27.120013
20
-7.451208
10
27.520955
20
-7.405880
10
27.925224
20
-7.344895
10
28.332395
20
-7.268966
10
28.742092
20
-7.178634
10
29.153971
20
-7.074320
10
29.336252
20
-6.275692
10
29.010422
20
-6.003001
10
28.680492
20
-5.743853
10
28.346588
20
-5.498779
10
28.008814
20
-5.268428
10
27.667246
20
-5.053626
10
27.321912
20
-4.855472
10
26.972768
20
-4.675514
10
26.619623
20
-4.516159
10
26.261945
20
-4.381880
10
25.897311
20
-4.288564
10
25.527349
20
-4.227299
10
25.157388
20
-4.166034
0
ENDSEC
0
EOF
