0
SECTION
2
HEADER
9
$ACADVER
1
AC1015
0
ENDSEC
0
SECTION
2
ENTITIES
0
LWPOLYLINE
5
64
100
AcDbEntity
8
0
100
AcDbPolyline
90
364
70
1
10
22.844390
20
-2.670926
10
23.589316
20
-2.758022
10
24.334241
20
-2.845117
10
25.079167
20
-2.932213
10
25.824093
20
-3.019308
10
26.575222
20
-3.052884
10
27.341208
20
-2.950995
10
28.114094
20
-2.767711
10
28.890526
20
-2.517442
10
29.668024
20
-2.207002
10
30.444422
20
-1.840434
10
31.217701
20
-1.420439
10
31.985926
20
-0.948965
10
31.985926
20
0.948965
10
31.217701
20
1.420439
10
30.444422
20
1.840434
10
29.668024
20
2.207002
10
28.890526
20
2.517442
10
28.114094
20
2.767711
10
27.341208
20
2.950995
10
26.575222
20
3.052884
10
25.824093
20
3.019308
10
25.079167
20
2.932213
10
24.334241
20
2.845117
10
23.589316
20
2.758022
10
22.844390
20
2.670926
10
21.740956
20
7.505388
10
22.449900
20
7.750129
10
23.158844
20
7.994870
10
23.867788
20
8.239611
10
24.576732
20
8.484351
10
25.268044
20
8.780003
10
25.913966
20
9.204151
10
26.530788
20
9.704627
10
27.121742
20
10.266992
10
27.687548
20
10.884033
10
28.228010
20
11.551166
10
28.742482
20
12.265082
10
29.230064
20
13.023185
10
28.406583
20
14.733161
10
27.509871
20
14.824624
10
26.630942
20
14.867513
10
25.772384
20
14.860913
10
24.937187
20
14.803267
10
24.129059
20
14.691869
10
23.353188
20
14.521660
10
22.618851
20
14.281110
10
21.956675
20
13.924957
10
21.323310
20
13.523275
10
20.689944
20
13.121594
10
20.056578
20
12.719912
10
19.423213
20
12.318231
10
16.331458
20
16.195168
10
16.864006
20
16.723271
10
17.396554
20
17.251375
10
17.929101
20
17.779478
10
18.461649
20
18.307581
10
18.956220
20
18.873903
10
19.354145
20
19.536302
10
19.692734
20
20.254844
10
19.981164
20
21.017923
10
20.223214
20
21.819352
10
20.420696
20
22.654915
10
20.574462
20
23.521352
10
20.684830
20
24.415934
10
19.200968
20
25.599274
10
18.353374
20
25.292611
10
17.542877
20
24.949899
10
16.772207
20
24.571438
10
16.044733
20
24.157122
10
15.364968
20
23.706123
10
14.739783
20
23.216132
10
14.182539
20
22.680787
10
13.740469
20
22.072597
10
13.344109
20
21.435887
10
12.947749
20
20.799178
10
12.551390
20
20.162468
10
12.155030
20
19.525759
10
7.687316
20
21.677296
10
7.937989
20
22.384165
10
8.188662
20
23.091033
10
8.439336
20
23.797901
10
8.690009
20
24.504770
10
8.889885
20
25.229595
10
8.960998
20
25.999048
10
8.954293
20
26.793341
10
8.883072
20
27.605996
10
8.753424
20
28.433081
10
8.568812
20
29.271581
10
8.331417
20
30.118931
10
8.042711
20
30.972807
10
6.192365
20
31.395137
10
5.561767
20
30.751085
10
4.980231
20
30.090651
10
4.450089
20
29.415289
10
3.974422
20
28.726364
10
3.557656
20
28.025088
10
3.206984
20
27.312365
10
2.937202
20
26.588256
10
2.802794
20
25.848488
10
2.721944
20
25.102859
10
2.641094
20
24.357229
10
2.560244
20
23.611600
10
2.479394
20
22.865970
10
-2.479394
20
22.865970
10
-2.560244
20
23.611600
10
-2.641094
20
24.357229
10
-2.721944
20
25.102859
10
-2.802794
20
25.848488
10
-2.937202
20
26.588256
10
-3.206984
20
27.312365
10
-3.557656
20
28.025088
10
-3.974422
20
28.726364
10
-4.450089
20
29.415289
10
-4.980231
20
30.090651
10
-5.561767
20
30.751085
10
-6.192365
20
31.395137
10
-8.042711
20
30.972807
10
-8.331417
20
30.118931
10
-8.568812
20
29.271581
10
-8.753424
20
28.433081
10
-8.883072
20
27.605996
10
-8.954293
20
26.793341
10
-8.960998
20
25.999048
10
-8.889885
20
25.229595
10
-8.690009
20
24.504770
10
-8.439336
20
23.797901
10
-8.188662
20
23.091033
10
-7.937989
20
22.384165
10
-7.687316
20
21.677296
10
-12.155030
20
19.525759
10
-12.551390
20
20.162468
10
-12.947749
20
20.799178
10
-13.344109
20
21.435887
10
-13.740469
20
22.072597
10
-14.182539
20
22.680787
10
-14.739783
20
23.216132
10
-15.364968
20
23.706123
10
-16.044733
20
24.157122
10
-16.772207
20
24.571438
10
-17.542877
20
24.949899
10
-18.353374
20
25.292611
10
-19.200968
20
25.599274
10
-20.684830
20
24.415934
10
-20.574462
20
23.521352
10
-20.420696
20
22.654915
10
-20.223214
20
21.819352
10
-19.981164
20
21.017923
10
-19.692734
20
20.254844
10
-19.354145
20
19.536302
10
-18.956220
20
18.873903
10
-18.461649
20
18.307581
10
-17.929101
20
17.779478
10
-17.396554
20
17.251375
10
-16.864006
20
16.723271
10
-16.331458
20
16.195168
10
-19.423213
20
12.318231
10
-20.056578
20
12.719912
10
-20.689944
20
13.121594
10
-21.323310
20
13.523275
10
-21.956675
20
13.924957
10
-22.618851
20
14.281110
10
-23.353188
20
14.521660
10
-24.129059
20
14.691869
10
-24.937187
20
14.803267
10
-25.772384
20
14.860913
10
-26.630942
20
14.867513
10
-27.509871
20
14.824624
10
-28.406583
20
14.733161
10
-29.230064
20
13.023185
10
-28.742482
20
12.265082
10
-28.228010
20
11.551166
10
-27.687548
20
10.884033
10
-27.121742
20
10.266992
10
-26.530788
20
9.704627
10
-25.913966
20
9.204151
10
-25.268044
20
8.780003
10
-24.576732
20
8.484351
10
-23.867788
20
8.239611
10
-23.158844
20
7.994870
10
-22.449900
20
7.750129
10
-21.740956
20
7.505388
10
-22.844390
20
2.670926
10
-23.589316
20
2.758022
10
-24.334241
20
2.845117
10
-25.079167
20
2.932213
10
-25.824093
20
3.019308
10
-26.575222
20
3.052884
10
-27.341208
20
2.950995
10
-28.114094
20
2.767711
10
-28.890526
20
2.517442
10
-29.668024
20
2.207002
10
-30.444422
20
1.840434
10
-31.217701
20
1.420439
10
-31.985926
20
0.948965
10
-31.985926
20
-0.948965
10
-31.217701
20
-1.420439
10
-30.444422
20
-1.840434
10
-29.668024
20
-2.207002
10
-28.890526
20
-2.517442
10
-28.114094
20
-2.767711
10
-27.341208
20
-2.950995
10
-26.575222
20
-3.052884
10
-25.824093
20
-3.019308
10
-25.079167
20
-2.932213
10
-24.334241
20
-2.845117
10
-23.589316
20
-2.758022
10
-22.844390
20
-2.670926
10
-21.740956
20
-7.505388
10
-22.449900
20
-7.750129
10
-23.158844
20
-7.994870
10
-23.867788
20
-8.239611
10
-24.576732
20
-8.484351
10
-25.268044
20
-8.780003
10
-25.913966
20
-9.204151
10
-26.530788
20
-9.704627
10
-27.121742
20
-10.266992
10
-27.687548
20
-10.884033
10
-28.228010
20
-11.551166
10
-28.742482
20
-12.265082
10
-29.230064
20
-13.023185
10
-28.406583
20
-14.733161
10
-27.509871
20
-14.824624
10
-26.630942
20
-14.867513
10
-25.772384
20
-14.860913
10
-24.937187
20
-14.803267
10
-24.129059
20
-14.691869
10
-23.353188
20
-14.521660
10
-22.618851
20
-14.281110
10
-21.956675
20
-13.924957
10
-21.323310
20
-13.523275
10
-20.689944
20
-13.121594
10
-20.056578
20
-12.719912
10
-19.423213
20
-12.318231
10
-16.331458
20
-16.195168
10
-16.864006
20
-16.723271
10
-17.396554
20
-17.251375
10
-17.929101
20
-17.779478
10
-18.461649
20
-18.307581
10
-18.956220
20
-18.873903
10
-19.354145
20
-19.536302
10
-19.692734
20
-20.254844
10
-19.981164
20
-21.017923
10
-20.223214
20
-21.819352
10
-20.420696
20
-22.654915
10
-20.574462
20
-23.521352
10
-20.684830
20
-24.415934
10
-19.200968
20
-25.599274
10
-18.353374
20
-25.292611
10
-17.542877
20
-24.949899
10
-16.772207
20
-24.571438
10
-16.044733
20
-24.157122
10
-15.364968
20
-23.706123
10
-14.739783
20
-23.216132
10
-14.182539
20
-22.680787
10
-13.740469
20
-22.072597
10
-13.344109
20
-21.435887
10
-12.947749
20
-20.799178
10
-12.551390
20
-20.162468
10
-12.155030
20
-19.525759
10
-7.687316
20
-21.677296
10
-7.937989
20
-22.384165
10
-8.188662
20
-23.091033
10
-8.439336
20
-23.797901
10
-8.690009
20
-24.504770
10
-8.889885
20
-25.229595
10
-8.960998
20
-25.999048
10
-8.954293
20
-26.793341
10
-8.883072
20
-27.605996
10
-8.753424
20
-28.433081
10
-8.568812
20
-29.271581
10
-8.331417
20
-30.118931
10
-8.042711
20
-30.972807
10
-6.192365
20
-31.395137
10
-5.561767
20
-30.751085
10
-4.980231
20
-30.090651
10
-4.450089
20
-29.415289
10
-3.974422
20
-28.726364
10
-3.557656
20
-28.025088
10
-3.206984
20
-27.312365
10
-2.937202
20
-26.588256
10
-2.802794
20
-25.848488
10
-2.721944
20
-25.102859
10
-2.641094
20
-24.357229
10
-2.560244
20
-23.611600
10
-2.479394
20
-22.865970
10
2.479394
20
-22.865970
10
2.560244
20
-23.611600
10
2.641094
20
-24.357229
10
2.721944
20
-25.102859
10
2.802794
20
-25.848488
10
2.937202
20
-26.588256
10
3.206984
20
-27.312365
10
3.557656
20
-28.025088
10
3.974422
20
-28.726364
10
4.450089
20
-29.415289
10
4.980231
20
-30.090651
10
5.561767
20
-30.751085
10
6.192365
20
-31.395137
10
8.042711
20
-30.972807
10
8.331417
20
-30.118931
10
8.568812
20
-29.271581
10
8.753424
20
-28.433081
10
8.883072
20
-27.605996
10
8.954293
20
-26.793341
10
8.960998
20
-25.999048
10
8.889885
20
-25.229595
10
8.690009
20
-24.504770
10
8.439336
20
-23.797901
10
8.188662
20
-23.091033
10
7.937989
20
-22.384165
10
7.687316
20
-21.677296
10
12.155030
20
-19.525759
10
12.551390
20
-20.162468
10
12.947749
20
-20.799178
10
13.344109
20
-21.435887
10
13.740469
20
-22.072597
10
14.182539
20
-22.680787
10
14.739783
20
-23.216132
10
15.364968
20
-23.706123
10
16.044733
20
-24.157122
10
16.772207
20
-24.571438
10
17.542877
20
-24.949899
10
18.353374
20
-25.292611
10
19.200968
20
-25.599274
10
20.684830
20
-24.415934
10
20.574462
20
-23.521352
10
20.420696
20
-22.654915
10
20.223214
20
-21.819352
10
19.981164
20
-21.017923
10
19.692734
20
-20.254844
10
19.354145
20
-19.536302
10
18.956220
20
-18.873903
10
18.461649
20
-18.307581
10
17.929101
20
-17.779478
10
17.396554
20
-17.251375
10
16.864006
20
-16.723271
10
16.331458
20
-16.195168
10
19.423213
20
-12.318231
10
20.056578
20
-12.719912
10
20.689944
20
-13.121594
10
21.323310
20
-13.523275
10
21.956675
20
-13.924957
10
22.618851
20
-14.281110
10
23.353188
20
-14.521660
10
24.129059
20
-14.691869
10
24.937187
20
-14.803267
10
25.772384
20
-14.860913
10
26.630942
20
-14.867513
10
27.509871
20
-14.824624
10
28.406583
20
-14.733161
10
29.230064
20
-13.023185
10
28.742482
20
-12.265082
10
28.228010
20
-11.551166
10
27.687548
20
-10.884033
10
27.121742
20
-10.266992
10
26.530788
20
-9.704627
10
25.913966
20
-9.204151
10
25.268044
20
-8.780003
10
24.576732
20
-8.484351
10
23.867788
20
-8.239611
10
23.158844
20
-7.994870
10
22.449900
20
-7.750129
10
21.740956
20
-7.505388
0
ENDSEC
0
EOF
