0
SECTION
2
HEADER
9
$ACADVER
1
AC1015
0
ENDSEC
0
SECTION
2
ENTITIES
0
LWPOLYLINE
5
64
100
AcDbEntity
8
0
100
AcDbPolyline
90
728
70
1
10
25.448020
20
-1.627359
10
25.822255
20
-1.651291
10
26.196491
20
-1.675222
10
26.572780
20
-1.666728
10
26.951551
20
-1.616759
10
27.331573
20
-1.541338
10
27.712355
20
-1.444944
10
28.093537
20
-1.329962
10
28.474813
20
-1.197913
10
28.855908
20
-1.049859
10
29.236560
20
-0.886589
10
29.616522
20
-0.708711
10
29.995550
20
-0.516713
10
29.995550
20
0.516713
10
29.616522
20
0.708711
10
29.236560
20
0.886589
10
28.855908
20
1.049859
10
28.474813
20
1.197913
10
28.093537
20
1.329962
10
27.712355
20
1.444944
10
27.331573
20
1.541338
10
26.951551
20
1.616759
10
26.572780
20
1.666728
10
26.196491
20
1.675222
10
25.822255
20
1.651291
10
25.448020
20
1.627359
10
25.172106
20
4.076159
10
25.542284
20
4.136103
10
25.912462
20
4.196047
10
26.277427
20
4.288060
10
26.635582
20
4.421060
10
26.989294
20
4.579154
10
27.339079
20
4.757863
10
27.685118
20
4.954783
10
28.027451
20
5.168363
10
28.366046
20
5.397506
10
28.700823
20
5.641387
10
29.031677
20
5.899354
10
29.358478
20
6.170880
10
29.128519
20
7.178396
10
28.716271
20
7.281238
10
28.306254
20
7.370107
10
27.898814
20
7.444581
10
27.494330
20
7.504121
10
27.093229
20
7.548017
10
26.696019
20
7.575295
10
26.303334
20
7.584541
10
25.916056
20
7.573508
10
25.535663
20
7.537940
10
25.166918
20
7.462489
10
24.807391
20
7.355882
10
24.447863
20
7.249275
10
23.633958
20
9.575282
10
23.981516
20
9.716095
10
24.329074
20
9.856908
10
24.664414
20
10.027827
10
24.983994
20
10.237190
10
25.293658
20
10.470027
10
25.594907
20
10.722091
10
25.888451
20
10.991074
10
26.174676
20
11.275476
10
26.453792
20
11.574219
10
26.725907
20
11.886479
10
26.991062
20
12.211601
10
27.249250
20
12.549039
10
26.800863
20
13.480124
10
26.376066
20
13.488653
10
25.956554
20
13.484057
10
25.542758
20
13.466000
10
25.135165
20
13.434041
10
24.734353
20
13.387583
10
24.341032
20
13.325790
10
23.956135
20
13.247423
10
23.581023
20
13.150489
10
23.218081
20
13.031168
10
22.875371
20
12.875555
10
22.548580
20
12.691618
10
22.221789
20
12.507682
10
20.910705
20
14.594260
10
21.218215
20
14.808882
10
21.525725
20
15.023503
10
21.814624
20
15.264757
10
22.079604
20
15.539984
10
22.329693
20
15.835891
10
22.567299
20
16.148669
10
22.793630
20
16.476228
10
23.009392
20
16.817189
10
23.215034
20
17.170551
10
23.410842
20
17.535534
10
23.597003
20
17.911507
10
23.773631
20
18.297937
10
23.129300
20
19.105902
10
22.713255
20
19.019692
10
22.305284
20
18.921860
10
21.905881
20
18.812177
10
21.515619
20
18.690322
10
21.135194
20
18.555840
10
20.765484
20
18.408073
10
20.407676
20
18.246024
10
20.063538
20
18.068050
10
19.736248
20
17.870958
10
19.436757
20
17.642986
10
19.159089
20
17.390944
10
18.881421
20
17.138901
10
17.138901
20
18.881421
10
17.390944
20
19.159089
10
17.642986
20
19.436757
10
17.870958
20
19.736248
10
18.068050
20
20.063538
10
18.246024
20
20.407676
10
18.408073
20
20.765484
10
18.555840
20
21.135194
10
18.690322
20
21.515619
10
18.812177
20
21.905881
10
18.921860
20
22.305284
10
19.019692
20
22.713255
10
19.105902
20
23.129300
10
18.297937
20
23.773631
10
17.911507
20
23.597003
10
17.535534
20
23.410842
10
17.170551
20
23.215034
10
16.817189
20
23.009392
10
16.476228
20
22.793630
10
16.148669
20
22.567299
10
15.835891
20
22.329693
10
15.539984
20
22.079604
10
15.264757
20
21.814624
10
15.023503
20
21.525725
10
14.808882
20
21.218215
10
14.594260
20
20.910705
10
12.507682
20
22.221789
10
12.691618
20
22.548580
10
12.875555
20
22.875371
10
13.031168
20
23.218081
10
13.150489
20
23.581023
10
13.247423
20
23.956135
10
13.325790
20
24.341032
10
13.387583
20
24.734353
10
13.434041
20
25.135165
10
13.466000
20
25.542758
10
13.484057
20
25.956554
10
13.488653
20
26.376066
10
13.480124
20
26.800863
10
12.549039
20
27.249250
10
12.211601
20
26.991062
10
11.886479
20
26.725907
10
11.574219
20
26.453792
10
11.275476
20
26.174676
10
10.991074
20
25.888451
10
10.722091
20
25.594907
10
10.470027
20
25.293658
10
10.237190
20
24.983994
10
10.027827
20
24.664414
10
9.856908
20
24.329074
10
9.716095
20
23.981516
10
9.575282
20
23.633958
10
7.249275
20
24.447863
10
7.355882
20
24.807391
10
7.462489
20
25.166918
10
7.537940
20
25.535663
10
7.573508
20
25.916056
10
7.584541
20
26.303334
10
7.575295
20
26.696019
10
7.548017
20
27.093229
10
7.504121
20
27.494330
10
7.444581
20
27.898814
10
7.370107
20
28.306254
10
7.281238
20
28.716271
10
7.178396
20
29.128519
10
6.170880
20
29.358478
10
5.899354
20
29.031677
10
5.641387
20
28.700823
10
5.397506
20
28.366046
10
5.168363
20
28.027451
10
4.954783
20
27.685118
10
4.757863
20
27.339079
10
4.579154
20
26.989294
10
4.421060
20
26.635582
10
4.288060
20
26.277427
10
4.196047
20
25.912462
10
4.136103
20
25.542284
10
4.076159
20
25.172106
10
1.627359
20
25.448020
10
1.651291
20
25.822255
10
1.675222
20
26.196491
10
1.666728
20
26.572780
10
1.616759
20
26.951551
10
1.541338
20
27.331573
10
1.444944
20
27.712355
10
1.329962
20
28.093537
10
1.197913
20
28.474813
10
1.049859
20
28.855908
10
0.886589
20
29.236560
10
0.708711
20
29.616522
10
0.516713
20
29.995550
10
-0.516713
20
29.995550
10
-0.708711
20
29.616522
10
-0.886589
20
29.236560
10
-1.049859
20
28.855908
10
-1.197913
20
28.474813
10
-1.329962
20
28.093537
10
-1.444944
20
27.712355
10
-1.541338
20
27.331573
10
-1.616759
20
26.951551
10
-1.666728
20
26.572780
10
-1.675222
20
26.196491
10
-1.651291
20
25.822255
10
-1.627359
20
25.448020
10
-4.076159
20
25.172106
10
-4.136103
20
25.542284
10
-4.196047
20
25.912462
10
-4.288060
20
26.277427
10
-4.421060
20
26.635582
10
-4.579154
20
26.989294
10
-4.757863
20
27.339079
10
-4.954783
20
27.685118
10
-5.168363
20
28.027451
10
-5.397506
20
28.366046
10
-5.641387
20
28.700823
10
-5.899354
20
29.031677
10
-6.170880
20
29.358478
10
-7.178396
20
29.128519
10
-7.281238
20
28.716271
10
-7.370107
20
28.306254
10
-7.444581
20
27.898814
10
-7.504121
20
27.494330
10
-7.548017
20
27.093229
10
-7.575295
20
26.696019
10
-7.584541
20
26.303334
10
-7.573508
20
25.916056
10
-7.537940
20
25.535663
10
-7.462489
20
25.166918
10
-7.355882
20
24.807391
10
-7.249275
20
24.447863
10
-9.575282
20
23.633958
10
-9.716095
20
23.981516
10
-9.856908
20
24.329074
10
-10.027827
20
24.664414
10
-10.237190
20
24.983994
10
-10.470027
20
25.293658
10
-10.722091
20
25.594907
10
-10.991074
20
25.888451
10
-11.275476
20
26.174676
10
-11.574219
20
26.453792
10
-11.886479
20
26.725907
10
-12.211601
20
26.991062
10
-12.549039
20
27.249250
10
-13.480124
20
26.800863
10
-13.488653
20
26.376066
10
-13.484057
20
25.956554
10
-13.466000
20
25.542758
10
-13.434041
20
25.135165
10
-13.387583
20
24.734353
10
-13.325790
20
24.341032
10
-13.247423
20
23.956135
10
-13.150489
20
23.581023
10
-13.031168
20
23.218081
10
-12.875555
20
22.875371
10
-12.691618
20
22.548580
10
-12.507682
20
22.221789
10
-14.594260
20
20.910705
10
-14.808882
20
21.218215
10
-15.023503
20
21.525725
10
-15.264757
20
21.814624
10
-15.539984
20
22.079604
10
-15.835891
20
22.329693
10
-16.148669
20
22.567299
10
-16.476228
20
22.793630
10
-16.817189
20
23.009392
10
-17.170551
20
23.215034
10
-17.535534
20
23.410842
10
-17.911507
20
23.597003
10
-18.297937
20
23.773631
10
-19.105902
20
23.129300
10
-19.019692
20
22.713255
10
-18.921860
20
22.305284
10
-18.812177
20
21.905881
10
-18.690322
20
21.515619
10
-18.555840
20
21.135194
10
-18.408073
20
20.765484
10
-18.246024
20
20.407676
10
-18.068050
20
20.063538
10
-17.870958
20
19.736248
10
-17.642986
20
19.436757
10
-17.390944
20
19.159089
10
-17.138901
20
18.881421
10
-18.881421
20
17.138901
10
-19.159089
20
17.390944
10
-19.436757
20
17.642986
10
-19.736248
20
17.870958
10
-20.063538
20
18.068050
10
-20.407676
20
18.246024
10
-20.765484
20
18.408073
10
-21.135194
20
18.555840
10
-21.515619
20
18.690322
10
-21.905881
20
18.812177
10
-22.305284
20
18.921860
10
-22.713255
20
19.019692
10
-23.129300
20
19.105902
10
-23.773631
20
18.297937
10
-23.597003
20
17.911507
10
-23.410842
20
17.535534
10
-23.215034
20
17.170551
10
-23.009392
20
16.817189
10
-22.793630
20
16.476228
10
-22.567299
20
16.148669
10
-22.329693
20
15.835891
10
-22.079604
20
15.539984
10
-21.814624
20
15.264757
10
-21.525725
20
15.023503
10
-21.218215
20
14.808882
10
-20.910705
20
14.594260
10
-22.221789
20
12.507682
10
-22.548580
20
12.691618
10
-22.875371
20
12.875555
10
-23.218081
20
13.031168
10
-23.581023
20
13.150489
10
-23.956135
20
13.247423
10
-24.341032
20
13.325790
10
-24.734353
20
13.387583
10
-25.135165
20
13.434041
10
-25.542758
20
13.466000
10
-25.956554
20
13.484057
10
-26.376066
20
13.488653
10
-26.800863
20
13.480124
10
-27.249250
20
12.549039
10
-26.991062
20
12.211601
10
-26.725907
20
11.886479
10
-26.453792
20
11.574219
10
-26.174676
20
11.275476
10
-25.888451
20
10.991074
10
-25.594907
20
10.722091
10
-25.293658
20
10.470027
10
-24.983994
20
10.237190
10
-24.664414
20
10.027827
10
-24.329074
20
9.856908
10
-23.981516
20
9.716095
10
-23.633958
20
9.575282
10
-24.447863
20
7.249275
10
-24.807391
20
7.355882
10
-25.166918
20
7.462489
10
-25.535663
20
7.537940
10
-25.916056
20
7.573508
10
-26.303334
20
7.584541
10
-26.696019
20
7.575295
10
-27.093229
20
7.548017
10
-27.494330
20
7.504121
10
-27.898814
20
7.444581
10
-28.306254
20
7.370107
10
-28.716271
20
7.281238
10
-29.128519
20
7.178396
10
-29.358478
20
6.170880
10
-29.031677
20
5.899354
10
-28.700823
20
5.641387
10
-28.366046
20
5.397506
10
-28.027451
20
5.168363
10
-27.685118
20
4.954783
10
-27.339079
20
4.757863
10
-26.989294
20
4.579154
10
-26.635582
20
4.421060
10
-26.277427
20
4.288060
10
-25.912462
20
4.196047
10
-25.542284
20
4.136103
10
-25.172106
20
4.076159
10
-25.448020
20
1.627359
10
-25.822255
20
1.651291
10
-26.196491
20
1.675222
10
-26.572780
20
1.666728
10
-26.951551
20
1.616759
10
-27.331573
20
1.541338
10
-27.712355
20
1.444944
10
-28.093537
20
1.329962
10
-28.474813
20
1.197913
10
-28.855908
20
1.049859
10
-29.236560
20
0.886589
10
-29.616522
20
0.708711
10
-29.995550
20
0.516713
10
-29.995550
20
-0.516713
10
-29.616522
20
-0.708711
10
-29.236560
20
-0.886589
10
-28.855908
20
-1.049859
10
-28.474813
20
-1.197913
10
-28.093537
20
-1.329962
10
-27.712355
20
-1.444944
10
-27.331573
20
-1.541338
10
-26.951551
20
-1.616759
10
-26.572780
20
-1.666728
10
-26.196491
20
-1.675222
10
-25.822255
20
-1.651291
10
-25.448020
20
-1.627359
10
-25.172106
20
-4.076159
10
-25.542284
20
-4.136103
10
-25.912462
20
-4.196047
10
-26.277427
20
-4.288060
10
-26.635582
20
-4.421060
10
-26.989294
20
-4.579154
10
-27.339079
20
-4.757863
10
-27.685118
20
-4.954783
10
-28.027451
20
-5.168363
10
-28.366046
20
-5.397506
10
-28.700823
20
-5.641387
10
-29.031677
20
-5.899354
10
-29.358478
20
-6.170880
10
-29.128519
20
-7.178396
10
-28.716271
20
-7.281238
10
-28.306254
20
-7.370107
10
-27.898814
20
-7.444581
10
-27.494330
20
-7.504121
10
-27.093229
20
-7.548017
10
-26.696019
20
-7.575295
10
-26.303334
20
-7.584541
10
-25.916056
20
-7.573508
10
-25.535663
20
-7.537940
10
-25.166918
20
-7.462489
10
-24.807391
20
-7.355882
10
-24.447863
20
-7.249275
10
-23.633958
20
-9.575282
10
-23.981516
20
-9.716095
10
-24.329074
20
-9.856908
10
-24.664414
20
-10.027827
10
-24.983994
20
-10.237190
10
-25.293658
20
-10.470027
10
-25.594907
20
-10.722091
10
-25.888451
20
-10.991074
10
-26.174676
20
-11.275476
10
-26.453792
20
-11.574219
10
-26.725907
20
-11.886479
10
-26.991062
20
-12.211601
10
-27.249250
20
-12.549039
10
-26.800863
20
-13.480124
10
-26.376066
20
-13.488653
10
-25.956554
20
-13.484057
10
-25.542758
20
-13.466000
10
-25.135165
20
-13.434041
10
-24.734353
20
-13.387583
10
-24.341032
20
-13.325790
10
-23.956135
20
-13.247423
10
-23.581023
20
-13.150489
10
-23.218081
20
-13.031168
10
-22.875371
20
-12.875555
10
-22.548580
20
-12.691618
10
-22.221789
20
-12.507682
10
-20.910705
20
-14.594260
10
-21.218215
20
-14.808882
10
-21.525725
20
-15.023503
10
-21.814624
20
-15.264757
10
-22.079604
20
-15.539984
10
-22.329693
20
-15.835891
10
-22.567299
20
-16.148669
10
-22.793630
20
-16.476228
10
-23.009392
20
-16.817189
10
-23.215034
20
-17.170551
10
-23.410842
20
-17.535534
10
-23.597003
20
-17.911507
10
-23.773631
20
-18.297937
10
-23.129300
20
-19.105902
10
-22.713255
20
-19.019692
10
-22.305284
20
-18.921860
10
-21.905881
20
-18.812177
10
-21.515619
20
-18.690322
10
-21.135194
20
-18.555840
10
-20.765484
20
-18.408073
10
-20.407676
20
-18.246024
10
-20.063538
20
-18.068050
10
-19.736248
20
-17.870958
10
-19.436757
20
-17.642986
10
-19.159089
20
-17.390944
10
-18.881421
20
-17.138901
10
-17.138901
20
-18.881421
10
-17.390944
20
-19.159089
10
-17.642986
20
-19.436757
10
-17.870958
20
-19.736248
10
-18.068050
20
-20.063538
10
-18.246024
20
-20.407676
10
-18.408073
20
-20.765484
10
-18.555840
20
-21.135194
10
-18.690322
20
-21.515619
10
-18.812177
20
-21.905881
10
-18.921860
20
-22.305284
10
-19.019692
20
-22.713255
10
-19.105902
20
-23.129300
10
-18.297937
20
-23.773631
10
-17.911507
20
-23.597003
10
-17.535534
20
-23.410842
10
-17.170551
20
-23.215034
10
-16.817189
20
-23.009392
10
-16.476228
20
-22.793630
10
-16.148669
20
-22.567299
10
-15.835891
20
-22.329693
10
-15.539984
20
-22.079604
10
-15.264757
20
-21.814624
10
-15.023503
20
-21.525725
10
-14.808882
20
-21.218215
10
-14.594260
20
-20.910705
10
-12.507682
20
-22.221789
10
-12.691618
20
-22.548580
10
-12.875555
20
-22.875371
10
-13.031168
20
-23.218081
10
-13.150489
20
-23.581023
10
-13.247423
20
-23.956135
10
-13.325790
20
-24.341032
10
-13.387583
20
-24.734353
10
-13.434041
20
-25.135165
10
-13.466000
20
-25.542758
10
-13.484057
20
-25.956554
10
-13.488653
20
-26.376066
10
-13.480124
20
-26.800863
10
-12.549039
20
-27.249250
10
-12.211601
20
-26.991062
10
-11.886479
20
-26.725907
10
-11.574219
20
-26.453792
10
-11.275476
20
-26.174676
10
-10.991074
20
-25.888451
10
-10.722091
20
-25.594907
10
-10.470027
20
-25.293658
10
-10.237190
20
-24.983994
10
-10.027827
20
-24.664414
10
-9.856908
20
-24.329074
10
-9.716095
20
-23.981516
10
-9.575282
20
-23.633958
10
-7.249275
20
-24.447863
10
-7.355882
20
-24.807391
10
-7.462489
20
-25.166918
10
-7.537940
20
-25.535663
10
-7.573508
20
-25.916056
10
-7.584541
20
-26.303334
10
-7.575295
20
-26.696019
10
-7.548017
20
-27.093229
10
-7.504121
20
-27.494330
10
-7.444581
20
-27.898814
10
-7.370107
20
-28.306254
10
-7.281238
20
-28.716271
10
-7.178396
20
-29.128519
10
-6.170880
20
-29.358478
10
-5.899354
20
-29.031677
10
-5.641387
20
-28.700823
10
-5.397506
20
-28.366046
10
-5.168363
20
-28.027451
10
-4.954783
20
-27.685118
10
-4.757863
20
-27.339079
10
-4.579154
20
-26.989294
10
-4.421060
20
-26.635582
10
-4.288060
20
-26.277427
10
-4.196047
20
-25.912462
10
-4.136103
20
-25.542284
10
-4.076159
20
-25.172106
10
-1.627359
20
-25.448020
10
-1.651291
20
-25.822255
10
-1.675222
20
-26.196491
10
-1.666728
20
-26.572780
10
-1.616759
20
-26.951551
10
-1.541338
20
-27.331573
10
-1.444944
20
-27.712355
10
-1.329962
20
-28.093537
10
-1.197913
20
-28.474813
10
-1.049859
20
-28.855908
10
-0.886589
20
-29.236560
10
-0.708711
20
-29.616522
10
-0.516713
20
-29.995550
10
0.516713
20
-29.995550
10
0.708711
20
-29.616522
10
0.886589
20
-29.236560
10
1.049859
20
-28.855908
10
1.197913
20
-28.474813
10
1.329962
20
-28.093537
10
1.444944
20
-27.712355
10
1.541338
20
-27.331573
10
1.616759
20
-26.951551
10
1.666728
20
-26.572780
10
1.675222
20
-26.196491
10
1.651291
20
-25.822255
10
1.627359
20
-25.448020
10
4.076159
20
-25.172106
10
4.136103
20
-25.542284
10
4.196047
20
-25.912462
10
4.288060
20
-26.277427
10
4.421060
20
-26.635582
10
4.579154
20
-26.989294
10
4.757863
20
-27.339079
10
4.954783
20
-27.685118
10
5.168363
20
-28.027451
10
5.397506
20
-28.366046
10
5.641387
20
-28.700823
10
5.899354
20
-29.031677
10
6.170880
20
-29.358478
10
7.178396
20
-29.128519
10
7.281238
20
-28.716271
10
7.370107
20
-28.306254
10
7.444581
20
-27.898814
10
7.504121
20
-27.494330
10
7.548017
20
-27.093229
10
7.575295
20
-26.696019
10
7.584541
20
-26.303334
10
7.573508
20
-25.916056
10
7.537940
20
-25.535663
10
7.462489
20
-25.166918
10
7.355882
20
-24.807391
10
7.249275
20
-24.447863
10
9.575282
20
-23.633958
10
9.716095
20
-23.981516
10
9.856908
20
-24.329074
10
10.027827
20
-24.664414
10
10.237190
20
-24.983994
10
10.470027
20
-25.293658
10
10.722091
20
-25.594907
10
10.991074
20
-25.888451
10
11.275476
20
-26.174676
10
11.574219
20
-26.453792
10
11.886479
20
-26.725907
10
12.211601
20
-26.991062
10
12.549039
20
-27.249250
10
13.480124
20
-26.800863
10
13.488653
20
-26.376066
10
13.484057
20
-25.956554
10
13.466000
20
-25.542758
10
13.434041
20
-25.135165
10
13.387583
20
-24.734353
10
13.325790
20
-24.341032
10
13.247423
20
-23.956135
10
13.150489
20
-23.581023
10
13.031168
20
-23.218081
10
12.875555
20
-22.875371
10
12.691618
20
-22.548580
10
12.507682
20
-22.221789
10
14.594260
20
-20.910705
10
14.808882
20
-21.218215
10
15.023503
20
-21.525725
10
15.264757
20
-21.814624
10
15.539984
20
-22.079604
10
15.835891
20
-22.329693
10
16.148669
20
-22.567299
10
16.476228
20
-22.793630
10
16.817189
20
-23.009392
10
17.170551
20
-23.215034
10
17.535534
20
-23.410842
10
17.911507
20
-23.597003
10
18.297937
20
-23.773631
10
19.105902
20
-23.129300
10
19.019692
20
-22.713255
10
18.921860
20
-22.305284
10
18.812177
20
-21.905881
10
18.690322
20
-21.515619
10
18.555840
20
-21.135194
10
18.408073
20
-20.765484
10
18.246024
20
-20.407676
10
18.068050
20
-20.063538
10
17.870958
20
-19.736248
10
17.642986
20
-19.436757
10
17.390944
20
-19.159089
10
17.138901
20
-18.881421
10
18.881421
20
-17.138901
10
19.159089
20
-17.390944
10
19.436757
20
-17.642986
10
19.736248
20
-17.870958
10
20.063538
20
-18.068050
10
20.407676
20
-18.246024
10
20.765484
20
-18.408073
10
21.135194
20
-18.555840
10
21.515619
20
-18.690322
10
21.905881
20
-18.812177
10
22.305284
20
-18.921860
10
22.713255
20
-19.019692
10
23.129300
20
-19.105902
10
23.773631
20
-18.297937
10
23.597003
20
-17.911507
10
23.410842
20
-17.535534
10
23.215034
20
-17.170551
10
23.009392
20
-16.817189
10
22.793630
20
-16.476228
10
22.567299
20
-16.148669
10
22.329693
20
-15.835891
10
22.079604
20
-15.539984
10
21.814624
20
-15.264757
10
21.525725
20
-15.023503
10
21.218215
20
-14.808882
10
20.910705
20
-14.594260
10
22.221789
20
-12.507682
10
22.548580
20
-12.691618
10
22.875371
20
-12.875555
10
23.218081
20
-13.031168
10
23.581023
20
-13.150489
10
23.956135
20
-13.247423
10
24.341032
20
-13.325790
10
24.734353
20
-13.387583
10
25.135165
20
-13.434041
10
25.542758
20
-13.466000
10
25.956554
20
-13.484057
10
26.376066
20
-13.488653
10
26.800863
20
-13.480124
10
27.249250
20
-12.549039
10
26.991062
20
-12.211601
10
26.725907
20
-11.886479
10
26.453792
20
-11.574219
10
26.174676
20
-11.275476
10
25.888451
20
-10.991074
10
25.594907
20
-10.722091
10
25.293658
20
-10.470027
10
24.983994
20
-10.237190
10
24.664414
20
-10.027827
10
24.329074
20
-9.856908
10
23.981516
20
-9.716095
10
23.633958
20
-9.575282
10
24.447863
20
-7.249275
10
24.807391
20
-7.355882
10
25.166918
20
-7.462489
10
25.535663
20
-7.537940
10
25.916056
20
-7.573508
10
26.303334
20
-7.584541
10
26.696019
20
-7.575295
10
27.093229
20
-7.548017
10
27.494330
20
-7.504121
10
27.898814
20
-7.444581
10
28.306254
20
-7.370107
10
28.716271
20
-7.281238
10
29.128519
20
-7.178396
10
29.358478
20
-6.170880
10
29.031677
20
-5.899354
10
28.700823
20
-5.641387
10
28.366046
20
-5.397506
10
28.027451
20
-5.168363
10
27.685118
20
-4.954783
10
27.339079
20
-4.757863
10
26.989294
20
-4.579154
10
26.635582
20
-4.421060
10
26.277427
20
-4.288060
10
25.912462
20
-4.196047
10
25.542284
20
-4.136103
10
25.172106
20
-4.076159
0
ENDSEC
0
EOF
