0
SECTION
2
HEADER
9
$ACADVER
1
AC1015
0
ENDSEC
0
SECTION
2
ENTITIES
0
LWPOLYLINE
5
64
100
AcDbEntity
8
0
100
AcDbPolyline
90
312
70
1
10
26.351215
20
-3.629530
10
27.391394
20
-3.772801
10
28.431574
20
-3.916072
10
29.471753
20
-4.059343
10
30.511933
20
-4.202614
10
31.555444
20
-4.321624
10
32.627027
20
-4.229316
10
33.713771
20
-3.998018
10
34.808322
20
-3.657970
10
35.905788
20
-3.221315
10
37.002001
20
-2.694797
10
38.093105
20
-2.082747
10
39.175411
20
-1.388225
10
39.175411
20
1.388225
10
38.093105
20
2.082747
10
37.002001
20
2.694797
10
35.905788
20
3.221315
10
34.808322
20
3.657970
10
33.713771
20
3.998018
10
32.627027
20
4.229316
10
31.555444
20
4.321624
10
30.511933
20
4.202614
10
29.471753
20
4.059343
10
28.431574
20
3.916072
10
27.391394
20
3.772801
10
26.351215
20
3.629530
10
24.635586
20
10.032342
10
25.608044
20
10.428355
10
26.580501
20
10.824369
10
27.552959
20
11.220382
10
28.525416
20
11.616396
10
29.488628
20
12.035086
10
30.370492
20
12.650818
10
31.195991
20
13.394500
10
31.973876
20
14.236266
10
32.705982
20
15.163153
10
33.392071
20
16.167238
10
34.030970
20
17.242841
10
34.621014
20
18.385467
10
33.232789
20
20.789944
10
31.948223
20
20.850264
10
30.697274
20
20.834763
10
29.484667
20
20.742635
10
28.315906
20
20.572056
10
27.197973
20
20.319271
10
26.141176
20
19.976209
10
25.167005
20
19.520358
10
24.322802
20
18.895537
10
23.493615
20
18.251371
10
22.664429
20
17.607205
10
21.835242
20
16.963039
10
21.006056
20
16.318873
10
16.318873
20
21.006056
10
16.963039
20
21.835242
10
17.607205
20
22.664429
10
18.251371
20
23.493615
10
18.895537
20
24.322802
10
19.520358
20
25.167005
10
19.976209
20
26.141176
10
20.319271
20
27.197973
10
20.572056
20
28.315906
10
20.742635
20
29.484667
10
20.834763
20
30.697274
10
20.850264
20
31.948223
10
20.789944
20
33.232789
10
18.385467
20
34.621014
10
17.242841
20
34.030970
10
16.167238
20
33.392071
10
15.163153
20
32.705982
10
14.236266
20
31.973876
10
13.394500
20
31.195991
10
12.650818
20
30.370492
10
12.035086
20
29.488628
10
11.616396
20
28.525416
10
11.220382
20
27.552959
10
10.824369
20
26.580501
10
10.428355
20
25.608044
10
10.032342
20
24.635586
10
3.629530
20
26.351215
10
3.772801
20
27.391394
10
3.916072
20
28.431574
10
4.059343
20
29.471753
10
4.202614
20
30.511933
10
4.321624
20
31.555444
10
4.229316
20
32.627027
10
3.998018
20
33.713771
10
3.657970
20
34.808322
10
3.221315
20
35.905788
10
2.694797
20
37.002001
10
2.082747
20
38.093105
10
1.388225
20
39.175411
10
-1.388225
20
39.175411
10
-2.082747
20
38.093105
10
-2.694797
20
37.002001
10
-3.221315
20
35.905788
10
-3.657970
20
34.808322
10
-3.998018
20
33.713771
10
-4.229316
20
32.627027
10
-4.321624
20
31.555444
10
-4.202614
20
30.511933
10
-4.059343
20
29.471753
10
-3.916072
20
28.431574
10
-3.772801
20
27.391394
10
-3.629530
20
26.351215
10
-10.032342
20
24.635586
10
-10.428355
20
25.608044
10
-10.824369
20
26.580501
10
-11.220382
20
27.552959
10
-11.616396
20
28.525416
10
-12.035086
20
29.488628
10
-12.650818
20
30.370492
10
-13.394500
20
31.195991
10
-14.236266
20
31.973876
10
-15.163153
20
32.705982
10
-16.167238
20
33.392071
10
-17.242841
20
34.030970
10
-18.385467
20
34.621014
10
-20.789944
20
33.232789
10
-20.850264
20
31.948223
10
-20.834763
20
30.697274
10
-20.742635
20
29.484667
10
-20.572056
20
28.315906
10
-20.319271
20
27.197973
10
-19.976209
20
26.141176
10
-19.520358
20
25.167005
10
-18.895537
20
24.322802
10
-18.251371
20
23.493615
10
-17.607205
20
22.664429
10
-16.963039
20
21.835242
10
-16.318873
20
21.006056
10
-21.006056
20
16.318873
10
-21.835242
20
16.963039
10
-22.664429
20
17.607205
10
-23.493615
20
18.251371
10
-24.322802
20
18.895537
10
-25.167005
20
19.520358
10
-26.141176
20
19.976209
10
-27.197973
20
20.319271
10
-28.315906
20
20.572056
10
-29.484667
20
20.742635
10
-30.697274
20
20.834763
10
-31.948223
20
20.850264
10
-33.232789
20
20.789944
10
-34.621014
20
18.385467
10
-34.030970
20
17.242841
10
-33.392071
20
16.167238
10
-32.705982
20
15.163153
10
-31.973876
20
14.236266
10
-31.195991
20
13.394500
10
-30.370492
20
12.650818
10
-29.488628
20
12.035086
10
-28.525416
20
11.616396
10
-27.552959
20
11.220382
10
-26.580501
20
10.824369
10
-25.608044
20
10.428355
10
-24.635586
20
10.032342
10
-26.351215
20
3.629530
10
-27.391394
20
3.772801
10
-28.431574
20
3.916072
10
-29.471753
20
4.059343
10
-30.511933
20
4.202614
10
-31.555444
20
4.321624
10
-32.627027
20
4.229316
10
-33.713771
20
3.998018
10
-34.808322
20
3.657970
10
-35.905788
20
3.221315
10
-37.002001
20
2.694797
10
-38.093105
20
2.082747
10
-39.175411
20
1.388225
10
-39.175411
20
-1.388225
10
-38.093105
20
-2.082747
10
-37.002001
20
-2.694797
10
-35.905788
20
-3.221315
10
-34.808322
20
-3.657970
10
-33.713771
20
-3.998018
10
-32.627027
20
-4.229316
10
-31.555444
20
-4.321624
10
-30.511933
20
-4.202614
10
-29.471753
20
-4.059343
10
-28.431574
20
-3.916072
10
-27.391394
20
-3.772801
10
-26.351215
20
-3.629530
10
-24.635586
20
-10.032342
10
-25.608044
20
-10.428355
10
-26.580501
20
-10.824369
10
-27.552959
20
-11.220382
10
-28.525416
20
-11.616396
10
-29.488628
20
-12.035086
10
-30.370492
20
-12.650818
10
-31.195991
20
-13.394500
10
-31.973876
20
-14.236266
10
-32.705982
20
-15.163153
10
-33.392071
20
-16.167238
10
-34.030970
20
-17.242841
10
-34.621014
20
-18.385467
10
-33.232789
20
-20.789944
10
-31.948223
20
-20.850264
10
-30.697274
20
-20.834763
10
-29.484667
20
-20.742635
10
-28.315906
20
-20.572056
10
-27.197973
20
-20.319271
10
-26.141176
20
-19.976209
10
-25.167005
20
-19.520358
10
-24.322802
20
-18.895537
10
-23.493615
20
-18.251371
10
-22.664429
20
-17.607205
10
-21.835242
20
-16.963039
10
-21.006056
20
-16.318873
10
-16.318873
20
-21.006056
10
-16.963039
20
-21.835242
10
-17.607205
20
-22.664429
10
-18.251371
20
-23.493615
10
-18.895537
20
-24.322802
10
-19.520358
20
-25.167005
10
-19.976209
20
-26.141176
10
-20.319271
20
-27.197973
10
-20.572056
20
-28.315906
10
-20.742635
20
-29.484667
10
-20.834763
20
-30.697274
10
-20.850264
20
-31.948223
10
-20.789944
20
-33.232789
10
-18.385467
20
-34.621014
10
-17.242841
20
-34.030970
10
-16.167238
20
-33.392071
10
-15.163153
20
-32.705982
10
-14.236266
20
-31.973876
10
-13.394500
20
-31.195991
10
-12.650818
20
-30.370492
10
-12.035086
20
-29.488628
10
-11.616396
20
-28.525416
10
-11.220382
20
-27.552959
10
-10.824369
20
-26.580501
10
-10.428355
20
-25.608044
10
-10.032342
20
-24.635586
10
-3.629530
20
-26.351215
10
-3.772801
20
-27.391394
10
-3.916072
20
-28.431574
10
-4.059343
20
-29.471753
10
-4.202614
20
-30.511933
10
-4.321624
20
-31.555444
10
-4.229316
20
-32.627027
10
-3.998018
20
-33.713771
10
-3.657970
20
-34.808322
10
-3.221315
20
-35.905788
10
-2.694797
20
-37.002001
10
-2.082747
20
-38.093105
10
-1.388225
20
-39.175411
10
1.388225
20
-39.175411
10
2.082747
20
-38.093105
10
2.694797
20
-37.002001
10
3.221315
20
-35.905788
10
3.657970
20
-34.808322
10
3.998018
20
-33.713771
10
4.229316
20
-32.627027
10
4.321624
20
-31.555444
10
4.202614
20
-30.511933
10
4.059343
20
-29.471753
10
3.916072
20
-28.431574
10
3.772801
20
-27.391394
10
3.629530
20
-26.351215
10
10.032342
20
-24.635586
10
10.428355
20
-25.608044
10
10.824369
20
-26.580501
10
11.220382
20
-27.552959
10
11.616396
20
-28.525416
10
12.035086
20
-29.488628
10
12.650818
20
-30.370492
10
13.394500
20
-31.195991
10
14.236266
20
-31.973876
10
15.163153
20
-32.705982
10
16.167238
20
-33.392071
10
17.242841
20
-34.030970
10
18.385467
20
-34.621014
10
20.789944
20
-33.232789
10
20.850264
20
-31.948223
10
20.834763
20
-30.697274
10
20.742635
20
-29.484667
10
20.572056
20
-28.315906
10
20.319271
20
-27.197973
10
19.976209
20
-26.141176
10
19.520358
20
-25.167005
10
18.895537
20
-24.322802
10
18.251371
20
-23.493615
10
17.607205
20
-22.664429
10
16.963039
20
-21.835242
10
16.318873
20
-21.006056
10
21.006056
20
-16.318873
10
21.835242
20
-16.963039
10
22.664429
20
-17.607205
10
23.493615
20
-18.251371
10
24.322802
20
-18.895537
10
25.167005
20
-19.520358
10
26.141176
20
-19.976209
10
27.197973
20
-20.319271
10
28.315906
20
-20.572056
10
29.484667
20
-20.742635
10
30.697274
20
-20.834763
10
31.948223
20
-20.850264
10
33.232789
20
-20.789944
10
34.621014
20
-18.385467
10
34.030970
20
-17.242841
10
33.392071
20
-16.167238
10
32.705982
20
-15.163153
10
31.973876
20
-14.236266
10
31.195991
20
-13.394500
10
30.370492
20
-12.650818
10
29.488628
20
-12.035086
10
28.525416
20
-11.616396
10
27.552959
20
-11.220382
10
26.580501
20
-10.824369
10
25.608044
20
-10.428355
10
24.635586
20
-10.032342
0
ENDSEC
0
EOF
